<svg width="24" height="25" viewBox="0 0 24 25" fill="none" xmlns="http://www.w3.org/2000/svg">
<path d="M3 3.5L6.58916 7.08916M21 21.5L17.4112 17.9112M13.8749 19.3246C13.2677 19.4398 12.6411 19.5 12.0005 19.5C7.52281 19.5 3.73251 16.5571 2.45825 12.5C2.80515 11.3955 3.33851 10.3736 4.02143 9.47118M9.87868 10.3787C10.4216 9.83579 11.1716 9.5 12 9.5C13.6569 9.5 15 10.8431 15 12.5C15 13.3284 14.6642 14.0784 14.1213 14.6213M9.87868 10.3787L14.1213 14.6213M9.87868 10.3787L6.58916 7.08916M14.1213 14.6213L6.58916 7.08916M14.1213 14.6213L17.4112 17.9112M6.58916 7.08916C8.14898 6.08354 10.0066 5.5 12.0004 5.5C16.4781 5.5 20.2684 8.44291 21.5426 12.5C20.8357 14.7507 19.3545 16.6585 17.4112 17.9112" stroke="#737373" stroke-width="2" stroke-linecap="round" stroke-linejoin="round"/>
</svg>
