<svg width="27" height="31" viewBox="0 0 27 31" fill="none" xmlns="http://www.w3.org/2000/svg">
<path d="M25.7508 12.5339C26.1998 12.4898 26.5291 12.0985 26.5291 12.0985C26.5291 12.0985 26.1302 11.7785 25.6803 11.8227C25.6257 11.8278 25.5717 11.8383 25.5191 11.8541C25.5974 11.7263 25.6391 11.5795 25.6396 11.4297C25.5521 11.4369 25.4662 11.4576 25.385 11.4908C25.5242 10.2525 25.0845 8.99549 24.0711 7.92606C24.1112 7.93348 24.1518 7.9383 24.1925 7.94049C24.661 7.96086 25.0565 7.60608 25.0565 7.60608C25.0565 7.60608 24.717 7.24706 24.2731 7.20293C24.3747 7.1461 24.47 7.07867 24.5575 7.00177C25.1609 6.46451 25.2246 5.55041 25.2246 5.55041C25.2246 5.55041 24.3096 5.50797 23.7062 6.04523C23.633 6.11088 23.5657 6.18272 23.505 6.25996C23.4836 5.99206 23.3891 5.73518 23.2317 5.5173C23.1798 5.56172 23.1313 5.60995 23.0866 5.66159C22.4763 3.67042 20.6388 2.30817 18.1944 2.08665C18.2442 2.01185 18.2857 1.93189 18.3183 1.84815C18.3183 1.84815 17.9279 1.71914 17.585 1.86428C17.6372 1.78229 17.6804 1.69493 17.714 1.60371C17.9423 0.97139 17.6291 0.278809 17.6291 0.278809C17.6291 0.278809 16.9433 0.609821 16.715 1.24129C16.6876 1.31832 16.6669 1.39754 16.653 1.47809C16.5315 1.29055 16.3606 1.14018 16.1591 1.04353C16.1223 1.14 16.0975 1.24062 16.0852 1.34314C15.0144 0.677766 13.7658 0.355574 12.5067 0.419742C11.2476 0.483909 10.0382 0.931371 9.04057 1.70217C9.03915 1.51598 8.99715 1.33235 8.9175 1.16406C8.9175 1.16406 8.55593 1.36266 8.42947 1.7115C8.40481 1.61763 8.37039 1.5266 8.32677 1.4399C8.01952 0.845775 7.29808 0.600485 7.29808 0.600485C7.29808 0.600485 7.07232 1.32787 7.38296 1.92539C7.42012 1.998 7.46387 2.06704 7.51367 2.13163C7.29366 2.09322 7.06734 2.11582 6.85928 2.19699C6.88604 2.25261 6.91726 2.30597 6.95264 2.35655C4.78408 2.74273 3.19861 4.04387 2.65202 5.84747C2.58123 5.78983 2.50538 5.7387 2.4254 5.69469C2.4254 5.69469 2.21236 6.14029 2.33119 6.5706C2.24167 6.49609 2.14435 6.43149 2.04092 6.37794C1.32287 6.00788 0.44696 6.27779 0.44696 6.27779C0.44696 6.27779 0.736385 7.14691 1.45528 7.51612C1.54286 7.56107 1.63433 7.598 1.72858 7.62645C1.48638 7.74261 1.28083 7.92321 1.13445 8.14844C1.33025 8.25327 1.54669 8.31383 1.76847 8.32582C-0.117459 10.474 0.190638 13.2418 2.65541 15.1413C2.65541 15.3111 2.65541 15.4715 2.67239 15.6327C2.46647 15.6139 2.25889 15.637 2.06214 15.7006C2.06214 15.7006 2.23952 16.1615 2.63504 16.3686C2.51941 16.3837 2.40564 16.4108 2.29554 16.4492C1.53167 16.7191 1.13105 17.5407 1.13105 17.5407C1.13105 17.5407 1.96198 17.9252 2.72331 17.6553C2.81602 17.6226 2.90552 17.5814 2.99067 17.5322C2.96149 17.6117 2.94155 17.6943 2.93126 17.7784C2.93079 17.7877 2.93079 17.7971 2.93126 17.8064C2.91451 17.9795 2.92656 18.1541 2.9669 18.3233C3.16143 18.2575 3.3409 18.1536 3.49483 18.0177H3.50926C3.52284 18.0372 3.53727 18.0559 3.55169 18.0746C3.50168 18.12 3.45515 18.1691 3.4125 18.2214C2.99322 18.7468 3.06875 19.5039 3.06875 19.5039C3.06875 19.5039 3.8182 19.4097 4.24258 18.8834L4.25955 18.8597C4.37244 18.9598 4.48278 19.0413 4.60584 19.1321C4.65932 19.1763 4.69072 19.2051 4.72382 19.2263C5.80853 19.9902 7.25395 20.3925 8.90647 20.3085C11.4578 22.5747 15.1159 22.5008 17.5442 20.1345C19.0584 20.1506 20.379 19.7645 21.3916 19.0829C21.4562 19.2178 21.5566 19.3323 21.6819 19.4139C21.7628 19.2661 21.7944 19.0963 21.7718 18.9293C21.8185 18.9749 21.87 19.0153 21.9255 19.0498C22.3091 19.2866 22.8082 19.1737 22.8082 19.1737C22.8082 19.1737 22.6843 18.678 22.2989 18.4412C22.2714 18.4245 22.2431 18.4092 22.214 18.3954C22.2497 18.3581 22.2845 18.3207 22.3184 18.2834C22.3899 18.2328 22.4534 18.1719 22.5069 18.1026L22.4848 18.089C23.213 17.1859 23.5941 16.0257 23.5092 14.7186C24.2731 14.0761 24.7993 13.353 25.104 12.5967C25.143 12.6899 25.2038 12.7723 25.2814 12.8369C25.4275 12.9374 25.6038 12.9844 25.7805 12.9702C25.7555 12.8038 25.6779 12.6497 25.559 12.5305C25.6226 12.5383 25.6869 12.5394 25.7508 12.5339Z" fill="#047857"/>
<path fill-rule="evenodd" clip-rule="evenodd" d="M17.7721 0.214028L17.6291 0.278704L17.5609 0.137342L17.7058 0.0673828L17.7721 0.214028ZM17.8672 1.64125C17.9885 1.29264 17.963 0.936213 17.9112 0.67365C17.8846 0.539119 17.8505 0.425747 17.8229 0.345634C17.809 0.305497 17.7967 0.273488 17.7877 0.251099C17.7832 0.239898 17.7795 0.231087 17.7769 0.224851L17.7736 0.217445L17.7727 0.215229L17.7723 0.214501L17.7721 0.214028C17.7721 0.213979 17.7721 0.214028 17.6291 0.278704C17.5609 0.137342 17.5609 0.137319 17.5609 0.137342L17.5604 0.137568L17.5597 0.137918L17.5575 0.138989L17.5503 0.142615C17.5442 0.145691 17.5357 0.150087 17.5251 0.155796C17.5038 0.16721 17.4738 0.183911 17.4373 0.205853C17.3647 0.249651 17.2657 0.314816 17.159 0.401081C16.9557 0.565463 16.7142 0.81467 16.5824 1.148C16.4782 1.04814 16.3583 0.964911 16.2269 0.9019L16.0732 0.82815L16.0124 0.987481C15.9989 1.0229 15.9868 1.05881 15.9762 1.09513C14.9223 0.490641 13.7152 0.200873 12.4987 0.262873C11.2996 0.323984 10.1445 0.724132 9.1664 1.41406C9.14328 1.30482 9.10744 1.19832 9.05939 1.0968L8.98734 0.944575L8.84055 1.02714C8.81366 1.04211 8.72144 1.0975 8.61734 1.18891C8.56683 1.23327 8.5113 1.28805 8.45844 1.35289C8.28589 1.02856 8.00739 0.80486 7.77991 0.663871C7.66329 0.591596 7.557 0.539148 7.47951 0.504614C7.44068 0.487313 7.40887 0.474414 7.38635 0.465696C7.37508 0.461334 7.36611 0.458011 7.35974 0.4557L7.35214 0.452988L7.34986 0.452193L7.3491 0.451934L7.34871 0.451801C7.34867 0.451784 7.34862 0.451768 7.29809 0.60038L7.34871 0.451801L7.19597 0.399868L7.14818 0.55385L7.29809 0.60038C7.14818 0.55385 7.14819 0.553799 7.14818 0.55385L7.14802 0.554349L7.14779 0.555116L7.14709 0.557446L7.1448 0.565218C7.14292 0.571757 7.14034 0.580982 7.13724 0.592683C7.13106 0.616072 7.12282 0.649429 7.11406 0.691051C7.09658 0.774127 7.07684 0.891056 7.06744 1.02801C7.04954 1.28878 7.06824 1.63511 7.22414 1.95863C7.0802 1.96692 6.93778 1.99777 6.80224 2.05065L6.64437 2.11223L6.70777 2.24401C4.68267 2.66833 3.16935 3.8948 2.56906 5.59658C2.54672 5.58288 2.52405 5.56971 2.50107 5.55706L2.42195 5.69294C2.28379 5.62688 2.28377 5.62693 2.28375 5.62697L2.2836 5.6273L2.28332 5.62787L2.28255 5.62952L2.28015 5.63474C2.27818 5.63907 2.2755 5.64507 2.27225 5.65264C2.26576 5.66776 2.25695 5.68919 2.24693 5.71601C2.22695 5.76951 2.20187 5.84521 2.18085 5.93563C2.1598 6.02616 2.14209 6.13454 2.13875 6.252C2.13024 6.24741 2.12168 6.24289 2.11309 6.23844C1.71846 6.03506 1.28721 6.01017 0.963915 6.03239C0.800941 6.04359 0.661746 6.06698 0.562912 6.08765C0.513412 6.098 0.473805 6.10772 0.446139 6.11499C0.4323 6.11862 0.42143 6.12164 0.413783 6.12383L0.404756 6.12646L0.402111 6.12726L0.400964 6.12761C0.400912 6.12762 0.400743 6.12767 0.446954 6.27764L0.400964 6.12761L0.247314 6.17495L0.298039 6.32727L0.446954 6.27764C0.298027 6.32724 0.298022 6.32722 0.298039 6.32727L0.298213 6.32779L0.298495 6.32863L0.299388 6.33124L0.302495 6.34012C0.305158 6.34761 0.309016 6.35821 0.314102 6.37157C0.324272 6.3983 0.339384 6.43616 0.359733 6.48243C0.400362 6.57483 0.462246 6.70163 0.547882 6.8407C0.717558 7.11624 0.987848 7.45192 1.38212 7.65489C1.23374 7.76746 1.10522 7.90527 1.00284 8.06279L0.909733 8.20606L1.06036 8.28671C1.18925 8.35572 1.32624 8.40734 1.46775 8.44057C0.63028 9.49181 0.279228 10.6798 0.424672 11.8461C0.577624 13.0727 1.27712 14.256 2.49851 15.2179C2.49869 15.3016 2.49953 15.3854 2.50325 15.4696C2.33733 15.4725 2.17241 15.4999 2.01387 15.5512L2.06214 15.7005L1.90986 15.7386L1.95059 15.9015L1.97931 15.8923C2.00259 15.9361 2.03256 15.9881 2.06955 16.0437C2.12107 16.1212 2.18795 16.2086 2.27146 16.2915C2.26221 16.2946 2.25298 16.2977 2.24377 16.3009L2.24325 16.3011C1.82357 16.4494 1.51036 16.7461 1.30536 16.9967C1.20204 17.123 1.12398 17.2403 1.07154 17.3264C1.04528 17.3695 1.02532 17.405 1.01173 17.4301C1.00493 17.4426 0.999708 17.4526 0.996082 17.4597L0.991834 17.4681L0.990604 17.4705L0.990213 17.4713L0.990074 17.4716C0.99005 17.4717 0.989971 17.4718 1.13106 17.5406L0.990074 17.4716L0.919765 17.6158L1.06514 17.6831L1.13106 17.5406C1.06514 17.6831 1.06509 17.6831 1.06514 17.6831L1.06564 17.6833L1.06644 17.6837L1.06896 17.6848L1.07754 17.6886C1.08482 17.6918 1.09518 17.6963 1.10839 17.7017C1.13481 17.7126 1.17272 17.7275 1.22035 17.7444C1.31544 17.7781 1.45013 17.8199 1.61003 17.8529C1.92674 17.9181 2.35609 17.9514 2.77385 17.8038C2.75722 17.99 2.77084 18.1777 2.81423 18.3596L2.85416 18.527L3.01719 18.4719C3.04299 18.4631 3.06855 18.4538 3.09386 18.4439C2.99831 18.6514 2.95094 18.863 2.92777 19.0391C2.90989 19.1751 2.90598 19.2935 2.90654 19.3783C2.90683 19.4208 2.90824 19.4551 2.90962 19.4792C2.91032 19.4913 2.911 19.5008 2.91154 19.5076L2.91222 19.5156L2.91244 19.5181L2.91252 19.5188L2.91256 19.5193C2.91256 19.5193 2.91257 19.5194 3.06876 19.5038L2.91256 19.5193L2.92856 19.6796L3.08834 19.6595L3.06876 19.5038C3.08834 19.6595 3.08828 19.6595 3.08834 19.6595L3.08885 19.6595L3.08965 19.6594L3.09204 19.659L3.10001 19.6579C3.1067 19.6569 3.1161 19.6555 3.12795 19.6535C3.15164 19.6495 3.1852 19.6432 3.22648 19.6341C3.30888 19.6158 3.42294 19.5857 3.5512 19.538C3.77556 19.4547 4.05312 19.314 4.27801 19.0803C4.35411 19.1413 4.4303 19.1976 4.50916 19.2558C4.51819 19.2632 4.52728 19.2709 4.53639 19.2786C4.56963 19.3066 4.60324 19.3349 4.63592 19.3563C5.73892 20.1322 7.19591 20.5402 8.85043 20.4682C11.4441 22.7308 15.1346 22.6573 17.6072 20.2918C19.0549 20.2965 20.3334 19.9387 21.341 19.3031C21.4104 19.3983 21.4967 19.4805 21.5962 19.5453L21.7381 19.6378L21.8196 19.4892C21.8652 19.4058 21.8978 19.3166 21.9166 19.2246C22.1226 19.3295 22.3422 19.3561 22.5094 19.3574C22.6044 19.3582 22.6861 19.3508 22.7445 19.3432C22.7738 19.3394 22.7974 19.3355 22.8141 19.3324C22.8225 19.3309 22.8292 19.3296 22.834 19.3286L22.8399 19.3274L22.8417 19.327L22.8423 19.3268L22.8427 19.3267C22.8428 19.3267 22.8428 19.3267 22.8082 19.1736L22.8427 19.3267L22.9994 19.2913L22.9605 19.1355L22.8082 19.1736C22.9605 19.1355 22.9605 19.1356 22.9605 19.1355L22.9603 19.1351L22.9597 19.1326L22.9582 19.1269C22.9569 19.1221 22.955 19.1155 22.9526 19.1074C22.9478 19.0911 22.9407 19.0682 22.9309 19.0404C22.9114 18.9849 22.8811 18.9087 22.8376 18.8243C22.7632 18.6799 22.6452 18.5023 22.4676 18.3668C22.5283 18.3171 22.5832 18.2606 22.6312 18.1983L22.7377 18.0602L22.7161 18.0469C23.3843 17.1526 23.7343 16.0342 23.6705 14.7874C24.3335 14.217 24.8194 13.5831 25.1353 12.9163C25.15 12.9306 25.1652 12.9443 25.181 12.9575L25.1866 12.9621L25.1925 12.9662C25.3683 13.0871 25.5804 13.1437 25.7931 13.1265L25.9607 13.113L25.9357 12.9468C25.9216 12.8529 25.8935 12.7623 25.8529 12.6778C26.079 12.636 26.2688 12.5249 26.4022 12.4254C26.4783 12.3685 26.539 12.3133 26.5809 12.272C26.6019 12.2513 26.6183 12.2339 26.6298 12.2214C26.6356 12.2151 26.6401 12.21 26.6433 12.2063L26.6472 12.2018L26.6485 12.2004L26.6489 12.1999L26.6491 12.1996C26.6492 12.1995 26.6492 12.1995 26.5291 12.0984L26.6491 12.1996L26.7527 12.0765L26.6273 11.976L26.5291 12.0984C26.6273 11.976 26.6274 11.976 26.6273 11.976L26.627 11.9757L26.6264 11.9753L26.625 11.9741L26.6202 11.9704C26.6163 11.9674 26.6109 11.9633 26.604 11.9583C26.5903 11.9482 26.5708 11.9343 26.5462 11.9181C26.4971 11.8857 26.4268 11.8433 26.3411 11.8023C26.1941 11.7321 25.992 11.6617 25.7679 11.6614C25.7866 11.5861 25.7963 11.5085 25.7966 11.4301L25.7972 11.2591L25.6267 11.2732C25.6044 11.275 25.5823 11.2776 25.5603 11.2809C25.6241 10.168 25.2392 9.05577 24.4208 8.08193C24.5988 8.05172 24.7558 7.98407 24.8755 7.91852C24.9618 7.87131 25.032 7.82345 25.0809 7.78715C25.1055 7.76896 25.1248 7.75353 25.1384 7.74235C25.1452 7.73675 25.1506 7.7322 25.1544 7.72889L25.159 7.72487L25.1605 7.72359L25.161 7.72314L25.1613 7.72289C25.1613 7.72286 25.1613 7.72283 25.0565 7.60598L25.1613 7.72289L25.2813 7.61522L25.1706 7.49813L25.0565 7.60598C25.1706 7.49813 25.1706 7.49817 25.1706 7.49813L25.1703 7.4978L25.1698 7.49734L25.1686 7.49603L25.1646 7.49191C25.1612 7.48852 25.1566 7.48387 25.1507 7.47811C25.1389 7.46662 25.1221 7.4507 25.1006 7.43171C25.0579 7.39383 24.9963 7.34321 24.9194 7.29108C24.8426 7.23892 24.7479 7.18345 24.6397 7.13808C24.6469 7.13195 24.654 7.12576 24.6611 7.11952L24.6618 7.1189C24.9934 6.82368 25.1716 6.43046 25.2673 6.12084C25.3155 5.96477 25.3438 5.8265 25.3601 5.72687C25.3683 5.67697 25.3735 5.63653 25.3767 5.60811C25.3782 5.5939 25.3793 5.58267 25.3801 5.57475L25.3808 5.56538L25.3811 5.56263L25.3811 5.56175L25.3811 5.56144C25.3812 5.56138 25.3812 5.56121 25.2246 5.5503L25.3811 5.56144L25.3923 5.40095L25.2318 5.3935L25.2246 5.5503C25.2318 5.3935 25.2319 5.39351 25.2318 5.3935L25.2304 5.39344L25.2277 5.39333L25.2183 5.39304C25.2103 5.39283 25.199 5.39262 25.1847 5.39256C25.1562 5.39244 25.1154 5.39292 25.0649 5.39527C24.9641 5.39994 24.8235 5.41207 24.663 5.44192C24.3449 5.50106 23.9344 5.63233 23.6031 5.92675C23.5514 5.74756 23.4691 5.5778 23.359 5.4253L23.2592 5.28711L23.1562 5.37521C22.477 3.50773 20.7263 2.23367 18.4439 1.95522C18.4511 1.93861 18.458 1.92185 18.4646 1.90496L18.5273 1.74377L18.3608 1.69694C18.3668 1.69865 18.1422 1.62295 17.8672 1.64125ZM18.0885 1.96056C17.9648 1.94535 17.7981 1.94442 17.6461 2.00872L17.1817 2.20533L17.4526 1.77987C17.4986 1.7075 17.5368 1.6304 17.5665 1.54989C17.667 1.27126 17.6501 0.972178 17.6032 0.73442C17.586 0.647428 17.5652 0.570473 17.5458 0.508176C17.4909 0.5436 17.4254 0.589371 17.3563 0.645208C17.1678 0.797653 16.9633 1.01626 16.8627 1.2942C16.8384 1.36264 16.82 1.43304 16.8077 1.50461L16.7396 1.90024L16.5213 1.56336C16.45 1.45326 16.3591 1.35787 16.2536 1.28162C16.2485 1.30811 16.2443 1.3348 16.2411 1.36165L16.2118 1.60652L16.0024 1.47636C14.9587 0.827876 13.7418 0.513862 12.5147 0.576401C11.2876 0.63894 10.1089 1.07504 9.13655 1.82627L8.88603 2.01982L8.88361 1.70326C8.88285 1.60367 8.86886 1.50492 8.84222 1.40954C8.83639 1.41446 8.83047 1.41955 8.82449 1.42481C8.72862 1.50899 8.62776 1.625 8.57705 1.76489L8.40554 2.23797L8.27766 1.75129C8.25586 1.6683 8.22546 1.58782 8.18696 1.51114C8.05152 1.24974 7.82093 1.05864 7.61452 0.93071C7.53891 0.883844 7.46816 0.84646 7.40917 0.818022C7.39772 0.882241 7.3867 0.961148 7.38064 1.04951C7.36404 1.29128 7.38548 1.58983 7.52224 1.85288L7.5227 1.85377C7.55547 1.91782 7.59407 1.97872 7.63799 2.0357L7.88463 2.35564L7.48667 2.28616C7.35741 2.26359 7.22564 2.26519 7.09793 2.2903L7.22216 2.46789L6.98017 2.51098C4.85898 2.88873 3.32875 4.15559 2.80224 5.89289L2.73438 6.11683L2.55292 5.96909C2.53752 5.95655 2.52185 5.94435 2.50592 5.93251C2.4993 5.95553 2.49276 5.98037 2.48663 6.00672C2.45133 6.15855 2.43276 6.34858 2.4825 6.52872L2.61587 7.01171L2.23077 6.69114C2.15 6.6239 2.06218 6.56561 1.96886 6.51728C1.64548 6.35068 1.27956 6.32537 0.98544 6.34558C0.857709 6.35436 0.746181 6.37154 0.661436 6.38802C0.69728 6.4665 0.748113 6.56715 0.815198 6.67609C0.969744 6.92706 1.20315 7.21005 1.52696 7.37637C1.60611 7.41699 1.68878 7.45037 1.77395 7.47608L2.16113 7.59298L1.79646 7.76788C1.63616 7.84476 1.49385 7.95326 1.37771 8.08617C1.50554 8.13356 1.64011 8.16158 1.77695 8.16898L2.09963 8.18643L1.88643 8.42928C0.969229 9.47403 0.593044 10.6594 0.736193 11.8073C0.879469 12.9562 1.54563 14.0878 2.75123 15.0169L2.81239 15.064V15.1412C2.81239 15.3124 2.81253 15.4645 2.8285 15.6162L2.84851 15.8063L2.65814 15.7889C2.53504 15.7777 2.41129 15.7832 2.29018 15.8049C2.3024 15.8256 2.316 15.8474 2.331 15.87C2.41712 15.9995 2.54253 16.1429 2.70786 16.2294L3.14759 16.4597L2.65543 16.5241C2.55058 16.5379 2.44742 16.5624 2.34759 16.5972C2.00351 16.7189 1.73457 16.9678 1.54834 17.1955C1.4675 17.2943 1.4039 17.3871 1.35808 17.4599C1.43979 17.4876 1.54797 17.5196 1.67335 17.5454C1.96195 17.6048 2.3279 17.6288 2.67087 17.5073C2.75449 17.4777 2.83541 17.4405 2.91221 17.3962L3.28727 17.1797L3.13803 17.5862C3.11375 17.6523 3.09694 17.721 3.08789 17.7908C3.08786 17.7934 3.08791 17.7959 3.08803 17.7985L3.08861 17.8099L3.0875 17.8214C3.07842 17.9153 3.07875 18.0097 3.08839 18.1033C3.1975 18.0492 3.29926 17.9809 3.39094 17.8999L3.43546 17.8606H3.59128L3.63812 17.928C3.64908 17.9437 3.66109 17.9593 3.67591 17.9785L3.76459 18.0933L3.65718 18.1907C3.61319 18.2306 3.57225 18.2738 3.53471 18.3198C3.3503 18.5512 3.27062 18.8398 3.23903 19.08C3.22747 19.1679 3.22259 19.2475 3.22103 19.3127C3.28373 19.2967 3.35947 19.2744 3.44186 19.2438C3.66733 19.16 3.93021 19.0188 4.11761 18.7883L4.23323 18.6264L4.36373 18.7422C4.47054 18.8369 4.57532 18.9144 4.69905 19.0057L4.70248 19.0083L4.70577 19.011C4.72612 19.0278 4.74171 19.0409 4.75424 19.0514C4.78043 19.0735 4.79331 19.0843 4.80854 19.0941L4.81141 19.0959L4.8142 19.0979C5.86612 19.8387 7.27565 20.2342 8.8985 20.1516L8.96267 20.1484L9.01071 20.191C11.5012 22.4031 15.0659 22.3303 17.4347 20.022L17.4811 19.9768L17.5459 19.9774C19.0327 19.9933 20.3212 19.6141 21.304 18.9526L21.4547 18.8511L21.5332 19.015C21.5549 19.0604 21.5817 19.1029 21.6128 19.1418C21.6236 19.0789 21.6249 19.0143 21.6163 18.9501L21.5554 18.4982L21.8816 18.8169C21.9201 18.8546 21.9626 18.8879 22.0084 18.9164C22.166 19.0135 22.354 19.0422 22.5119 19.0435C22.5409 19.0437 22.5683 19.043 22.5938 19.0418C22.5835 19.0185 22.5718 18.9938 22.5585 18.9681C22.4862 18.8277 22.3755 18.6725 22.217 18.575C22.1942 18.5612 22.1707 18.5485 22.1466 18.5371L21.9507 18.4439L22.1005 18.2869C22.1353 18.2505 22.1692 18.2141 22.2023 18.1777L22.2138 18.165L22.2278 18.1551C22.2378 18.1481 22.2476 18.1407 22.2572 18.1332L22.2507 18.1292L22.3626 17.9904C23.0653 17.119 23.435 15.9979 23.3526 14.7287L23.3475 14.6495L23.4082 14.5984C24.1547 13.9705 24.6644 13.2678 24.9585 12.538L25.1014 12.1832L25.1603 12.324L25.5779 12.3746C25.6305 12.381 25.6836 12.382 25.7364 12.3775C25.9208 12.3591 26.0879 12.2682 26.2144 12.1738C26.2376 12.1565 26.259 12.1394 26.2785 12.123C26.2562 12.1107 26.2319 12.098 26.2058 12.0856C26.063 12.0174 25.8809 11.9606 25.6957 11.9788L25.695 11.9789C25.6507 11.983 25.6068 11.9916 25.5641 12.0044L25.1705 12.1222L25.3853 11.7719C25.412 11.7284 25.4334 11.6821 25.4493 11.634C25.4477 11.6347 25.4461 11.6353 25.4445 11.636L25.1994 11.7363L25.229 11.4732C25.3624 10.2865 24.9429 9.07415 23.9572 8.03393L23.6255 7.68394L24.0997 7.77161C24.1329 7.77775 24.1664 7.78175 24.2001 7.7836C24.3941 7.79182 24.5804 7.72214 24.7249 7.64312C24.7541 7.62713 24.7811 7.61103 24.8055 7.59557C24.7864 7.58109 24.7655 7.56604 24.7431 7.55083C24.6141 7.46323 24.4434 7.37749 24.2576 7.35902L23.7606 7.3096L24.1965 7.06582C24.2882 7.01452 24.3743 6.95366 24.4533 6.88426C24.725 6.64224 24.8803 6.30986 24.9673 6.02818C25.0051 5.9059 25.0292 5.79571 25.0444 5.71074C24.9583 5.71596 24.8461 5.72718 24.7204 5.75056C24.4306 5.80443 24.0825 5.92027 23.8107 6.16222C23.7444 6.22175 23.6834 6.28687 23.6284 6.35689L23.3805 6.67213L23.3485 6.27237C23.3344 6.09528 23.2845 5.92358 23.2025 5.76741L23.0196 5.97861L22.9365 5.70748C22.3484 3.78865 20.5738 2.45979 18.1802 2.24287L17.9176 2.21907L18.0637 1.99956C18.0722 1.98674 18.0805 1.97373 18.0885 1.96056ZM25.1811 12.3739L25.2489 12.5361C25.2772 12.6038 25.3209 12.6639 25.3764 12.7116C25.4332 12.7496 25.4954 12.7776 25.5606 12.795C25.5312 12.7387 25.4933 12.6868 25.4479 12.6413L25.1811 12.3739ZM25.6653 11.6663C25.6655 11.6663 25.6656 11.6663 25.6657 11.6663L25.6804 11.8226L25.665 11.6664C25.6651 11.6663 25.6652 11.6663 25.6653 11.6663Z" fill="#047857"/>
<path opacity="0.1" d="M25.7508 12.5339C26.1998 12.4898 26.5291 12.0985 26.5291 12.0985C26.5291 12.0985 26.1302 11.7785 25.6803 11.8227C25.6257 11.8278 25.5717 11.8383 25.5191 11.8541C25.5974 11.7263 25.6391 11.5795 25.6396 11.4297C25.5521 11.4369 25.4662 11.4576 25.385 11.4908C25.5242 10.2525 25.0845 8.99549 24.0711 7.92606C24.1112 7.93348 24.1518 7.9383 24.1925 7.94049C24.661 7.96086 25.0565 7.60608 25.0565 7.60608C25.0565 7.60608 24.717 7.24706 24.2731 7.20293C24.3747 7.1461 24.47 7.07867 24.5575 7.00177C25.1609 6.46451 25.2246 5.55041 25.2246 5.55041C25.2246 5.55041 24.3096 5.50797 23.7062 6.04523C23.633 6.11088 23.5657 6.18272 23.505 6.25996C23.4836 5.99206 23.3891 5.73518 23.2317 5.5173C23.1798 5.56172 23.1313 5.60995 23.0866 5.66159C22.4763 3.67042 20.6388 2.30817 18.1944 2.08665C18.2442 2.01185 18.2857 1.93189 18.3183 1.84815C18.3183 1.84815 17.9279 1.71914 17.585 1.86428C17.6372 1.78229 17.6804 1.69493 17.714 1.60371C17.9423 0.97139 17.6291 0.278809 17.6291 0.278809C17.6291 0.278809 16.9433 0.609821 16.715 1.24129C16.6876 1.31832 16.6669 1.39754 16.653 1.47809C16.5315 1.29055 16.3606 1.14018 16.1591 1.04353C16.1223 1.14 16.0975 1.24062 16.0852 1.34314C15.0144 0.677766 13.7658 0.355574 12.5067 0.419742C11.2476 0.483909 10.0382 0.931371 9.04057 1.70216C9.03915 1.51598 8.99715 1.33235 8.9175 1.16406C8.9175 1.16406 8.55594 1.36266 8.42947 1.7115C8.40481 1.61763 8.37038 1.5266 8.32677 1.4399C8.01952 0.845775 7.29808 0.600485 7.29808 0.600485C7.29808 0.600485 7.07232 1.32787 7.38296 1.92539C7.42012 1.998 7.46387 2.06704 7.51367 2.13163C7.29366 2.09322 7.06734 2.11582 6.85928 2.19699C6.88604 2.25261 6.91726 2.30597 6.95264 2.35655C4.78408 2.74273 3.19861 4.04387 2.65202 5.84747C2.58123 5.78983 2.50538 5.7387 2.4254 5.69469C2.4254 5.69469 2.21236 6.14029 2.33119 6.5706C2.24167 6.49609 2.14435 6.43149 2.04092 6.37794C1.32287 6.00788 0.44696 6.27779 0.44696 6.27779C0.44696 6.27779 0.736385 7.14691 1.45528 7.51611C1.54286 7.56107 1.63433 7.598 1.72858 7.62645C1.48638 7.74261 1.28083 7.92321 1.13445 8.14844C1.33025 8.25327 1.54669 8.31383 1.76847 8.32582C-0.11746 10.474 0.190638 13.2418 2.65541 15.1413C2.65541 15.311 2.65541 15.4715 2.67239 15.6327C2.46647 15.6139 2.25889 15.637 2.06213 15.7006C2.06213 15.7006 2.23952 16.1615 2.63504 16.3686C2.51941 16.3837 2.40564 16.4108 2.29554 16.4492C1.53167 16.7191 1.13105 17.5407 1.13105 17.5407C1.13105 17.5407 1.96198 17.9252 2.72331 17.6553C2.81602 17.6226 2.90552 17.5814 2.99067 17.5322C2.96874 17.5909 2.95226 17.6514 2.94144 17.713C2.93028 17.7747 2.92376 17.8371 2.92192 17.8997C2.91859 17.9563 2.91859 18.013 2.92192 18.0695C2.92192 18.1153 2.93041 18.1612 2.93805 18.2061C2.94229 18.2358 2.94823 18.2656 2.95502 18.291C2.95502 18.3004 2.95502 18.3088 2.96096 18.3182C3.15549 18.2524 3.33496 18.1485 3.48889 18.0126H3.50331C3.51689 18.0321 3.53132 18.0508 3.54575 18.0695C3.49574 18.1149 3.44921 18.164 3.40656 18.2163C2.98727 18.7417 3.06281 19.4988 3.06281 19.4988C3.06281 19.4988 3.8182 19.4097 4.24258 18.8834L4.25955 18.8597C4.37244 18.9598 4.4675 19.0294 4.58972 19.1211C4.65847 19.1712 4.69157 19.206 4.72382 19.2263C5.80853 19.9902 7.25395 20.3925 8.90647 20.3085C11.4578 22.5747 15.1159 22.5008 17.5442 20.1345C19.0584 20.1506 20.379 19.7645 21.3916 19.0829C21.4562 19.2178 21.5566 19.3323 21.6819 19.4139C21.7628 19.2661 21.7944 19.0963 21.7718 18.9293C21.8185 18.9749 21.87 19.0153 21.9255 19.0498C22.3091 19.2866 22.8082 19.1737 22.8082 19.1737C22.8082 19.1737 22.6843 18.678 22.2989 18.4412C22.2714 18.4245 22.2431 18.4092 22.214 18.3954C22.2497 18.3581 22.2845 18.3207 22.3184 18.2834C22.3899 18.2328 22.4534 18.1719 22.5069 18.1026L22.4848 18.089C23.213 17.1859 23.5941 16.0257 23.5092 14.7186C24.2731 14.0761 24.7993 13.353 25.104 12.5967C25.143 12.6899 25.2038 12.7723 25.2814 12.8369C25.4275 12.9374 25.6038 12.9844 25.7805 12.9702C25.7555 12.8038 25.6779 12.6497 25.559 12.5305C25.6226 12.5383 25.6869 12.5394 25.7508 12.5339Z" fill="#047857"/>
<path d="M19.3759 30.0792C18.0382 29.8653 16.1922 28.9283 16.1922 27.1934C16.1922 25.4586 15.9248 15.4586 16.1922 14.7897C16.4595 14.1209 17.0486 14.3654 17.6351 14.5759C17.9112 14.6831 18.1481 14.872 18.3141 15.1174C18.3328 15.1454 18.3575 15.1689 18.3864 15.1862C18.4153 15.2035 18.4477 15.2142 18.4813 15.2174C18.5148 15.2207 18.5487 15.2164 18.5804 15.205C18.6121 15.1936 18.6409 15.1752 18.6646 15.1513C18.6873 15.1262 18.7039 15.0963 18.7132 15.0637C18.7224 15.0312 18.724 14.997 18.7178 14.9637C18.7117 14.9304 18.6979 14.899 18.6777 14.872C18.6574 14.8449 18.6311 14.8228 18.6009 14.8076C18.3599 14.6887 18.0323 14.4867 17.9831 14.255C17.8982 13.8807 18.0094 13.907 18.1698 13.8001C18.3422 13.6629 18.5063 13.5155 18.6612 13.3588C18.6858 13.338 18.7057 13.3122 18.7195 13.2832C18.7334 13.2541 18.741 13.2225 18.7417 13.1903C18.7424 13.1582 18.7364 13.1262 18.7238 13.0966C18.7113 13.0669 18.6926 13.0403 18.669 13.0184C18.6455 12.9965 18.6175 12.9798 18.587 12.9696C18.5565 12.9593 18.5242 12.9556 18.4922 12.9587C18.4601 12.9618 18.4291 12.9717 18.4012 12.9877C18.3733 13.0037 18.3491 13.0255 18.3302 13.0515C18.1375 13.3112 17.703 13.784 17.1538 13.6668C16.4044 13.5064 15.896 12.8911 16.1353 11.6298C16.3051 10.7582 16.9968 9.80927 17.4084 9.30936C17.4393 9.27703 17.4619 9.23769 17.4742 9.19472C17.4864 9.15175 17.4881 9.10644 17.479 9.06269C17.4699 9.01893 17.4503 8.97804 17.4219 8.94354C17.3935 8.90903 17.3571 8.88195 17.3159 8.86461C17.2501 8.83475 17.1753 8.8315 17.1071 8.85554C17.0389 8.87959 16.9827 8.92906 16.9501 8.99362C16.7082 9.47486 16.0555 10.6614 15.5217 10.6402C15.0523 10.6215 14.5032 10.3134 14.2188 10.131C14.2 10.1182 14.1788 10.1096 14.1565 10.1056C14.1341 10.1016 14.1112 10.1022 14.0891 10.1076C14.0671 10.113 14.0464 10.1229 14.0284 10.1367C14.0104 10.1505 13.9955 10.1679 13.9846 10.1878C13.9657 10.2247 13.962 10.2675 13.9744 10.307C13.9868 10.3466 14.0142 10.3797 14.0508 10.3992C14.6101 10.6928 15.2059 11.3005 15.2806 11.5764C15.3613 11.8709 15.2008 12.3521 14.6661 13.3418C14.1314 14.3314 12.6291 14.8398 11.8839 13.7432C11.2898 12.8707 11.1319 10.9491 11.2177 10.0826C11.2222 10.0437 11.219 10.0043 11.2082 9.96672C11.1973 9.92912 11.179 9.89407 11.1545 9.86363C11.1299 9.83318 11.0994 9.80796 11.065 9.78945C11.0305 9.77093 10.9926 9.75949 10.9537 9.7558C10.9142 9.75322 10.8746 9.75884 10.8374 9.77232C10.8001 9.78579 10.7661 9.80682 10.7374 9.83408C10.7087 9.86135 10.686 9.89426 10.6706 9.93074C10.6552 9.96722 10.6476 10.0065 10.6481 10.0461C10.6583 10.6971 10.9622 12.0831 10.7067 12.8071C10.3859 13.7169 9.34276 14.171 8.70025 13.6898C8.24872 13.3503 8.34038 12.4811 8.43459 11.9923C8.44395 11.9613 8.44493 11.9283 8.43742 11.8968C8.42991 11.8653 8.41419 11.8363 8.39185 11.8129C8.36951 11.7894 8.34136 11.7723 8.31025 11.7633C8.27914 11.7542 8.2462 11.7536 8.21477 11.7614C8.17154 11.7694 8.13248 11.7922 8.1044 11.8261C8.07632 11.8599 8.06101 11.9025 8.06114 11.9464C8.06114 12.2664 8.02465 13.0727 7.6843 13.2849C7.40421 13.4598 7.136 13.2467 6.98408 13.0778C6.95424 13.0439 6.91261 13.0227 6.86767 13.0184C6.82272 13.0142 6.77785 13.0272 6.74218 13.0549C6.72281 13.0704 6.70697 13.0899 6.69572 13.1121C6.68448 13.1342 6.67808 13.1585 6.67695 13.1833C6.67583 13.2082 6.68001 13.2329 6.6892 13.256C6.6984 13.2791 6.71241 13.2999 6.7303 13.3172C6.84149 13.4233 7.02482 13.5964 7.24719 13.8043C7.32697 13.9172 7.43476 14.1141 7.36347 14.2754C7.29217 14.4367 6.92212 14.5181 6.70229 14.5496C6.68234 14.5525 6.66326 14.5597 6.64631 14.5706C6.62937 14.5816 6.61495 14.596 6.60402 14.613C6.5931 14.6299 6.58592 14.649 6.58296 14.6689C6.58 14.6889 6.58133 14.7092 6.58686 14.7286V14.7354C6.59294 14.756 6.60357 14.775 6.61797 14.791C6.63237 14.8069 6.65016 14.8194 6.67004 14.8276C6.68992 14.8357 6.71138 14.8393 6.73283 14.838C6.75427 14.8368 6.77516 14.8307 6.79396 14.8203C7.09017 14.665 7.787 14.6506 7.94147 14.6556C8.72572 14.7057 9.49299 15.2014 9.90972 15.8575C10.3265 16.5136 10.3052 17.4149 10.3519 18.1678C10.4589 19.906 10.4911 27.9098 10.0362 28.5786C9.58126 29.2474 7.91431 30.1437 7.91431 30.1437" fill="#047857"/>
<path fill-rule="evenodd" clip-rule="evenodd" d="M17.3631 8.75679C17.4212 8.78154 17.4726 8.81995 17.5128 8.86876C17.5533 8.91799 17.5813 8.97633 17.5943 9.03876C17.6072 9.10119 17.6049 9.16584 17.5873 9.22715C17.5702 9.28694 17.5392 9.34181 17.4968 9.38727C17.2936 9.63428 17.0228 9.99037 16.7821 10.3909C16.5397 10.7942 16.3321 11.2357 16.2509 11.6521C16.1346 12.2655 16.2036 12.7033 16.3758 13.0025C16.5467 13.2994 16.8293 13.477 17.1784 13.5518M17.3631 8.75679C17.2699 8.71499 17.1642 8.7106 17.0679 8.74457C16.9711 8.77872 16.8912 8.84899 16.845 8.94068C16.725 9.17932 16.5048 9.58949 16.2505 9.93569C16.1231 10.1091 15.9905 10.2618 15.8611 10.3689C15.7289 10.4781 15.6164 10.5262 15.5263 10.5226C15.313 10.5141 15.0741 10.439 14.8484 10.3394C14.6248 10.2407 14.4224 10.1217 14.2834 10.0326C14.2514 10.0112 14.2152 9.9966 14.1773 9.98977C14.1388 9.98284 14.0993 9.98403 14.0614 9.99325C14.0234 10.0025 13.9877 10.0195 13.9567 10.0433C13.9257 10.0671 13.9 10.0971 13.8813 10.1314L13.8798 10.1341C13.8468 10.1985 13.8404 10.2733 13.8621 10.3423C13.8837 10.4113 13.9316 10.4691 13.9954 10.5031L13.996 10.5034C14.2632 10.6437 14.5429 10.8614 14.7651 11.0787C14.876 11.187 14.9707 11.2935 15.0413 11.3879C15.1141 11.4851 15.1543 11.5603 15.167 11.6072L15.1671 11.6075C15.1979 11.7203 15.1872 11.8866 15.0928 12.1601C14.9992 12.4315 14.8292 12.7924 14.5625 13.2859C14.3118 13.75 13.8316 14.1031 13.3295 14.2097C12.8335 14.3151 12.3231 14.1801 11.9813 13.6771C11.6999 13.2639 11.5148 12.5875 11.4123 11.8935C11.3104 11.2035 11.2931 10.5169 11.3347 10.0952C11.3409 10.0412 11.3363 9.9864 11.3213 9.93412C11.306 9.88145 11.2805 9.83234 11.246 9.7897C11.2116 9.74705 11.1689 9.71172 11.1206 9.68578C11.0723 9.65984 11.0194 9.64382 10.9648 9.63865L10.9614 9.63838C10.9056 9.63474 10.8498 9.64267 10.7973 9.66167C10.7448 9.68067 10.6968 9.71033 10.6563 9.74878C10.6158 9.78723 10.5837 9.83365 10.5621 9.8851C10.5404 9.93656 10.5296 9.99194 10.5304 10.0478C10.5331 10.217 10.5547 10.4313 10.5805 10.6634C10.586 10.713 10.5918 10.7636 10.5976 10.8149C10.6192 11.0056 10.642 11.2067 10.6598 11.4095C10.7052 11.9299 10.7138 12.4331 10.5957 12.7679C10.4464 13.1913 10.129 13.5079 9.77683 13.6623C9.42428 13.8169 9.05006 13.8047 8.77085 13.5956C8.58734 13.4575 8.50129 13.2001 8.48021 12.8891C8.45961 12.5852 8.50323 12.2596 8.54919 12.0198C8.56277 11.9708 8.56373 11.9191 8.55193 11.8696C8.5396 11.8178 8.51377 11.7703 8.47709 11.7317C8.44041 11.6932 8.39418 11.6651 8.3431 11.6503C8.29319 11.6357 8.24041 11.6344 8.18987 11.6464C8.12094 11.6599 8.05874 11.6968 8.01381 11.7509C7.96811 11.8059 7.9432 11.8753 7.94341 11.9468L8.06113 11.9465H7.94341C7.94341 12.1034 7.93435 12.3764 7.88474 12.6339C7.85993 12.7626 7.82577 12.8831 7.77998 12.9817C7.73369 13.0814 7.68009 13.1488 7.622 13.1851C7.52126 13.2479 7.4261 13.2427 7.33297 13.2023C7.23459 13.1596 7.14313 13.0786 7.07195 12.9995C7.02235 12.9435 6.9533 12.9084 6.87876 12.9013C6.80399 12.8942 6.72933 12.9159 6.66999 12.9619L6.66849 12.9631C6.63607 12.9892 6.60957 13.0218 6.59075 13.0588C6.57193 13.0959 6.56122 13.1365 6.55934 13.1781C6.55746 13.2196 6.56444 13.261 6.57984 13.2996C6.59523 13.3383 6.61867 13.3731 6.6486 13.402L6.64902 13.4024C6.75906 13.5074 6.93924 13.6776 7.15773 13.8819C7.19236 13.9322 7.22883 13.9951 7.25036 14.0592C7.27357 14.1284 7.27483 14.1848 7.25579 14.2279C7.25123 14.2382 7.23638 14.2579 7.19754 14.2827C7.16009 14.3067 7.10975 14.3294 7.05019 14.3499C6.93124 14.391 6.79197 14.4179 6.68563 14.4331L6.68494 14.4332C6.64843 14.4386 6.6135 14.4518 6.58247 14.4718C6.55146 14.4918 6.52506 14.5182 6.50506 14.5492C6.48506 14.5803 6.47191 14.6152 6.46649 14.6517C6.46193 14.6825 6.46294 14.7138 6.46945 14.7442C6.47006 14.7525 6.47157 14.7608 6.47394 14.7688C6.48501 14.8063 6.50436 14.8409 6.53058 14.8699C6.55679 14.8989 6.58919 14.9217 6.62539 14.9365C6.66158 14.9514 6.70064 14.9579 6.7397 14.9556C6.77821 14.9534 6.81573 14.9426 6.84957 14.9241C6.97528 14.8586 7.20171 14.8174 7.43223 14.795C7.6561 14.7733 7.86229 14.771 7.9358 14.7733C8.67824 14.8214 9.41208 15.2937 9.81034 15.9207C10.0055 16.2279 10.1012 16.5978 10.1529 16.9917C10.1898 17.2733 10.2034 17.5584 10.2167 17.8376C10.2221 17.9513 10.2275 18.064 10.2344 18.1751C10.2876 19.0396 10.3225 21.4714 10.287 23.7725C10.2693 24.9225 10.2341 26.0377 10.175 26.9062C10.1455 27.3407 10.1101 27.7115 10.0683 27.9933C10.0474 28.1343 10.0252 28.2509 10.0019 28.3412C9.97771 28.4348 9.95516 28.4884 9.93884 28.5124C9.83498 28.6651 9.65632 28.8378 9.43869 29.0138C9.22274 29.1884 8.97538 29.3607 8.7405 29.5133C8.50586 29.6657 8.2851 29.7975 8.12293 29.8913C8.04189 29.9382 7.97559 29.9755 7.92964 30.001C7.90667 30.0138 7.88879 30.0236 7.87671 30.0302L7.86301 30.0376L7.85877 30.0399C7.80151 30.0707 7.77982 30.1422 7.81061 30.1995C7.8414 30.2567 7.91278 30.2782 7.97005 30.2474L7.9143 30.1437C7.97005 30.2474 7.97002 30.2474 7.97005 30.2474L7.97043 30.2472L7.97517 30.2446L7.98955 30.2368C8.00211 30.23 8.02048 30.2199 8.04398 30.2068C8.09097 30.1807 8.15845 30.1428 8.2408 30.0951C8.4054 30 8.62981 29.8659 8.86877 29.7107C9.1075 29.5556 9.36217 29.3784 9.58673 29.1969C9.8096 29.0167 10.0099 28.8266 10.1335 28.6448C10.1741 28.5852 10.2046 28.498 10.2299 28.4C10.256 28.2987 10.2797 28.1731 10.3012 28.0278C10.3443 27.7371 10.3802 27.3593 10.4099 26.9222C10.4694 26.0476 10.5047 24.9278 10.5225 23.7761C10.5579 21.4735 10.5232 19.0343 10.4694 18.1606C10.463 18.0564 10.4578 17.9478 10.4524 17.8365C10.4389 17.5536 10.4246 17.2529 10.3863 16.9611C10.3327 16.552 10.2307 16.1432 10.0091 15.7944C9.5742 15.1098 8.77438 14.5909 7.94896 14.5382L7.94534 14.538C7.86278 14.5353 7.64485 14.5378 7.40948 14.5607C7.1795 14.583 6.90998 14.6266 6.73927 14.7161L6.73689 14.7174C6.73352 14.7192 6.72977 14.7203 6.72593 14.7206C6.72209 14.7208 6.71824 14.7201 6.71467 14.7187C6.71111 14.7172 6.70792 14.715 6.70534 14.7121C6.70445 14.7111 6.70364 14.7101 6.70291 14.709C6.70219 14.7047 6.70124 14.7005 6.70006 14.6964C6.69912 14.6931 6.69889 14.6897 6.69939 14.6863C6.6999 14.6829 6.70111 14.6797 6.70296 14.6768C6.70481 14.6739 6.70726 14.6715 6.71013 14.6696C6.713 14.6678 6.71623 14.6665 6.71961 14.666L6.70228 14.5496L6.71893 14.6661C6.83242 14.6499 6.98809 14.6204 7.12695 14.5725C7.19629 14.5486 7.26557 14.5187 7.32443 14.4811C7.38189 14.4443 7.44004 14.3934 7.47113 14.3231C7.52338 14.2049 7.50639 14.0821 7.47358 13.9843C7.44049 13.8857 7.38656 13.7976 7.34332 13.7365C7.3387 13.7299 7.33343 13.7239 7.32759 13.7184C7.10557 13.5108 6.92266 13.338 6.81182 13.2323C6.80605 13.2267 6.80153 13.2199 6.79855 13.2125C6.79554 13.2049 6.79418 13.1968 6.79455 13.1887C6.79491 13.1806 6.797 13.1727 6.80068 13.1654C6.80421 13.1585 6.80912 13.1523 6.81512 13.1474C6.82699 13.1385 6.84176 13.1343 6.85655 13.1357C6.87167 13.1371 6.88567 13.1443 6.89571 13.1557L6.89654 13.1566C6.97724 13.2463 7.0957 13.356 7.23926 13.4183C7.38823 13.4829 7.56728 13.4968 7.74663 13.3848C7.85868 13.3149 7.93725 13.2021 7.99353 13.0809C8.05031 12.9586 8.08908 12.8178 8.11594 12.6784C8.16966 12.3996 8.17886 12.1095 8.17886 11.9465L8.17886 11.9461C8.17881 11.9298 8.18451 11.9139 8.19496 11.9013C8.20542 11.8887 8.21997 11.8802 8.23606 11.8772C8.23846 11.8768 8.24085 11.8763 8.24321 11.8757C8.25446 11.8729 8.26625 11.8731 8.27738 11.8763C8.28851 11.8796 8.29859 11.8857 8.30658 11.8941C8.31458 11.9025 8.3202 11.9129 8.32289 11.9241C8.32558 11.9354 8.32523 11.9472 8.32188 11.9583C8.32071 11.9622 8.31975 11.9661 8.31898 11.97C8.27109 12.2186 8.22255 12.5695 8.2453 12.905C8.26771 13.2357 8.36156 13.5825 8.62949 13.7839C8.99279 14.056 9.46153 14.0576 9.87136 13.878C10.2816 13.6981 10.6462 13.3328 10.8177 12.8463C10.955 12.4572 10.9394 11.9054 10.8943 11.389C10.8763 11.1829 10.853 10.9778 10.8314 10.7868C10.8256 10.7359 10.8199 10.686 10.8145 10.6373C10.7885 10.4039 10.7683 10.2007 10.7658 10.0444C10.7655 10.0211 10.77 9.99797 10.7791 9.97648C10.7881 9.95496 10.8016 9.93556 10.8185 9.91948C10.8354 9.90341 10.8555 9.89101 10.8774 9.88306C10.8988 9.87531 10.9216 9.87197 10.9443 9.87322C10.967 9.8756 10.9891 9.88239 11.0092 9.89321C11.0299 9.9043 11.0481 9.91941 11.0629 9.93765C11.0776 9.95589 11.0885 9.97689 11.095 9.99942C11.1015 10.0219 11.1035 10.0455 11.1007 10.0688L11.1005 10.071C11.0565 10.516 11.0753 11.2229 11.1794 11.9279C11.2829 12.6294 11.4738 13.3502 11.7865 13.8095C12.19 14.4031 12.8033 14.5622 13.3784 14.4401C13.9474 14.3192 14.4858 13.9233 14.7697 13.3978C15.0378 12.9016 15.2153 12.527 15.3154 12.2368C15.4148 11.9488 15.4439 11.7273 15.3942 11.5457M17.2673 8.97187C17.2291 8.95456 17.1857 8.95268 17.1462 8.96662C17.1067 8.98054 17.0742 9.00918 17.0553 9.04654M17.331 9.01841C17.3147 8.99863 17.2939 8.98311 17.2703 8.97317L17.2673 8.97187M17.331 9.01841C17.3473 9.03819 17.3585 9.06163 17.3637 9.08671ZM17.3637 9.08671C17.369 9.1118 17.368 9.13777 17.361 9.1624ZM17.361 9.1624C17.3539 9.18703 17.341 9.20958 17.3233 9.22811ZM17.3233 9.22811C17.3213 9.23019 17.3194 9.23235 17.3176 9.23457ZM17.3176 9.23457C17.1094 9.48736 16.8298 9.85441 16.5803 10.2696ZM16.5803 10.2696C16.3315 10.6835 16.1084 11.1522 16.0198 11.6074ZM14.0887 10.2429C14.0844 10.252 14.0837 10.2623 14.0867 10.2719C14.0898 10.2818 14.0967 10.2902 14.1058 10.2951C14.3979 10.4486 14.6957 10.6815 14.9297 10.9103C15.0471 11.0251 15.1503 11.1406 15.2298 11.2469C15.3072 11.3503 15.3695 11.4544 15.3942 11.5453M16.0198 11.6074L16.0196 11.6079ZM16.0196 11.6079C15.8967 12.2556 15.9622 12.7561 16.1717 13.1199ZM16.1717 13.1199C16.3825 13.4861 16.7288 13.6963 17.1292 13.782ZM18.4807 12.8416C18.5293 12.8368 18.5784 12.8424 18.6246 12.8581C18.6709 12.8737 18.7133 12.8989 18.7491 12.9321C18.7849 12.9654 18.8133 13.0058 18.8323 13.0508C18.8513 13.0958 18.8605 13.1443 18.8594 13.1931C18.8583 13.2419 18.8468 13.2899 18.8257 13.334C18.8055 13.3763 18.7769 13.414 18.7416 13.4449C18.5844 13.6038 18.4179 13.7532 18.243 13.8923C18.2405 13.8943 18.2378 13.8963 18.2351 13.8981C18.2031 13.9194 18.1686 13.9385 18.1435 13.9524C18.1343 13.9575 18.1263 13.9619 18.1202 13.9655C18.0918 13.982 18.0844 13.9898 18.0811 13.9945C18.0763 14.0015 18.0549 14.0397 18.0979 14.2291L18.0982 14.2306C18.114 14.3051 18.1807 14.3917 18.2935 14.4817C18.4023 14.5685 18.5361 14.6444 18.653 14.702L18.6541 14.7026C18.7004 14.726 18.7407 14.7599 18.7719 14.8014C18.803 14.843 18.8241 14.8912 18.8336 14.9423C18.843 14.9934 18.8406 15.046 18.8264 15.0959C18.8122 15.1459 18.7867 15.1919 18.7518 15.2304C18.7506 15.2317 18.7494 15.2331 18.7481 15.2343C18.7121 15.2706 18.6684 15.2984 18.6203 15.3158C18.5722 15.3331 18.5208 15.3396 18.4699 15.3347C18.419 15.3297 18.3698 15.3135 18.326 15.2873C18.2822 15.2611 18.2447 15.2255 18.2163 15.1831C18.0641 14.9581 17.8469 14.7848 17.5938 14.6862C17.5726 14.6786 17.5516 14.671 17.5307 14.6635C17.2541 14.5638 17.0051 14.474 16.7922 14.4708C16.6823 14.4692 16.5904 14.4913 16.5131 14.5426C16.4358 14.5941 16.3618 14.6825 16.3015 14.8335C16.2914 14.8588 16.2779 14.9222 16.2651 15.0337C16.2527 15.1407 16.242 15.2806 16.233 15.4499C16.2148 15.7883 16.2034 16.2387 16.1971 16.7675C16.1846 17.8247 16.1929 19.1904 16.2096 20.5905C16.2264 21.9987 16.2517 23.4425 16.2727 24.6399C16.2934 25.821 16.3099 26.7624 16.3099 27.1935C16.3099 28.0136 16.7447 28.6501 17.3536 29.113C17.9642 29.577 18.741 29.8585 19.3944 29.963C19.4586 29.9732 19.5024 30.0336 19.4921 30.0978C19.4818 30.162 19.4215 30.2057 19.3573 30.1955C18.673 30.0861 17.8581 29.7921 17.2112 29.3004C16.5627 28.8076 16.0744 28.1082 16.0744 27.1935C16.0744 26.7635 16.058 25.8259 16.0374 24.6479C16.0164 23.4511 15.9911 22.0062 15.9742 20.5933C15.9575 19.1928 15.9491 17.8248 15.9617 16.7647C15.9679 16.2348 15.9794 15.7806 15.9979 15.4373C16.0071 15.2658 16.018 15.1206 16.0312 15.0068C16.0438 14.8975 16.0596 14.8044 16.0829 14.7461C16.1562 14.5627 16.2561 14.4308 16.3827 14.3466C16.5095 14.2623 16.6516 14.2332 16.7957 14.2354C17.0504 14.2392 17.337 14.3429 17.6013 14.4386C17.626 14.4475 17.6505 14.4564 17.6748 14.4651L17.6777 14.4661C17.9762 14.582 18.2322 14.7862 18.4116 15.0515L18.4119 15.052C18.421 15.0655 18.4329 15.0769 18.4469 15.0852C18.4608 15.0936 18.4764 15.0987 18.4926 15.1003C18.5088 15.1019 18.5251 15.0998 18.5404 15.0943C18.5549 15.0891 18.568 15.0809 18.5791 15.0703C18.5888 15.0591 18.5959 15.0459 18.5999 15.0316C18.6042 15.0165 18.6049 15.0006 18.6021 14.9852C18.5992 14.9697 18.5928 14.9551 18.5834 14.9426C18.5741 14.9301 18.562 14.92 18.5482 14.9129C18.4242 14.8517 18.2739 14.7673 18.1466 14.6657C18.0233 14.5673 17.9018 14.4373 17.8681 14.2805C17.8263 14.0959 17.8182 13.9603 17.8877 13.8602C17.9217 13.8113 17.9668 13.7823 18.0018 13.762C18.016 13.7537 18.0283 13.7469 18.04 13.7404C18.0603 13.7293 18.0786 13.7192 18.1005 13.7048C18.2678 13.5715 18.4271 13.4283 18.5774 13.2761C18.5792 13.2743 18.5811 13.2725 18.583 13.2708C18.5837 13.2702 18.5844 13.2695 18.5852 13.2689C18.597 13.2589 18.6066 13.2465 18.6133 13.2325C18.62 13.2185 18.6236 13.2032 18.624 13.1877C18.6244 13.1721 18.6214 13.1567 18.6154 13.1424C18.6093 13.1281 18.6003 13.1153 18.5889 13.1047C18.5776 13.0941 18.5641 13.0861 18.5494 13.0812C18.5347 13.0762 18.5191 13.0744 18.5036 13.0759C18.4882 13.0774 18.4732 13.0822 18.4597 13.0899C18.4463 13.0976 18.4346 13.1081 18.4255 13.1207L18.4247 13.1217C18.3246 13.2567 18.1585 13.4516 17.9416 13.5981C17.7237 13.7452 17.4452 13.8494 17.1292 13.782M18.4807 12.8416C18.4321 12.8463 18.3851 12.8613 18.3427 12.8856ZM18.3427 12.8856C18.3005 12.9098 18.2639 12.9426 18.2353 12.9819ZM18.2353 12.9819C18.1428 13.1065 17.9954 13.2776 17.8098 13.403C17.6249 13.5279 17.4115 13.6015 17.1784 13.5518" fill="#047857"/>
<path d="M19.3759 30.0792C18.0382 29.8653 16.1922 28.9283 16.1922 27.1934C16.1922 25.4586 15.9248 15.4586 16.1922 14.7897C16.4595 14.1209 17.0486 14.3654 17.6351 14.5759C17.9112 14.6831 18.1481 14.872 18.3141 15.1174C18.3328 15.1454 18.3575 15.1689 18.3864 15.1862C18.4153 15.2035 18.4477 15.2142 18.4813 15.2174C18.5148 15.2207 18.5487 15.2164 18.5804 15.205C18.6121 15.1936 18.6409 15.1752 18.6646 15.1513C18.6873 15.1262 18.7039 15.0963 18.7132 15.0637C18.7224 15.0312 18.724 14.997 18.7178 14.9637C18.7117 14.9304 18.6979 14.899 18.6777 14.872C18.6574 14.8449 18.6311 14.8228 18.6009 14.8076C18.3599 14.6887 18.0323 14.4867 17.9831 14.255C17.8982 13.8807 18.0094 13.907 18.1698 13.8001C18.3422 13.6629 18.5063 13.5155 18.6612 13.3588C18.6858 13.338 18.7057 13.3122 18.7195 13.2832C18.7334 13.2541 18.741 13.2225 18.7417 13.1903C18.7424 13.1582 18.7364 13.1262 18.7238 13.0966C18.7113 13.0669 18.6926 13.0403 18.669 13.0184C18.6455 12.9965 18.6175 12.9798 18.587 12.9696C18.5565 12.9593 18.5242 12.9556 18.4922 12.9587C18.4601 12.9618 18.4291 12.9717 18.4012 12.9877C18.3733 13.0037 18.3491 13.0255 18.3302 13.0515C18.1375 13.3112 17.703 13.784 17.1538 13.6668C16.4044 13.5064 15.896 12.8911 16.1353 11.6298C16.3051 10.7582 16.9968 9.80927 17.4084 9.30936C17.4393 9.27703 17.4619 9.23769 17.4742 9.19472C17.4864 9.15175 17.4881 9.10644 17.479 9.06269C17.4699 9.01893 17.4503 8.97804 17.4219 8.94354C17.3935 8.90903 17.3571 8.88195 17.3159 8.86461C17.2501 8.83475 17.1753 8.8315 17.1071 8.85554C17.0389 8.87959 16.9827 8.92906 16.9501 8.99362C16.7082 9.47486 16.0555 10.6614 15.5217 10.6402C15.0523 10.6215 14.5032 10.3134 14.2188 10.131C14.2 10.1182 14.1788 10.1096 14.1565 10.1056C14.1341 10.1016 14.1112 10.1022 14.0891 10.1076C14.0671 10.113 14.0464 10.1229 14.0284 10.1367C14.0104 10.1505 13.9955 10.1679 13.9846 10.1878C13.9657 10.2247 13.962 10.2675 13.9744 10.307C13.9868 10.3466 14.0142 10.3797 14.0508 10.3992C14.6101 10.6928 15.2059 11.3005 15.2806 11.5764C15.3613 11.8709 15.2008 12.3521 14.6661 13.3418C14.1314 14.3314 12.6291 14.8398 11.8839 13.7432C11.2898 12.8707 11.1319 10.9491 11.2177 10.0826C11.2222 10.0437 11.219 10.0043 11.2082 9.96672C11.1973 9.92912 11.179 9.89407 11.1545 9.86363C11.1299 9.83318 11.0994 9.80796 11.065 9.78945C11.0305 9.77093 10.9926 9.75949 10.9537 9.7558C10.9142 9.75322 10.8746 9.75884 10.8374 9.77232C10.8001 9.78579 10.7661 9.80682 10.7374 9.83408C10.7087 9.86135 10.686 9.89426 10.6706 9.93074C10.6552 9.96722 10.6476 10.0065 10.6481 10.0461C10.6583 10.6971 10.9622 12.0831 10.7067 12.8071C10.3859 13.7169 9.34276 14.171 8.70025 13.6898C8.24872 13.3503 8.34038 12.4811 8.43459 11.9923C8.44395 11.9613 8.44493 11.9283 8.43742 11.8968C8.42991 11.8653 8.41419 11.8363 8.39185 11.8129C8.36951 11.7894 8.34136 11.7723 8.31025 11.7633C8.27914 11.7542 8.2462 11.7536 8.21477 11.7614C8.17154 11.7694 8.13248 11.7922 8.1044 11.8261C8.07632 11.8599 8.06101 11.9025 8.06114 11.9464C8.06114 12.2664 8.02465 13.0727 7.6843 13.2849C7.40421 13.4598 7.136 13.2467 6.98408 13.0778C6.95424 13.0439 6.91261 13.0227 6.86767 13.0184C6.82272 13.0142 6.77785 13.0272 6.74218 13.0549C6.72281 13.0704 6.70697 13.0899 6.69572 13.1121C6.68448 13.1342 6.67808 13.1585 6.67695 13.1833C6.67583 13.2082 6.68001 13.2329 6.6892 13.256C6.6984 13.2791 6.71241 13.2999 6.7303 13.3172C6.84149 13.4233 7.02482 13.5964 7.24719 13.8043C7.32697 13.9172 7.43476 14.1141 7.36347 14.2754C7.29217 14.4367 6.92212 14.5181 6.70229 14.5496C6.68234 14.5525 6.66326 14.5597 6.64631 14.5706C6.62937 14.5816 6.61495 14.596 6.60402 14.613C6.5931 14.6299 6.58592 14.649 6.58296 14.6689C6.58 14.6889 6.58133 14.7092 6.58686 14.7286V14.7354C6.59294 14.756 6.60357 14.775 6.61797 14.791C6.63237 14.8069 6.65016 14.8194 6.67004 14.8276C6.68992 14.8357 6.71138 14.8393 6.73283 14.838C6.75427 14.8368 6.77516 14.8307 6.79396 14.8203C7.09017 14.665 7.787 14.6506 7.94147 14.6556C8.72572 14.7057 9.49299 15.2014 9.90972 15.8575C10.3265 16.5136 10.3052 17.4149 10.3519 18.1678C10.4589 19.906 10.4911 27.9098 10.0362 28.5786C9.58126 29.2474 7.91431 30.1437 7.91431 30.1437" fill="#047857"/>
<path fill-rule="evenodd" clip-rule="evenodd" d="M17.3631 8.75679C17.4212 8.78154 17.4726 8.81995 17.5128 8.86876C17.5533 8.91799 17.5813 8.97633 17.5943 9.03876C17.6072 9.10119 17.6049 9.16584 17.5873 9.22715C17.5702 9.28694 17.5392 9.34181 17.4968 9.38727C17.2936 9.63428 17.0228 9.99037 16.7821 10.3909C16.5397 10.7942 16.3321 11.2357 16.2509 11.6521C16.1346 12.2655 16.2036 12.7033 16.3758 13.0025C16.5467 13.2994 16.8293 13.477 17.1784 13.5518M17.3631 8.75679C17.2699 8.71499 17.1642 8.7106 17.0679 8.74457C16.9711 8.77872 16.8912 8.84899 16.845 8.94068C16.725 9.17932 16.5048 9.58949 16.2505 9.93569C16.1231 10.1091 15.9905 10.2618 15.8611 10.3689C15.7289 10.4781 15.6164 10.5262 15.5263 10.5226C15.313 10.5141 15.0741 10.439 14.8484 10.3394C14.6248 10.2407 14.4224 10.1217 14.2834 10.0326C14.2514 10.0112 14.2152 9.9966 14.1773 9.98977C14.1388 9.98284 14.0993 9.98403 14.0614 9.99325C14.0234 10.0025 13.9877 10.0195 13.9567 10.0433C13.9257 10.0671 13.9 10.0971 13.8813 10.1314L13.8798 10.1341C13.8468 10.1985 13.8404 10.2733 13.8621 10.3423C13.8837 10.4113 13.9316 10.4691 13.9954 10.5031L13.996 10.5034C14.2632 10.6437 14.5429 10.8614 14.7651 11.0787C14.876 11.187 14.9707 11.2935 15.0413 11.3879C15.1141 11.4851 15.1543 11.5603 15.167 11.6072L15.1671 11.6075C15.1979 11.7203 15.1872 11.8866 15.0928 12.1601C14.9992 12.4315 14.8292 12.7924 14.5625 13.2859C14.3118 13.75 13.8316 14.1031 13.3295 14.2097C12.8335 14.3151 12.3231 14.1801 11.9813 13.6771C11.6999 13.2639 11.5148 12.5875 11.4123 11.8935C11.3104 11.2035 11.2931 10.5169 11.3347 10.0952C11.3409 10.0412 11.3363 9.9864 11.3213 9.93412C11.306 9.88145 11.2805 9.83234 11.246 9.7897C11.2116 9.74705 11.1689 9.71172 11.1206 9.68578C11.0723 9.65984 11.0194 9.64382 10.9648 9.63865L10.9614 9.63838C10.9056 9.63474 10.8498 9.64267 10.7973 9.66167C10.7448 9.68067 10.6968 9.71033 10.6563 9.74878C10.6158 9.78723 10.5837 9.83365 10.5621 9.8851C10.5404 9.93656 10.5296 9.99194 10.5304 10.0478C10.5331 10.217 10.5547 10.4313 10.5805 10.6634C10.586 10.713 10.5918 10.7636 10.5976 10.8149C10.6192 11.0056 10.642 11.2067 10.6598 11.4095C10.7052 11.9299 10.7138 12.4331 10.5957 12.7679C10.4464 13.1913 10.129 13.5079 9.77683 13.6623C9.42428 13.8169 9.05006 13.8047 8.77085 13.5956C8.58734 13.4575 8.50129 13.2001 8.48021 12.8891C8.45961 12.5852 8.50323 12.2596 8.54919 12.0198C8.56277 11.9708 8.56373 11.9191 8.55193 11.8696C8.5396 11.8178 8.51377 11.7703 8.47709 11.7317C8.44041 11.6932 8.39418 11.6651 8.3431 11.6503C8.29319 11.6357 8.24041 11.6344 8.18987 11.6464C8.12094 11.6599 8.05874 11.6968 8.01381 11.7509C7.96811 11.8059 7.9432 11.8753 7.94341 11.9468L8.06113 11.9465H7.94341C7.94341 12.1034 7.93435 12.3764 7.88474 12.6339C7.85993 12.7626 7.82577 12.8831 7.77998 12.9817C7.73369 13.0814 7.68009 13.1488 7.622 13.1851C7.52126 13.2479 7.4261 13.2427 7.33297 13.2023C7.23459 13.1596 7.14313 13.0786 7.07195 12.9995C7.02235 12.9435 6.9533 12.9084 6.87876 12.9013C6.80399 12.8942 6.72933 12.9159 6.66999 12.9619L6.66849 12.9631C6.63607 12.9892 6.60957 13.0218 6.59075 13.0588C6.57193 13.0959 6.56122 13.1365 6.55934 13.1781C6.55746 13.2196 6.56444 13.261 6.57984 13.2996C6.59523 13.3383 6.61867 13.3731 6.6486 13.402L6.64902 13.4024C6.75906 13.5074 6.93924 13.6776 7.15773 13.8819C7.19236 13.9322 7.22883 13.9951 7.25036 14.0592C7.27357 14.1284 7.27483 14.1848 7.25579 14.2279C7.25123 14.2382 7.23638 14.2579 7.19754 14.2827C7.16009 14.3067 7.10975 14.3294 7.05019 14.3499C6.93124 14.391 6.79197 14.4179 6.68563 14.4331L6.68494 14.4332C6.64843 14.4386 6.6135 14.4518 6.58247 14.4718C6.55146 14.4918 6.52506 14.5182 6.50506 14.5492C6.48506 14.5803 6.47191 14.6152 6.46649 14.6517C6.46193 14.6825 6.46294 14.7138 6.46945 14.7442C6.47006 14.7525 6.47157 14.7608 6.47394 14.7688C6.48501 14.8063 6.50436 14.8409 6.53058 14.8699C6.55679 14.8989 6.58919 14.9217 6.62539 14.9365C6.66158 14.9514 6.70064 14.9579 6.7397 14.9556C6.77821 14.9534 6.81573 14.9426 6.84957 14.9241C6.97528 14.8586 7.20171 14.8174 7.43223 14.795C7.6561 14.7733 7.86229 14.771 7.9358 14.7733C8.67824 14.8214 9.41208 15.2937 9.81034 15.9207C10.0055 16.2279 10.1012 16.5978 10.1529 16.9917C10.1898 17.2733 10.2034 17.5584 10.2167 17.8376C10.2221 17.9513 10.2275 18.064 10.2344 18.1751C10.2876 19.0396 10.3225 21.4714 10.287 23.7725C10.2693 24.9225 10.2341 26.0377 10.175 26.9062C10.1455 27.3407 10.1101 27.7115 10.0683 27.9933C10.0474 28.1343 10.0252 28.2509 10.0019 28.3412C9.97771 28.4348 9.95516 28.4884 9.93884 28.5124C9.83498 28.6651 9.65632 28.8378 9.43869 29.0138C9.22274 29.1884 8.97538 29.3607 8.7405 29.5133C8.50586 29.6657 8.2851 29.7975 8.12293 29.8913C8.04189 29.9382 7.97559 29.9755 7.92964 30.001C7.90667 30.0138 7.88879 30.0236 7.87671 30.0302L7.86301 30.0376L7.85877 30.0399C7.80151 30.0707 7.77982 30.1422 7.81061 30.1995C7.8414 30.2567 7.91278 30.2782 7.97005 30.2474L7.9143 30.1437C7.97005 30.2474 7.97002 30.2474 7.97005 30.2474L7.97043 30.2472L7.97517 30.2446L7.98955 30.2368C8.00211 30.23 8.02048 30.2199 8.04398 30.2068C8.09097 30.1807 8.15845 30.1428 8.2408 30.0951C8.4054 30 8.62981 29.8659 8.86877 29.7107C9.1075 29.5556 9.36217 29.3784 9.58673 29.1969C9.8096 29.0167 10.0099 28.8266 10.1335 28.6448C10.1741 28.5852 10.2046 28.498 10.2299 28.4C10.256 28.2987 10.2797 28.1731 10.3012 28.0278C10.3443 27.7371 10.3802 27.3593 10.4099 26.9222C10.4694 26.0476 10.5047 24.9278 10.5225 23.7761C10.5579 21.4735 10.5232 19.0343 10.4694 18.1606C10.463 18.0564 10.4578 17.9478 10.4524 17.8365C10.4389 17.5536 10.4246 17.2529 10.3863 16.9611C10.3327 16.552 10.2307 16.1432 10.0091 15.7944C9.5742 15.1098 8.77438 14.5909 7.94896 14.5382L7.94534 14.538C7.86278 14.5353 7.64485 14.5378 7.40948 14.5607C7.1795 14.583 6.90998 14.6266 6.73927 14.7161L6.73689 14.7174C6.73352 14.7192 6.72977 14.7203 6.72593 14.7206C6.72209 14.7208 6.71824 14.7201 6.71467 14.7187C6.71111 14.7172 6.70792 14.715 6.70534 14.7121C6.70445 14.7111 6.70364 14.7101 6.70291 14.709C6.70219 14.7047 6.70124 14.7005 6.70006 14.6964C6.69912 14.6931 6.69889 14.6897 6.69939 14.6863C6.6999 14.6829 6.70111 14.6797 6.70296 14.6768C6.70481 14.6739 6.70726 14.6715 6.71013 14.6696C6.713 14.6678 6.71623 14.6665 6.71961 14.666L6.70228 14.5496L6.71893 14.6661C6.83242 14.6499 6.98809 14.6204 7.12695 14.5725C7.19629 14.5486 7.26557 14.5187 7.32443 14.4811C7.38189 14.4443 7.44004 14.3934 7.47113 14.3231C7.52338 14.2049 7.50639 14.0821 7.47358 13.9843C7.44049 13.8857 7.38656 13.7976 7.34332 13.7365C7.3387 13.7299 7.33343 13.7239 7.32759 13.7184C7.10557 13.5108 6.92266 13.338 6.81182 13.2323C6.80605 13.2267 6.80153 13.2199 6.79855 13.2125C6.79554 13.2049 6.79418 13.1968 6.79455 13.1887C6.79491 13.1806 6.797 13.1727 6.80068 13.1654C6.80421 13.1585 6.80912 13.1523 6.81512 13.1474C6.82699 13.1385 6.84176 13.1343 6.85655 13.1357C6.87167 13.1371 6.88567 13.1443 6.89571 13.1557L6.89654 13.1566C6.97724 13.2463 7.0957 13.356 7.23926 13.4183C7.38823 13.4829 7.56728 13.4968 7.74663 13.3848C7.85868 13.3149 7.93725 13.2021 7.99353 13.0809C8.05031 12.9586 8.08908 12.8178 8.11594 12.6784C8.16966 12.3996 8.17886 12.1095 8.17886 11.9465L8.17886 11.9461C8.17881 11.9298 8.18451 11.9139 8.19496 11.9013C8.20542 11.8887 8.21997 11.8802 8.23606 11.8772C8.23846 11.8768 8.24085 11.8763 8.24321 11.8757C8.25446 11.8729 8.26625 11.8731 8.27738 11.8763C8.28851 11.8796 8.29859 11.8857 8.30658 11.8941C8.31458 11.9025 8.3202 11.9129 8.32289 11.9241C8.32558 11.9354 8.32523 11.9472 8.32188 11.9583C8.32071 11.9622 8.31975 11.9661 8.31898 11.97C8.27109 12.2186 8.22255 12.5695 8.2453 12.905C8.26771 13.2357 8.36156 13.5825 8.62949 13.7839C8.99279 14.056 9.46153 14.0576 9.87136 13.878C10.2816 13.6981 10.6462 13.3328 10.8177 12.8463C10.955 12.4572 10.9394 11.9054 10.8943 11.389C10.8763 11.1829 10.853 10.9778 10.8314 10.7868C10.8256 10.7359 10.8199 10.686 10.8145 10.6373C10.7885 10.4039 10.7683 10.2007 10.7658 10.0444C10.7655 10.0211 10.77 9.99797 10.7791 9.97648C10.7881 9.95496 10.8016 9.93556 10.8185 9.91948C10.8354 9.90341 10.8555 9.89101 10.8774 9.88306C10.8988 9.87531 10.9216 9.87197 10.9443 9.87322C10.967 9.8756 10.9891 9.88239 11.0092 9.89321C11.0299 9.9043 11.0481 9.91941 11.0629 9.93765C11.0776 9.95589 11.0885 9.97689 11.095 9.99942C11.1015 10.0219 11.1035 10.0455 11.1007 10.0688L11.1005 10.071C11.0565 10.516 11.0753 11.2229 11.1794 11.9279C11.2829 12.6294 11.4738 13.3502 11.7865 13.8095C12.19 14.4031 12.8033 14.5622 13.3784 14.4401C13.9474 14.3192 14.4858 13.9233 14.7697 13.3978C15.0378 12.9016 15.2153 12.527 15.3154 12.2368C15.4148 11.9488 15.4439 11.7273 15.3942 11.5457M17.2673 8.97187C17.2291 8.95456 17.1857 8.95268 17.1462 8.96662C17.1067 8.98054 17.0742 9.00918 17.0553 9.04654M17.331 9.01841C17.3147 8.99863 17.2939 8.98311 17.2703 8.97317L17.2673 8.97187M17.331 9.01841C17.3473 9.03819 17.3585 9.06163 17.3637 9.08671ZM17.3637 9.08671C17.369 9.1118 17.368 9.13777 17.361 9.1624ZM17.361 9.1624C17.3539 9.18703 17.341 9.20958 17.3233 9.22811ZM17.3233 9.22811C17.3213 9.23019 17.3194 9.23235 17.3176 9.23457ZM17.3176 9.23457C17.1094 9.48736 16.8298 9.85441 16.5803 10.2696ZM16.5803 10.2696C16.3315 10.6835 16.1084 11.1522 16.0198 11.6074ZM14.0887 10.2429C14.0844 10.252 14.0837 10.2623 14.0867 10.2719C14.0898 10.2818 14.0967 10.2902 14.1058 10.2951C14.3979 10.4486 14.6957 10.6815 14.9297 10.9103C15.0471 11.0251 15.1503 11.1406 15.2298 11.2469C15.3072 11.3503 15.3695 11.4544 15.3942 11.5453M16.0198 11.6074L16.0196 11.6079ZM16.0196 11.6079C15.8967 12.2556 15.9622 12.7561 16.1717 13.1199ZM16.1717 13.1199C16.3825 13.4861 16.7288 13.6963 17.1292 13.782ZM18.4807 12.8416C18.5293 12.8368 18.5784 12.8424 18.6246 12.8581C18.6709 12.8737 18.7133 12.8989 18.7491 12.9321C18.7849 12.9654 18.8133 13.0058 18.8323 13.0508C18.8513 13.0958 18.8605 13.1443 18.8594 13.1931C18.8583 13.2419 18.8468 13.2899 18.8257 13.334C18.8055 13.3763 18.7769 13.414 18.7416 13.4449C18.5844 13.6038 18.4179 13.7532 18.243 13.8923C18.2405 13.8943 18.2378 13.8963 18.2351 13.8981C18.2031 13.9194 18.1686 13.9385 18.1435 13.9524C18.1343 13.9575 18.1263 13.9619 18.1202 13.9655C18.0918 13.982 18.0844 13.9898 18.0811 13.9945C18.0763 14.0015 18.0549 14.0397 18.0979 14.2291L18.0982 14.2306C18.114 14.3051 18.1807 14.3917 18.2935 14.4817C18.4023 14.5685 18.5361 14.6444 18.653 14.702L18.6541 14.7026C18.7004 14.726 18.7407 14.7599 18.7719 14.8014C18.803 14.843 18.8241 14.8912 18.8336 14.9423C18.843 14.9934 18.8406 15.046 18.8264 15.0959C18.8122 15.1459 18.7867 15.1919 18.7518 15.2304C18.7506 15.2317 18.7494 15.2331 18.7481 15.2343C18.7121 15.2706 18.6684 15.2984 18.6203 15.3158C18.5722 15.3331 18.5208 15.3396 18.4699 15.3347C18.419 15.3297 18.3698 15.3135 18.326 15.2873C18.2822 15.2611 18.2447 15.2255 18.2163 15.1831C18.0641 14.9581 17.8469 14.7848 17.5938 14.6862C17.5726 14.6786 17.5516 14.671 17.5307 14.6635C17.2541 14.5638 17.0051 14.474 16.7922 14.4708C16.6823 14.4692 16.5904 14.4913 16.5131 14.5426C16.4358 14.5941 16.3618 14.6825 16.3015 14.8335C16.2914 14.8588 16.2779 14.9222 16.2651 15.0337C16.2527 15.1407 16.242 15.2806 16.233 15.4499C16.2148 15.7883 16.2034 16.2387 16.1971 16.7675C16.1846 17.8247 16.1929 19.1904 16.2096 20.5905C16.2264 21.9987 16.2517 23.4425 16.2727 24.6399C16.2934 25.821 16.3099 26.7624 16.3099 27.1935C16.3099 28.0136 16.7447 28.6501 17.3536 29.113C17.9642 29.577 18.741 29.8585 19.3944 29.963C19.4586 29.9732 19.5024 30.0336 19.4921 30.0978C19.4818 30.162 19.4215 30.2057 19.3573 30.1955C18.673 30.0861 17.8581 29.7921 17.2112 29.3004C16.5627 28.8076 16.0744 28.1082 16.0744 27.1935C16.0744 26.7635 16.058 25.8259 16.0374 24.6479C16.0164 23.4511 15.9911 22.0062 15.9742 20.5933C15.9575 19.1928 15.9491 17.8248 15.9617 16.7647C15.9679 16.2348 15.9794 15.7806 15.9979 15.4373C16.0071 15.2658 16.018 15.1206 16.0312 15.0068C16.0438 14.8975 16.0596 14.8044 16.0829 14.7461C16.1562 14.5627 16.2561 14.4308 16.3827 14.3466C16.5095 14.2623 16.6516 14.2332 16.7957 14.2354C17.0504 14.2392 17.337 14.3429 17.6013 14.4386C17.626 14.4475 17.6505 14.4564 17.6748 14.4651L17.6777 14.4661C17.9762 14.582 18.2322 14.7862 18.4116 15.0515L18.4119 15.052C18.421 15.0655 18.4329 15.0769 18.4469 15.0852C18.4608 15.0936 18.4764 15.0987 18.4926 15.1003C18.5088 15.1019 18.5251 15.0998 18.5404 15.0943C18.5549 15.0891 18.568 15.0809 18.5791 15.0703C18.5888 15.0591 18.5959 15.0459 18.5999 15.0316C18.6042 15.0165 18.6049 15.0006 18.6021 14.9852C18.5992 14.9697 18.5928 14.9551 18.5834 14.9426C18.5741 14.9301 18.562 14.92 18.5482 14.9129C18.4242 14.8517 18.2739 14.7673 18.1466 14.6657C18.0233 14.5673 17.9018 14.4373 17.8681 14.2805C17.8263 14.0959 17.8182 13.9603 17.8877 13.8602C17.9217 13.8113 17.9668 13.7823 18.0018 13.762C18.016 13.7537 18.0283 13.7469 18.04 13.7404C18.0603 13.7293 18.0786 13.7192 18.1005 13.7048C18.2678 13.5715 18.4271 13.4283 18.5774 13.2761C18.5792 13.2743 18.5811 13.2725 18.583 13.2708C18.5837 13.2702 18.5844 13.2695 18.5852 13.2689C18.597 13.2589 18.6066 13.2465 18.6133 13.2325C18.62 13.2185 18.6236 13.2032 18.624 13.1877C18.6244 13.1721 18.6214 13.1567 18.6154 13.1424C18.6093 13.1281 18.6003 13.1153 18.5889 13.1047C18.5776 13.0941 18.5641 13.0861 18.5494 13.0812C18.5347 13.0762 18.5191 13.0744 18.5036 13.0759C18.4882 13.0774 18.4732 13.0822 18.4597 13.0899C18.4463 13.0976 18.4346 13.1081 18.4255 13.1207L18.4247 13.1217C18.3246 13.2567 18.1585 13.4516 17.9416 13.5981C17.7237 13.7452 17.4452 13.8494 17.1292 13.782M18.4807 12.8416C18.4321 12.8463 18.3851 12.8613 18.3427 12.8856ZM18.3427 12.8856C18.3005 12.9098 18.2639 12.9426 18.2353 12.9819ZM18.2353 12.9819C18.1428 13.1065 17.9954 13.2776 17.8098 13.403C17.6249 13.5279 17.4115 13.6015 17.1784 13.5518" fill="#047857"/>
<g style="mix-blend-mode:multiply" opacity="0.5">
<path d="M13.2249 28.532C13.2249 28.532 12.9754 28.0533 12.2853 28.4743C11.5953 28.8952 11.5215 29.4715 11.0394 29.6252C10.5573 29.7788 10.2534 29.6056 10.1575 30.0079C10.0616 30.4103 9.9657 30.5639 10.0421 30.6216C10.1185 30.6793 10.0998 30.1972 10.368 30.0852C10.6362 29.9732 11.1158 29.9511 11.4799 29.6608C11.844 29.3705 12.669 28.4174 13.2249 28.532Z" fill="#047857"/>
</g>
<path fill-rule="evenodd" clip-rule="evenodd" d="M9.2697 14.8843C9.30144 14.8275 9.37317 14.8072 9.42991 14.839C9.91028 15.1077 10.2678 15.5521 10.4272 16.0789C10.4461 16.1411 10.4109 16.2068 10.3487 16.2257C10.2864 16.2445 10.2207 16.2093 10.2019 16.1471C10.0601 15.6786 9.74216 15.2834 9.31498 15.0445C9.25823 15.0127 9.23796 14.941 9.2697 14.8843Z" fill="#047857"/>
<path fill-rule="evenodd" clip-rule="evenodd" d="M10.3605 16.1862C10.4246 16.1755 10.4853 16.2188 10.496 16.2829C10.5291 16.4811 10.5522 16.6807 10.5653 16.8811C10.5695 16.946 10.5203 17.002 10.4555 17.0063C10.3906 17.0105 10.3346 16.9614 10.3303 16.8965C10.3177 16.7039 10.2955 16.5121 10.2638 16.3217C10.2531 16.2576 10.2964 16.1969 10.3605 16.1862Z" fill="#047857"/>
<path fill-rule="evenodd" clip-rule="evenodd" d="M10.5533 17.6182C10.6182 17.616 10.6727 17.6669 10.675 17.7318L10.5573 17.7359L10.4396 17.7399C10.4374 17.675 10.4883 17.6205 10.5533 17.6182ZM10.5573 17.7359C10.4396 17.7399 10.4396 17.7399 10.4396 17.7399L10.4417 17.8027C10.4431 17.8438 10.4451 17.9045 10.4475 17.9824C10.4525 18.1384 10.4593 18.3635 10.4671 18.6402C10.4827 19.1936 10.5018 19.9534 10.5163 20.7787C10.5453 22.4315 10.5553 24.3408 10.4806 25.3858C10.476 25.4506 10.5248 25.507 10.5897 25.5116C10.6545 25.5162 10.7108 25.4674 10.7155 25.4026C10.791 24.3452 10.7807 22.4253 10.7517 20.7746C10.7372 19.9482 10.718 19.1875 10.7025 18.6335C10.6947 18.3565 10.6878 18.1312 10.6829 17.975C10.6804 17.8969 10.6784 17.8362 10.6771 17.7949L10.675 17.7318C10.675 17.7318 10.675 17.7318 10.5573 17.7359Z" fill="#047857"/>
<path fill-rule="evenodd" clip-rule="evenodd" d="M10.6038 25.5634C10.6688 25.5666 10.7188 25.6218 10.7156 25.6867L10.598 25.681L10.4805 25.6752C10.4837 25.6102 10.5389 25.5602 10.6038 25.5634ZM10.598 25.681L10.4805 25.6752L10.4775 25.7348C10.4756 25.7729 10.4728 25.8275 10.4694 25.8938C10.4626 26.0265 10.4533 26.2055 10.443 26.3914C10.4224 26.7664 10.3987 27.1597 10.3854 27.2633C10.3771 27.3278 10.4227 27.3868 10.4871 27.3951C10.5516 27.4034 10.6106 27.3578 10.6189 27.2933C10.6336 27.1788 10.6578 26.7734 10.6781 26.4043C10.6884 26.2181 10.6978 26.0387 10.7046 25.9059C10.708 25.8395 10.7107 25.7847 10.7127 25.7465L10.7156 25.6867L10.598 25.681Z" fill="#047857"/>
<path fill-rule="evenodd" clip-rule="evenodd" d="M11.127 18.7784C11.192 18.7766 11.2461 18.8278 11.2479 18.8928L11.2759 19.9164C11.2776 19.9814 11.2264 20.0355 11.1614 20.0373C11.0964 20.0391 11.0423 19.9879 11.0405 19.9229L11.0125 18.8993C11.0107 18.8343 11.062 18.7801 11.127 18.7784Z" fill="#047857"/>
<path fill-rule="evenodd" clip-rule="evenodd" d="M11.1697 20.1431C11.2347 20.1419 11.2884 20.1937 11.2895 20.2587L11.1718 20.2608L11.0541 20.2629C11.0529 20.1979 11.1047 20.1442 11.1697 20.1431ZM11.1718 20.2608C11.0541 20.2629 11.0541 20.2628 11.0541 20.2629L11.0569 20.43C11.0587 20.5374 11.0611 20.6921 11.0639 20.8818C11.0694 21.2611 11.0762 21.7801 11.0812 22.3388C11.0914 23.4574 11.0948 24.7307 11.0678 25.3619C11.065 25.4268 11.1154 25.4817 11.1804 25.4845C11.2453 25.4873 11.3002 25.4369 11.303 25.3719C11.3303 24.7334 11.3269 23.4536 11.3167 22.3366C11.3116 21.7774 11.3048 21.258 11.2993 20.8784C11.2965 20.6885 11.2941 20.5336 11.2923 20.4262L11.2895 20.2587C11.2895 20.2587 11.2895 20.2587 11.1718 20.2608Z" fill="#047857"/>
<path fill-rule="evenodd" clip-rule="evenodd" d="M11.6874 26.0962C11.7524 26.0946 11.8064 26.1459 11.808 26.2109L11.8216 26.7431C11.8233 26.8081 11.7719 26.8621 11.7069 26.8638C11.6419 26.8654 11.5879 26.8141 11.5863 26.7491L11.5727 26.2169C11.571 26.1519 11.6224 26.0979 11.6874 26.0962Z" fill="#047857"/>
<path fill-rule="evenodd" clip-rule="evenodd" d="M15.3729 11.3119C15.4296 11.2799 15.5014 11.2999 15.5334 11.3565L15.4309 11.4144C15.5334 11.3565 15.5334 11.3565 15.5334 11.3566L15.5335 11.3567L15.5336 11.3569L15.5339 11.3575L15.5346 11.3587L15.5362 11.3618C15.5375 11.3642 15.539 11.3672 15.5407 11.3708C15.5442 11.3781 15.5485 11.3879 15.5533 11.4002C15.5629 11.4248 15.5744 11.4596 15.5845 11.5048C15.6047 11.5955 15.6192 11.7272 15.6033 11.9029L15.6029 11.9068L15.6028 11.9068C15.5724 12.1504 15.5043 12.3879 15.401 12.6106C15.3736 12.6696 15.3036 12.6952 15.2447 12.6678C15.1857 12.6405 15.1601 12.5705 15.1874 12.5115C15.2802 12.3115 15.3414 12.0984 15.369 11.8796C15.3824 11.7287 15.3694 11.6221 15.3547 11.5561C15.3473 11.5228 15.3394 11.4995 15.334 11.4858C15.3313 11.4789 15.3292 11.4743 15.3282 11.4721C15.3278 11.4714 15.3276 11.471 15.3275 11.4707C15.3275 11.4707 15.3275 11.4707 15.3275 11.4707C15.3274 11.4706 15.3274 11.4705 15.3274 11.4705L15.3276 11.471L15.3279 11.4715L15.3281 11.4719L15.3282 11.4721" fill="#047857"/>
<path fill-rule="evenodd" clip-rule="evenodd" d="M15.2798 12.6606C15.3377 12.6902 15.3607 12.7611 15.3312 12.819L15.2263 12.7655L15.1215 12.7119C15.151 12.654 15.2219 12.631 15.2798 12.6606ZM15.1215 12.7119L15.2263 12.7655L15.3312 12.819L15.3274 12.8264L15.3167 12.8471C15.3075 12.865 15.2942 12.8907 15.278 12.9218C15.2456 12.984 15.2014 13.0682 15.154 13.1559C15.1067 13.2435 15.0559 13.3353 15.0106 13.4126C14.9675 13.486 14.9233 13.5571 14.8901 13.5946C14.8471 13.6433 14.7727 13.6479 14.724 13.6048C14.6753 13.5618 14.6707 13.4874 14.7137 13.4386C14.729 13.4214 14.7619 13.3712 14.8075 13.2935C14.8508 13.2197 14.9001 13.1306 14.9468 13.044C14.9934 12.9577 15.0371 12.8746 15.0692 12.813C15.0852 12.7823 15.0983 12.757 15.1074 12.7393L15.1178 12.719L15.1215 12.7119Z" fill="#047857"/>
<path fill-rule="evenodd" clip-rule="evenodd" d="M10.4114 13.6831C10.4554 13.731 10.4522 13.8055 10.4044 13.8494C10.2344 14.0056 10.0284 14.1173 9.80475 14.1745C9.58113 14.2317 9.34682 14.2328 9.12271 14.1775C9.05958 14.1619 9.02103 14.0981 9.03659 14.035C9.05216 13.9719 9.11596 13.9333 9.17908 13.9489C9.36549 13.9949 9.56037 13.994 9.74636 13.9464C9.93236 13.8988 10.1037 13.8059 10.2451 13.676C10.293 13.6321 10.3674 13.6352 10.4114 13.6831Z" fill="#047857"/>
<path fill-rule="evenodd" clip-rule="evenodd" d="M11.1031 26.1235C11.1681 26.1235 11.2208 26.1762 11.2208 26.2413V28.7807C11.2208 28.7925 11.219 28.8042 11.2155 28.8154L11.1031 28.7807C11.2155 28.8154 11.2155 28.8155 11.2155 28.8156L11.2154 28.8158L11.2153 28.8162L11.215 28.8171L11.2143 28.8193L11.2122 28.8251C11.2106 28.8297 11.2083 28.8356 11.2053 28.8427C11.1993 28.8568 11.1903 28.8756 11.1775 28.8982C11.1518 28.9436 11.1108 29.0037 11.0469 29.0713C10.9188 29.2069 10.7016 29.3697 10.3386 29.5047C10.3334 29.5067 10.3281 29.5082 10.3226 29.5094C10.1532 29.5463 10.0024 29.6421 9.89716 29.7799L9.89625 29.7811L9.89624 29.7811C9.82938 29.8663 9.77708 29.9436 9.72433 30.0215C9.69407 30.0662 9.66366 30.1111 9.63027 30.1579C9.54165 30.282 9.44193 30.4035 9.2942 30.5198C9.24312 30.56 9.1691 30.5512 9.12888 30.5001C9.08865 30.4491 9.09745 30.375 9.14853 30.3348C9.27241 30.2373 9.35729 30.1351 9.43864 30.0211C9.46536 29.9837 9.49298 29.9429 9.52206 29.9001C9.57815 29.8174 9.63966 29.7267 9.71052 29.6363C9.8479 29.4568 10.0438 29.3312 10.264 29.2812C10.5924 29.158 10.7759 29.0153 10.8757 28.9096C10.9262 28.8562 10.956 28.8115 10.9726 28.7822C10.9783 28.7722 10.9824 28.764 10.9853 28.7578V26.2413C10.9853 26.1762 11.038 26.1235 11.1031 26.1235Z" fill="#047857"/>
<path fill-rule="evenodd" clip-rule="evenodd" d="M11.5303 17.2176C11.5953 17.2163 11.649 17.268 11.6502 17.333L11.7674 23.4517C11.7686 23.5167 11.7169 23.5704 11.6519 23.5716C11.5869 23.5729 11.5332 23.5212 11.5319 23.4562L11.4148 17.3375C11.4136 17.2725 11.4653 17.2188 11.5303 17.2176Z" fill="#047857"/>
<path fill-rule="evenodd" clip-rule="evenodd" d="M11.9643 29.3539C11.8507 29.4632 11.7374 29.5722 11.6269 29.6634C11.3969 29.8531 11.2301 29.9439 11.1145 29.9863C11.0564 30.0076 11.0106 30.0169 10.9759 30.0201C10.9586 30.0218 10.9441 30.0218 10.9324 30.0212C10.9265 30.0208 10.9213 30.0203 10.9169 30.0197C10.9146 30.0194 10.9126 30.0191 10.9107 30.0187L10.908 30.0182L10.9068 30.018L10.9062 30.0178L10.9059 30.0178C10.9058 30.0178 10.9056 30.0177 10.9303 29.9048L10.9056 30.0177C10.8421 30.0038 10.8018 29.9411 10.8157 29.8776C10.829 29.817 10.8866 29.7776 10.947 29.7861C10.9483 29.7861 10.9507 29.786 10.9541 29.7857C10.9662 29.7846 10.992 29.7804 11.0334 29.7652C11.1168 29.7347 11.2607 29.6603 11.4771 29.4817C11.5804 29.3965 11.6878 29.2932 11.8039 29.1816C11.8084 29.1772 11.813 29.1728 11.8176 29.1684C11.9375 29.0531 12.0657 28.9304 12.2008 28.819C12.469 28.5981 12.7826 28.4058 13.1451 28.4058C13.4906 28.4058 13.7495 28.5108 13.9229 28.6176C14.0093 28.6708 14.0743 28.7244 14.1183 28.7653C14.1403 28.7858 14.1571 28.8032 14.1688 28.816C14.1746 28.8223 14.1792 28.8275 14.1825 28.8314L14.1865 28.8361L14.1877 28.8377L14.1882 28.8383L14.1884 28.8385L14.1885 28.8386C14.1885 28.8387 14.1885 28.8387 14.1021 28.9078L14.1886 28.8387C14.2291 28.8895 14.2209 28.9636 14.1701 29.0042C14.1193 29.0448 14.0452 29.0365 14.0046 28.9857L14.0966 28.9122C14.0046 28.9857 14.0047 28.9858 14.0047 28.9858L14.0047 28.9859L14.0048 28.986L14.0034 28.9843C14.0018 28.9825 13.9991 28.9793 13.9952 28.9751C13.9874 28.9666 13.9749 28.9536 13.9578 28.9376C13.9235 28.9057 13.8708 28.862 13.7994 28.8181C13.6573 28.7305 13.4405 28.6412 13.1451 28.6412C12.8669 28.6412 12.6072 28.7893 12.3506 29.0007C12.2234 29.1056 12.1013 29.2222 11.9808 29.3381C11.9753 29.3434 11.9698 29.3487 11.9643 29.3539Z" fill="#047857"/>
<path fill-rule="evenodd" clip-rule="evenodd" d="M14.122 28.9418C14.1806 28.9137 14.251 28.9384 14.2791 28.997C14.3552 29.1554 14.4047 29.3253 14.4257 29.4999C14.4334 29.5644 14.3874 29.623 14.3228 29.6308C14.2583 29.6385 14.1997 29.5925 14.1919 29.5279C14.174 29.379 14.1318 29.2341 14.0669 29.0989C14.0387 29.0403 14.0634 28.97 14.122 28.9418Z" fill="#047857"/>
<path fill-rule="evenodd" clip-rule="evenodd" d="M15.1361 28.5086C15.0402 28.517 14.958 28.5576 14.8915 28.65C14.7582 28.8354 14.8078 29.0602 14.9233 29.2705C14.9793 29.3724 15.0459 29.4613 15.0993 29.5253C15.1258 29.5571 15.1487 29.5822 15.1647 29.5993C15.1727 29.6078 15.1789 29.6142 15.183 29.6184L15.1876 29.6229L15.1885 29.6239C15.2352 29.6692 15.2363 29.7437 15.1911 29.7904C15.1458 29.837 15.0713 29.8382 15.0246 29.7929L15.1066 29.7084C15.0246 29.7929 15.0246 29.7929 15.0246 29.7929L15.0243 29.7926L15.0237 29.792L15.0219 29.7902L15.0155 29.7838C15.0101 29.7783 15.0025 29.7705 14.9932 29.7606C14.9744 29.7406 14.9484 29.712 14.9185 29.6761C14.8589 29.6047 14.7824 29.503 14.717 29.3839C14.5897 29.1522 14.484 28.8134 14.7004 28.5125C14.8088 28.3618 14.9547 28.2881 15.1156 28.274C15.2709 28.2604 15.4341 28.3026 15.5877 28.3686C15.895 28.5005 16.203 28.7446 16.4117 28.9433C16.4588 28.9881 16.4606 29.0626 16.4158 29.1097C16.3709 29.1568 16.2964 29.1586 16.2493 29.1138C16.0498 28.9238 15.7653 28.7011 15.4948 28.5849C15.3595 28.5269 15.2375 28.4997 15.1361 28.5086Z" fill="#047857"/>
<path fill-rule="evenodd" clip-rule="evenodd" d="M16.7301 29.1768C16.7098 29.1287 16.659 29.0984 16.6049 29.1062C16.5405 29.1154 16.4959 29.1751 16.5051 29.2395L16.6216 29.2227C16.5051 29.2395 16.5052 29.2398 16.5052 29.2401L16.5053 29.2407L16.5055 29.2419L16.5059 29.2444C16.5062 29.2461 16.5066 29.2478 16.507 29.2494C16.5077 29.2528 16.5087 29.2562 16.5097 29.2596C16.5119 29.2664 16.5146 29.2732 16.5179 29.2801C16.5244 29.2938 16.5334 29.3078 16.5451 29.3225C16.5682 29.3514 16.6044 29.3858 16.6621 29.4274C16.7768 29.51 16.9892 29.6301 17.3884 29.7958C17.3899 29.7966 17.3923 29.7979 17.3953 29.7996C17.4023 29.8035 17.4127 29.8097 17.4248 29.8179C17.4496 29.835 17.4779 29.8584 17.4994 29.8865C17.5205 29.9141 17.5321 29.9419 17.533 29.971C17.5339 29.9989 17.5254 30.0421 17.4807 30.1023C17.3115 30.3152 17.1219 30.5111 16.9147 30.687C16.8651 30.7291 16.859 30.8034 16.9011 30.853C16.9432 30.9025 17.0175 30.9086 17.0671 30.8665C17.2865 30.6802 17.4871 30.4728 17.6661 30.2474L17.6662 30.2474L17.6682 30.2447C17.7389 30.1503 17.7713 30.0556 17.7684 29.9635C17.7655 29.8724 17.7284 29.7984 17.6863 29.7433C17.6446 29.6889 17.595 29.6492 17.5579 29.6238C17.539 29.6108 17.5224 29.6009 17.5101 29.594C17.504 29.5906 17.4989 29.5879 17.4951 29.586L17.4903 29.5836L17.4887 29.5828L17.4881 29.5825L17.4879 29.5824L17.4878 29.5823C17.4877 29.5823 17.4877 29.5823 17.4373 29.6887L17.4877 29.5823C17.4859 29.5815 17.4842 29.5807 17.4824 29.5799C17.0879 29.4163 16.8935 29.3039 16.7997 29.2364C16.7553 29.2044 16.7365 29.1846 16.7301 29.1768ZM17.3863 29.7948C17.3863 29.7948 17.3863 29.7948 17.3864 29.7948L17.3863 29.7948Z" fill="#047857"/>
<path fill-rule="evenodd" clip-rule="evenodd" d="M10.8888 29.9012C10.9107 29.9624 10.8789 30.0299 10.8177 30.0518C10.6855 30.0992 10.577 30.1963 10.5152 30.3223C10.4592 30.4451 10.4326 30.5216 10.4202 30.565C10.414 30.5867 10.4114 30.5996 10.4105 30.6055C10.4102 30.6067 10.4101 30.6076 10.41 30.6082C10.41 30.6082 10.41 30.6082 10.41 30.6082C10.41 30.6087 10.4099 30.609 10.4099 30.609C10.4099 30.609 10.41 30.6089 10.41 30.6088L10.4101 30.6067L10.4102 30.6047L10.4102 30.6035L10.4102 30.6029L10.4102 30.6025M10.2925 30.6022C10.1747 30.6022 10.1747 30.6021 10.1747 30.602L10.1747 30.6018L10.1747 30.6015L10.1748 30.6007L10.1748 30.5992L10.1749 30.5958C10.175 30.5935 10.1752 30.5909 10.1754 30.588C10.1759 30.5823 10.1768 30.5755 10.1781 30.5673C10.1808 30.551 10.1855 30.5291 10.1938 30.5001C10.2104 30.4423 10.2418 30.3541 10.3017 30.2231L10.3029 30.2204L10.3029 30.2204C10.3915 30.0386 10.5478 29.8985 10.7382 29.8302C10.7994 29.8082 10.8668 29.84 10.8888 29.9012" fill="#047857"/>
<path fill-rule="evenodd" clip-rule="evenodd" d="M17.5751 30.4697C17.6883 30.3288 17.8741 30.1541 18.1163 30.1541C18.3249 30.1541 18.576 30.2343 18.7645 30.3076C18.8611 30.3451 18.9455 30.3826 19.0058 30.4107C19.036 30.4247 19.0602 30.4365 19.0771 30.4448C19.0855 30.449 19.0921 30.4523 19.0966 30.4546L19.1019 30.4572L19.1033 30.458L19.1037 30.4582C19.1038 30.4582 19.104 30.4583 19.0513 30.5601L19.1037 30.4582C19.1615 30.488 19.1844 30.5592 19.1545 30.6169C19.1247 30.6747 19.0537 30.6973 18.9959 30.6675C18.9959 30.6675 18.9959 30.6675 18.9959 30.6675L18.9947 30.6669L18.9904 30.6647C18.9865 30.6627 18.9806 30.6598 18.9729 30.656C18.9575 30.6484 18.9348 30.6374 18.9064 30.6241C18.8495 30.5976 18.7699 30.5623 18.6792 30.5271C18.4935 30.4548 18.2777 30.3895 18.1163 30.3895C17.9884 30.3895 17.8636 30.4864 17.7587 30.6171C17.709 30.679 17.6693 30.7415 17.6421 30.7889C17.6285 30.8124 17.6182 30.8319 17.6114 30.8452C17.608 30.8519 17.6054 30.857 17.6038 30.8603L17.6021 30.8638L17.6019 30.8644C17.5746 30.9234 17.5046 30.9491 17.4456 30.9218C17.3866 30.8945 17.3609 30.8246 17.3882 30.7656L17.495 30.815C17.3882 30.7656 17.3881 30.7656 17.3882 30.7656L17.3883 30.7652L17.3886 30.7647L17.3893 30.763L17.392 30.7575C17.3943 30.7528 17.3975 30.7463 17.4017 30.7381C17.4101 30.7217 17.4223 30.6987 17.438 30.6713C17.4694 30.6169 17.5157 30.5436 17.5751 30.4697Z" fill="#047857"/>
<path fill-rule="evenodd" clip-rule="evenodd" d="M15.5853 18.4048C15.6503 18.4048 15.703 18.4575 15.703 18.5225V25.7335C15.703 25.7985 15.6503 25.8512 15.5853 25.8512C15.5203 25.8512 15.4676 25.7985 15.4676 25.7335V18.5225C15.4676 18.4575 15.5203 18.4048 15.5853 18.4048Z" fill="#047857"/>
<path fill-rule="evenodd" clip-rule="evenodd" d="M15.8612 23.3293C15.9262 23.3289 15.9793 23.3813 15.9797 23.4463L16.0043 27.0637C16.0048 27.1287 15.9524 27.1817 15.8874 27.1822C15.8224 27.1826 15.7693 27.1303 15.7689 27.0653L15.7443 23.4479C15.7438 23.3829 15.7962 23.3298 15.8612 23.3293Z" fill="#047857"/>
<path fill-rule="evenodd" clip-rule="evenodd" d="M15.5894 26.065C15.6544 26.0673 15.7053 26.1218 15.703 26.1868L15.7027 26.1946L15.702 26.2175C15.7014 26.2376 15.7005 26.2668 15.6996 26.3035C15.6976 26.3769 15.6953 26.4801 15.6938 26.5988C15.6907 26.8368 15.6908 27.1354 15.7029 27.383C15.7135 27.5994 15.8167 27.7767 15.9236 27.9037C15.9766 27.9667 16.029 28.0155 16.0679 28.0483C16.0873 28.0647 16.1032 28.077 16.1139 28.0849C16.1192 28.0889 16.1232 28.0917 16.1257 28.0935L16.1283 28.0953C16.1284 28.0953 16.1283 28.0953 16.1283 28.0953M16.1283 28.0953C16.1824 28.1314 16.1972 28.2046 16.1611 28.2587C16.1251 28.3128 16.052 28.3274 15.9979 28.2913L16.0631 28.1935C15.9979 28.2913 15.9979 28.2913 15.9979 28.2913L15.9975 28.2911L15.997 28.2907L15.9954 28.2896L15.9904 28.2862C15.9863 28.2833 15.9805 28.2792 15.9734 28.2739C15.9593 28.2633 15.9395 28.2481 15.9161 28.2283C15.8692 28.1888 15.8068 28.1306 15.7434 28.0553C15.6175 27.9056 15.4818 27.6806 15.4677 27.3945C15.4553 27.1396 15.4553 26.8352 15.4584 26.5958C15.4599 26.4758 15.4623 26.3716 15.4642 26.2974C15.4652 26.2603 15.466 26.2306 15.4667 26.2102L15.4674 26.1868L15.4677 26.1787C15.4699 26.1137 15.5245 26.0627 15.5894 26.065" fill="#047857"/>
<path fill-rule="evenodd" clip-rule="evenodd" d="M15.1329 17.9023C15.1979 17.9023 15.2506 17.9551 15.2506 18.0201V20.5324C15.2506 20.5974 15.1979 20.6501 15.1329 20.6501C15.0679 20.6501 15.0152 20.5974 15.0152 20.5324V18.0201C15.0152 17.9551 15.0679 17.9023 15.1329 17.9023Z" fill="#047857"/>
<path fill-rule="evenodd" clip-rule="evenodd" d="M14.4888 13.9249C14.5296 13.8743 14.6037 13.8664 14.6543 13.9072C14.7049 13.948 14.7128 14.0221 14.672 14.0727L14.5806 13.999C14.672 14.0727 14.672 14.0727 14.672 14.0727L14.6717 14.0731L14.6713 14.0737L14.6697 14.0755L14.6644 14.0819C14.6599 14.0873 14.6533 14.095 14.6448 14.1047C14.6278 14.124 14.6031 14.1512 14.5714 14.1838C14.508 14.2489 14.416 14.3361 14.3008 14.425C14.0725 14.6014 13.7427 14.7925 13.358 14.8199C12.9794 14.8468 12.6446 14.7386 12.4075 14.6265C12.2884 14.5702 12.1924 14.5123 12.1258 14.4682C12.0925 14.4461 12.0664 14.4273 12.0483 14.4139C12.0393 14.4072 12.0323 14.4018 12.0274 14.3979L12.0215 14.3933L12.0198 14.392L12.0193 14.3915L12.019 14.3913C12.019 14.3913 12.019 14.3912 12.0935 14.3001L12.019 14.3913C11.9687 14.3501 11.9613 14.2759 12.0024 14.2256C12.0436 14.1753 12.1177 14.1679 12.168 14.209L12.1687 14.2095L12.1725 14.2125C12.176 14.2152 12.1815 14.2195 12.189 14.2251C12.2039 14.2362 12.2264 14.2524 12.2559 14.2719C12.3149 14.311 12.401 14.3631 12.5081 14.4136C12.7231 14.5152 13.0164 14.6081 13.3413 14.585C13.6603 14.5623 13.9459 14.4016 14.1569 14.2387C14.2615 14.158 14.3452 14.0786 14.4027 14.0196C14.4313 13.9902 14.4533 13.9659 14.4679 13.9493C14.4752 13.941 14.4806 13.9346 14.4842 13.9305L14.4879 13.9259L14.4888 13.9249ZM12.168 14.209C12.168 14.209 12.168 14.209 12.168 14.209Z" fill="#047857"/>
<path fill-rule="evenodd" clip-rule="evenodd" d="M10.6221 15.2382C10.674 15.199 10.7478 15.2092 10.787 15.2611C11.1025 15.6783 11.2611 16.1931 11.2353 16.7153L11.281 18.5196C11.2827 18.5846 11.2313 18.6386 11.1663 18.6402C11.1013 18.6419 11.0473 18.5905 11.0456 18.5255L10.9998 16.7168C10.9997 16.7138 10.9998 16.7108 10.9999 16.7078C11.0241 16.2393 10.8822 15.7773 10.5992 15.4031C10.56 15.3512 10.5702 15.2774 10.6221 15.2382Z" fill="#047857"/>
<path fill-rule="evenodd" clip-rule="evenodd" d="M10.9261 29.0963C10.9261 29.0964 10.9261 29.0965 10.8138 29.1246L10.9261 29.0965C10.9419 29.1595 10.9036 29.2235 10.8406 29.2393C10.7785 29.2549 10.7156 29.218 10.6985 29.1567C10.6984 29.1565 10.6983 29.156 10.6981 29.1554C10.6971 29.1529 10.695 29.1482 10.6915 29.1424C10.6846 29.1309 10.6727 29.1163 10.6525 29.1047C10.6168 29.084 10.5157 29.052 10.2822 29.157C10.0467 29.2628 9.70559 29.511 9.39152 29.7687C9.07885 30.0251 8.80833 30.278 8.71446 30.3839C8.67131 30.4325 8.5969 30.4369 8.54826 30.3938C8.49963 30.3506 8.49518 30.2762 8.53833 30.2276C8.64476 30.1076 8.92678 29.8454 9.24219 29.5866C9.5562 29.3291 9.91868 29.0622 10.1857 28.9422C10.4546 28.8213 10.6425 28.8271 10.7702 28.9007C10.8317 28.9362 10.8701 28.9827 10.893 29.0207C10.9045 29.0396 10.9122 29.0567 10.9174 29.0698C10.9199 29.0763 10.9219 29.082 10.9233 29.0865C10.924 29.0888 10.9246 29.0907 10.925 29.0924L10.9257 29.0947L10.9259 29.0956L10.926 29.0961L10.9261 29.0963Z" fill="#047857"/>
<path d="M9.4726 9.52852C9.4726 9.52852 10.7737 10.6624 12.2735 9.39526Z" fill="#047857"/>
<path fill-rule="evenodd" clip-rule="evenodd" d="M12.3634 9.31909C12.4054 9.36876 12.3991 9.44303 12.3494 9.485C11.5684 10.1449 10.8288 10.1845 10.2827 10.0513C10.0123 9.9853 9.79191 9.87777 9.63913 9.78688C9.56261 9.74135 9.50262 9.69975 9.46134 9.66916C9.44068 9.65386 9.42467 9.64129 9.41358 9.63232C9.40803 9.62784 9.4037 9.62425 9.40063 9.62167L9.39698 9.61858L9.39587 9.61762L9.39549 9.6173L9.39535 9.61717C9.39529 9.61712 9.39524 9.61708 9.47152 9.52955L9.39524 9.61708C9.34622 9.57436 9.34112 9.49999 9.38383 9.45098C9.42651 9.40201 9.50077 9.39687 9.54978 9.43944L9.55009 9.4397L9.55209 9.4414C9.55404 9.44304 9.55721 9.44567 9.56155 9.44918C9.57025 9.4562 9.58365 9.46675 9.60151 9.47998C9.63724 9.50646 9.69062 9.54355 9.75951 9.58453C9.89756 9.66665 10.0962 9.7634 10.3385 9.82252C10.8179 9.93948 11.4788 9.91241 12.1975 9.30515C12.2472 9.26319 12.3214 9.26943 12.3634 9.31909Z" fill="#047857"/>
<path d="M7.57056 11.7302C7.57056 11.7302 8.13837 12.4312 8.87169 11.5969Z" fill="#047857"/>
<path fill-rule="evenodd" clip-rule="evenodd" d="M8.9494 11.5083C8.99824 11.5512 9.00303 11.6256 8.96011 11.6745C8.76655 11.8947 8.57679 12.0216 8.39591 12.0813C8.21394 12.1414 8.04921 12.1306 7.9119 12.0889C7.77615 12.0476 7.66886 11.9768 7.59638 11.9178C7.55988 11.888 7.53141 11.8607 7.51174 11.8403C7.50189 11.8301 7.49418 11.8216 7.48871 11.8154C7.48598 11.8123 7.4838 11.8098 7.48219 11.8078L7.4802 11.8055L7.47952 11.8046L7.47927 11.8043L7.47916 11.8042C7.47911 11.8041 7.47907 11.8041 7.57055 11.73L7.47907 11.8041C7.43814 11.7536 7.44593 11.6794 7.49645 11.6385C7.54686 11.5977 7.62076 11.6053 7.66175 11.6555L7.66221 11.6561L7.6655 11.6599C7.66871 11.6635 7.67391 11.6693 7.68102 11.6767C7.69526 11.6914 7.71689 11.7123 7.74507 11.7352C7.80198 11.7816 7.88247 11.8339 7.98034 11.8636C8.07665 11.8928 8.19137 11.9009 8.32212 11.8577C8.45395 11.8142 8.61015 11.716 8.78326 11.519C8.82618 11.4702 8.90057 11.4654 8.9494 11.5083Z" fill="#047857"/>
<path d="M6.9705 12.6978C6.9705 12.6978 7.30406 13.5652 6.23633 13.4616Z" fill="#047857"/>
<path fill-rule="evenodd" clip-rule="evenodd" d="M6.92824 12.5877C6.98893 12.5644 7.05704 12.5947 7.08038 12.6553L6.97049 12.6976C7.08038 12.6553 7.0804 12.6554 7.08042 12.6555L7.08048 12.6556L7.08061 12.6559L7.08096 12.6569L7.08199 12.6597C7.08283 12.662 7.08394 12.6651 7.08527 12.6689C7.08794 12.6767 7.09151 12.6875 7.09553 12.7009C7.10355 12.7277 7.11352 12.7655 7.12173 12.8103C7.13785 12.8984 7.1487 13.022 7.11814 13.1464C7.08665 13.2747 7.01089 13.4032 6.85913 13.4884C6.71147 13.5714 6.50504 13.6058 6.22496 13.5786C6.16025 13.5724 6.11287 13.5148 6.11915 13.4501C6.12543 13.3854 6.18297 13.338 6.24769 13.3443C6.50147 13.3689 6.65375 13.3337 6.74384 13.2831C6.82984 13.2349 6.87089 13.166 6.88948 13.0903C6.90899 13.0108 6.90319 12.9241 6.89013 12.8527C6.88375 12.8179 6.87601 12.7886 6.86996 12.7684C6.86694 12.7583 6.86439 12.7506 6.86269 12.7457L6.86084 12.7405L6.86061 12.7398C6.8606 12.7398 6.86059 12.7398 6.86057 12.7397M6.92824 12.5877C6.86759 12.611 6.83731 12.6791 6.86057 12.7397Z" fill="#047857"/>
<path d="M6.30334 14.3323C6.30334 14.3323 6.97046 14.502 6.70311 15.1335Z" fill="#047857"/>
<path fill-rule="evenodd" clip-rule="evenodd" d="M6.18927 14.3033C6.2053 14.2403 6.26938 14.2022 6.33239 14.2183L6.30336 14.3324C6.33239 14.2183 6.33245 14.2183 6.33251 14.2183L6.33264 14.2183L6.33296 14.2184L6.33377 14.2186L6.33611 14.2192L6.34356 14.2213C6.34971 14.2231 6.35818 14.2257 6.36855 14.2291C6.38926 14.236 6.41785 14.2464 6.45099 14.2611C6.51654 14.29 6.60368 14.3371 6.68274 14.4091C6.76242 14.4816 6.83629 14.5817 6.86797 14.7147C6.8998 14.8483 6.8862 15.0031 6.81153 15.1795C6.78618 15.2393 6.7171 15.2673 6.65723 15.242C6.59735 15.2166 6.56937 15.1475 6.59471 15.0877C6.65372 14.9483 6.657 14.8451 6.63893 14.7693C6.62073 14.6929 6.57794 14.6321 6.52426 14.5832C6.46997 14.5338 6.40704 14.499 6.35585 14.4764C6.33063 14.4653 6.30919 14.4575 6.29446 14.4526C6.28711 14.4502 6.28151 14.4485 6.27801 14.4475L6.27442 14.4465L6.27392 14.4463C6.27391 14.4463 6.27394 14.4463 6.27401 14.4464L6.27414 14.4464L6.27423 14.4464C6.21128 14.4303 6.17325 14.3663 6.18927 14.3033Z" fill="#047857"/>
<path d="M13.1426 10.1623C13.1426 10.1623 13.1426 10.4959 13.8097 10.4959C14.4768 10.4959 14.3105 9.76172 14.3105 9.76172" fill="#047857"/>
<path fill-rule="evenodd" clip-rule="evenodd" d="M14.2845 9.64698C14.3479 9.63261 14.411 9.67237 14.4253 9.73578L14.3105 9.76179C14.4253 9.73578 14.4253 9.73583 14.4253 9.73588L14.4254 9.73601L14.4254 9.7363L14.4256 9.7371L14.4261 9.73949L14.4277 9.74736C14.429 9.75393 14.4307 9.76312 14.4326 9.77455C14.4363 9.79737 14.4406 9.82941 14.4435 9.86769C14.4492 9.9433 14.4495 10.0478 14.4251 10.155C14.4006 10.2625 14.3496 10.3796 14.2472 10.4696C14.1434 10.561 13.9991 10.6137 13.8097 10.6137C13.458 10.6137 13.256 10.5257 13.1428 10.4124C13.0867 10.3564 13.0569 10.2983 13.0414 10.2518C13.0337 10.2287 13.0296 10.2087 13.0274 10.1934C13.0263 10.1857 13.0257 10.1792 13.0253 10.174C13.0252 10.1714 13.025 10.1691 13.025 10.1672L13.0249 10.1645L13.0249 10.1634L13.0249 10.1629L13.0249 10.1626C13.0249 10.1625 13.0249 10.1624 13.1401 10.1624H13.0249C13.0249 10.0974 13.0776 10.0447 13.1426 10.0447C13.2064 10.0447 13.2583 10.0954 13.2603 10.1587C13.2603 10.159 13.2604 10.1595 13.2605 10.1601C13.2609 10.163 13.262 10.1691 13.2647 10.1773C13.2701 10.1933 13.2819 10.2186 13.3093 10.2459C13.3628 10.2995 13.4943 10.3782 13.8097 10.3782C13.9539 10.3782 14.0391 10.3392 14.0917 10.2929C14.1457 10.2453 14.1782 10.1788 14.1955 10.1027C14.2129 10.0264 14.2133 9.94737 14.2087 9.88533C14.2064 9.85478 14.2029 9.82947 14.2001 9.81213C14.1987 9.80349 14.1975 9.7969 14.1967 9.79272L14.1958 9.78831L14.1957 9.78781C14.1957 9.78778 14.1957 9.78775 14.1957 9.78772M14.2845 9.64698C14.2211 9.66134 14.1814 9.72434 14.1957 9.78772Z" fill="#047857"/>
<path d="M16.4451 8.52856C16.4451 8.52856 16.3449 9.26273 17.1793 9.49614C18.0136 9.72955 18.5135 8.92833 18.5135 8.92833" fill="#047857"/>
<path fill-rule="evenodd" clip-rule="evenodd" d="M16.5617 8.54442C16.5617 8.54442 16.5617 8.54442 16.5617 8.54442L16.5617 8.54442L16.5618 8.54431L16.5618 8.54414L16.5618 8.544C16.5618 8.54399 16.5618 8.54415 16.5617 8.54448L16.5613 8.54835C16.561 8.5522 16.5604 8.55851 16.56 8.56698C16.5591 8.58395 16.5585 8.60942 16.5601 8.64107C16.5633 8.7047 16.5752 8.79135 16.6096 8.88379C16.6765 9.06323 16.8321 9.27683 17.211 9.38283C17.5823 9.48673 17.8787 9.36236 18.0888 9.20548C18.1943 9.12673 18.2764 9.04078 18.3321 8.97431C18.3599 8.9412 18.3808 8.91328 18.3945 8.89401C18.4014 8.88438 18.4065 8.87694 18.4097 8.87214L18.4131 8.86696L18.4136 8.86607L18.4137 8.866C18.4481 8.8109 18.5207 8.79411 18.5758 8.82851C18.631 8.86293 18.6478 8.93555 18.6134 8.99071L18.5135 8.92839C18.6134 8.99071 18.6133 8.99076 18.6133 8.9908L18.6132 8.99092L18.6131 8.9912L18.6126 8.99198L18.611 8.99441L18.6057 9.00253C18.6012 9.00934 18.5947 9.01889 18.5862 9.03072C18.5694 9.05435 18.5447 9.0872 18.5126 9.12556C18.4485 9.20203 18.3534 9.30179 18.2297 9.39417C17.9813 9.57954 17.6105 9.73909 17.1475 9.60958C16.6921 9.48217 16.4806 9.21198 16.389 8.96599C16.3442 8.84571 16.329 8.73423 16.3249 8.65291C16.3228 8.61209 16.3236 8.57837 16.3249 8.55428C16.3255 8.54222 16.3263 8.53253 16.327 8.52551C16.3273 8.52199 16.3277 8.51915 16.3279 8.51701L16.3282 8.51432L16.3284 8.51338L16.3284 8.51301L16.3284 8.51286C16.3284 8.51279 16.3284 8.51272 16.4448 8.52859L16.3284 8.51272C16.3372 8.44829 16.3966 8.4032 16.461 8.41198C16.5254 8.42077 16.5705 8.48004 16.5617 8.54442C16.5617 8.54442 16.5617 8.54442 16.5617 8.54442Z" fill="#047857"/>
<path d="M18.4167 12.4973C18.4167 12.4973 17.983 12.8648 18.3166 13.2985C18.6501 13.7322 19.0499 13.565 19.0499 13.565" fill="#047857"/>
<path fill-rule="evenodd" clip-rule="evenodd" d="M18.4932 12.5869C18.4931 12.5869 18.4931 12.587 18.493 12.5871L18.4909 12.5889C18.4888 12.5908 18.4853 12.594 18.4808 12.5984C18.4718 12.6072 18.4586 12.6207 18.4435 12.6383C18.4129 12.6739 18.3761 12.7241 18.3487 12.7842C18.2962 12.899 18.2749 13.0513 18.4099 13.2268C18.5557 13.4164 18.7084 13.4675 18.8186 13.4772C18.8757 13.4822 18.9244 13.4763 18.9582 13.4692C18.9751 13.4657 18.988 13.462 18.996 13.4594C19.0001 13.4581 19.0029 13.4571 19.0043 13.4565L19.0054 13.4561C19.0652 13.4317 19.1336 13.46 19.1585 13.5197C19.1836 13.5797 19.1553 13.6486 19.0953 13.6737L19.0499 13.5651C19.0953 13.6737 19.0953 13.6737 19.0952 13.6738L19.0951 13.6738L19.0948 13.674L19.094 13.6743L19.0921 13.675L19.0864 13.6772C19.0818 13.6789 19.0757 13.6811 19.0681 13.6835C19.053 13.6884 19.0321 13.6943 19.0063 13.6997C18.9548 13.7104 18.8826 13.7192 18.7981 13.7118C18.6251 13.6966 18.411 13.6145 18.2233 13.3704C18.0247 13.1122 18.0535 12.8638 18.1345 12.6864C18.1738 12.6005 18.2246 12.5317 18.2649 12.4848C18.2852 12.4612 18.3033 12.4426 18.3167 12.4296C18.3234 12.4231 18.3289 12.418 18.333 12.4143L18.338 12.4098L18.3396 12.4084L18.3402 12.4079L18.3405 12.4077L18.3406 12.4076C18.3406 12.4076 18.3406 12.4075 18.4168 12.4974L18.3406 12.4075C18.3902 12.3655 18.4645 12.3717 18.5066 12.4213" fill="#047857"/>
<path d="M19.3504 14.8C19.3504 14.8 18.8191 14.3128 18.3828 14.9698C17.9465 15.6267 18.7503 16.1046 18.7503 16.1046" fill="#047857"/>
<path fill-rule="evenodd" clip-rule="evenodd" d="M19.4298 14.7132C19.4299 14.7133 19.4299 14.7133 19.3531 14.7971L19.4299 14.7133C19.4778 14.7572 19.4811 14.8317 19.4371 14.8796C19.3933 14.9274 19.3191 14.9308 19.2711 14.8871C19.271 14.887 19.2709 14.8869 19.2708 14.8868L19.3503 14.8002C19.2708 14.8868 19.2708 14.8869 19.2709 14.8869L19.271 14.887L19.2711 14.8871L19.2708 14.8868L19.2679 14.8844C19.2651 14.8819 19.2604 14.8781 19.2541 14.8731C19.2415 14.8632 19.2224 14.8492 19.1981 14.834C19.1489 14.8033 19.0818 14.7699 19.0058 14.7538C18.931 14.7379 18.8487 14.7389 18.7636 14.7747C18.6782 14.8106 18.58 14.8856 18.4809 15.0349C18.3857 15.1782 18.3623 15.3043 18.3733 15.4123C18.3846 15.5228 18.433 15.6247 18.4982 15.7144C18.5633 15.804 18.6418 15.8769 18.7053 15.9279C18.7367 15.9532 18.7638 15.9725 18.7828 15.9854C18.7922 15.9918 18.7996 15.9966 18.8044 15.9996L18.8095 16.0028L18.8105 16.0034L18.8105 16.0035C18.8664 16.0367 18.8847 16.1089 18.8515 16.1648C18.8183 16.2206 18.746 16.239 18.6901 16.2058L18.7503 16.1046C18.6901 16.2058 18.6901 16.2058 18.69 16.2057L18.6899 16.2057L18.6897 16.2055L18.6889 16.205L18.6865 16.2036L18.6784 16.1985C18.6716 16.1942 18.6621 16.1881 18.6505 16.1802C18.6271 16.1643 18.5949 16.1412 18.5578 16.1114C18.4842 16.0523 18.389 15.9647 18.3077 15.8527C18.2264 15.7409 18.1558 15.6002 18.139 15.4362C18.1221 15.2699 18.1617 15.0899 18.2847 14.9047C18.4037 14.7255 18.5355 14.6152 18.6724 14.5576C18.8096 14.5 18.942 14.4996 19.0546 14.5234C19.1659 14.547 19.2589 14.5944 19.3229 14.6344C19.3553 14.6546 19.3811 14.6735 19.3992 14.6877C19.4083 14.6948 19.4155 14.7008 19.4207 14.7052L19.4269 14.7105L19.4288 14.7123L19.4295 14.7129L19.4297 14.7131L19.4298 14.7132Z" fill="#047857"/>
<path opacity="0.1" d="M9.4726 9.52852C9.4726 9.52852 10.7737 10.6624 12.2735 9.39526Z" fill="#047857"/>
<path opacity="0.1" d="M7.57056 11.7302C7.57056 11.7302 8.13837 12.4312 8.87169 11.5969Z" fill="#047857"/>
<path opacity="0.1" d="M6.9705 12.6978C6.9705 12.6978 7.30406 13.5652 6.23633 13.4616Z" fill="#047857"/>
<path opacity="0.1" d="M6.30334 14.3323C6.30334 14.3323 6.97046 14.502 6.70311 15.1335Z" fill="#047857"/>
<path opacity="0.1" d="M13.1426 10.1623C13.1426 10.1623 13.1426 10.4959 13.8097 10.4959C14.4768 10.4959 14.3105 9.76172 14.3105 9.76172" fill="#047857"/>
<path opacity="0.1" d="M16.4451 8.52856C16.4451 8.52856 16.3449 9.26273 17.1793 9.49614C18.0136 9.72955 18.5135 8.92833 18.5135 8.92833" fill="#047857"/>
<path opacity="0.1" d="M18.4167 12.4973C18.4167 12.4973 17.983 12.8648 18.3166 13.2985C18.6501 13.7322 19.0499 13.565 19.0499 13.565" fill="#047857"/>
<path opacity="0.1" d="M19.3504 14.8C19.3504 14.8 18.8191 14.3128 18.3828 14.9698C17.9465 15.6267 18.7503 16.1046 18.7503 16.1046" fill="#047857"/>
<path d="M19.6514 11.4904C19.6514 14.9953 16.8101 17.8366 13.3053 17.8366M19.6514 11.4904C19.6514 7.98556 16.8101 5.14429 13.3053 5.14429M19.6514 11.4904H6.95911M13.3053 17.8366C9.80038 17.8366 6.95911 14.9953 6.95911 11.4904M13.3053 17.8366C14.4736 17.8366 15.4206 14.9953 15.4206 11.4904C15.4206 7.98556 14.4736 5.14429 13.3053 5.14429M13.3053 17.8366C12.137 17.8366 11.1899 14.9953 11.1899 11.4904C11.1899 7.98556 12.137 5.14429 13.3053 5.14429M6.95911 11.4904C6.95911 7.98556 9.80038 5.14429 13.3053 5.14429" stroke="#FAFAFA" stroke-linecap="round" stroke-linejoin="round"/>
</svg>
