<svg width="33" height="34" viewBox="0 0 33 34" fill="none" xmlns="http://www.w3.org/2000/svg">
<path d="M28.7508 14.0337C29.1998 13.9896 29.5291 13.5983 29.5291 13.5983C29.5291 13.5983 29.1302 13.2783 28.6803 13.3224C28.6257 13.3276 28.5717 13.3381 28.5191 13.3538C28.5974 13.2261 28.6391 13.0793 28.6396 12.9295C28.5521 12.9367 28.4662 12.9573 28.385 12.9906C28.5242 11.7522 28.0845 10.4952 27.0711 9.42582C27.1112 9.43323 27.1518 9.43805 27.1925 9.44025C27.661 9.46062 28.0565 9.10584 28.0565 9.10584C28.0565 9.10584 27.717 8.74682 27.2731 8.70268C27.3747 8.64585 27.47 8.57843 27.5575 8.50153C28.1609 7.96427 28.2246 7.05016 28.2246 7.05016C28.2246 7.05016 27.3096 7.00772 26.7062 7.54498C26.633 7.61063 26.5657 7.68248 26.505 7.75972C26.4836 7.49182 26.3891 7.23494 26.2317 7.01706C26.1798 7.06148 26.1313 7.10971 26.0866 7.16135C25.4763 5.17018 23.6388 3.80793 21.1944 3.58641C21.2442 3.51161 21.2857 3.43164 21.3183 3.34791C21.3183 3.34791 20.9279 3.2189 20.585 3.36403C20.6372 3.28204 20.6804 3.19469 20.714 3.10347C20.9423 2.47115 20.6291 1.77856 20.6291 1.77856C20.6291 1.77856 19.9433 2.10958 19.715 2.74105C19.6876 2.81807 19.6669 2.89729 19.653 2.97785C19.5315 2.79031 19.3606 2.63994 19.1591 2.54329C19.1223 2.63976 19.0975 2.74038 19.0852 2.8429C18.0144 2.17752 16.7658 1.85533 15.5067 1.9195C14.2476 1.98367 13.0382 2.43113 12.0406 3.20192C12.0391 3.01574 11.9972 2.8321 11.9175 2.66381C11.9175 2.66381 11.5559 2.86242 11.4295 3.21126C11.4048 3.11739 11.3704 3.02636 11.3268 2.93966C11.0195 2.34553 10.2981 2.10024 10.2981 2.10024C10.2981 2.10024 10.0723 2.82762 10.383 3.42514C10.4201 3.49775 10.4639 3.56679 10.5137 3.63139C10.2937 3.59298 10.0673 3.61558 9.85928 3.69674C9.88604 3.75237 9.91726 3.80573 9.95264 3.85631C7.78408 4.24249 6.19861 5.54363 5.65202 7.34722C5.58123 7.28959 5.50538 7.23845 5.4254 7.19445C5.4254 7.19445 5.21236 7.64004 5.33119 8.07036C5.24167 7.99584 5.14435 7.93125 5.04092 7.87769C4.32287 7.50764 3.44696 7.77754 3.44696 7.77754C3.44696 7.77754 3.73639 8.64666 4.45528 9.01587C4.54286 9.06083 4.63433 9.09775 4.72858 9.12621C4.48638 9.24237 4.28083 9.42296 4.13445 9.64819C4.33025 9.75303 4.54669 9.81358 4.76847 9.82558C2.88254 11.9738 3.19064 14.7416 5.65541 16.6411C5.65541 16.8108 5.65541 16.9712 5.67239 17.1325C5.46647 17.1137 5.25889 17.1368 5.06214 17.2004C5.06214 17.2004 5.23952 17.6613 5.63504 17.8684C5.51941 17.8835 5.40564 17.9105 5.29554 17.949C4.53167 18.2189 4.13105 19.0405 4.13105 19.0405C4.13105 19.0405 4.96198 19.425 5.72331 19.1551C5.81602 19.1223 5.90552 19.0811 5.99067 19.032C5.96149 19.1115 5.94155 19.1941 5.93126 19.2781C5.93079 19.2875 5.93079 19.2968 5.93126 19.3061C5.91451 19.4792 5.92656 19.6539 5.9669 19.823C6.16143 19.7573 6.3409 19.6534 6.49483 19.5175H6.50926C6.52284 19.537 6.53727 19.5557 6.55169 19.5743C6.50168 19.6197 6.45515 19.6688 6.4125 19.7212C5.99322 20.2466 6.06875 21.0036 6.06875 21.0036C6.06875 21.0036 6.8182 20.9094 7.24258 20.3832L7.25955 20.3594C7.37244 20.4596 7.48278 20.5411 7.60584 20.6319C7.65932 20.676 7.69072 20.7049 7.72382 20.7261C8.80853 21.49 10.2539 21.8923 11.9065 21.8083C14.4578 24.0744 18.1159 24.0006 20.5442 21.6343C22.0584 21.6504 23.379 21.2642 24.3916 20.5827C24.4562 20.7175 24.5566 20.832 24.6819 20.9137C24.7628 20.7659 24.7944 20.596 24.7718 20.429C24.8185 20.4747 24.87 20.5151 24.9255 20.5496C25.3091 20.7864 25.8082 20.6735 25.8082 20.6735C25.8082 20.6735 25.6843 20.1778 25.2989 19.941C25.2714 19.9243 25.2431 19.909 25.214 19.8952C25.2497 19.8578 25.2845 19.8205 25.3184 19.7831C25.3899 19.7326 25.4534 19.6717 25.5069 19.6024L25.4848 19.5888C26.213 18.6857 26.5941 17.5255 26.5092 16.2184C27.2731 15.5759 27.7993 14.8527 28.104 14.0965C28.143 14.1897 28.2038 14.2721 28.2814 14.3367C28.4275 14.4371 28.6038 14.4842 28.7805 14.4699C28.7555 14.3035 28.6779 14.1494 28.559 14.0303C28.6226 14.038 28.6869 14.0391 28.7508 14.0337Z" fill="#047857"/>
<path fill-rule="evenodd" clip-rule="evenodd" d="M20.7721 1.71391L20.6291 1.77858L20.5609 1.63722L20.7058 1.56726L20.7721 1.71391ZM20.8672 3.14113C20.9885 2.79252 20.963 2.43609 20.9112 2.17353C20.8846 2.039 20.8505 1.92563 20.8229 1.84551C20.809 1.80538 20.7967 1.77337 20.7877 1.75098C20.7832 1.73978 20.7795 1.73096 20.7769 1.72473L20.7736 1.71732L20.7727 1.71511L20.7723 1.71438L20.7721 1.71391C20.7721 1.71386 20.7721 1.71391 20.6291 1.77858C20.5609 1.63722 20.5609 1.6372 20.5609 1.63722L20.5604 1.63745L20.5597 1.6378L20.5575 1.63887L20.5503 1.64249C20.5442 1.64557 20.5357 1.64996 20.5251 1.65567C20.5038 1.66709 20.4738 1.68379 20.4373 1.70573C20.3647 1.74953 20.2657 1.81469 20.159 1.90096C19.9557 2.06534 19.7142 2.31455 19.5824 2.64788C19.4782 2.54802 19.3583 2.46479 19.2269 2.40178L19.0732 2.32803L19.0124 2.48736C18.9989 2.52277 18.9868 2.55869 18.9762 2.59501C17.9223 1.99052 16.7152 1.70075 15.4987 1.76275C14.2996 1.82386 13.1445 2.22401 12.1664 2.91394C12.1433 2.8047 12.1074 2.6982 12.0594 2.59668L11.9873 2.44445L11.8406 2.52702C11.8137 2.54199 11.7214 2.59738 11.6173 2.68879C11.5668 2.73315 11.5113 2.78792 11.4584 2.85277C11.2859 2.52844 11.0074 2.30474 10.7799 2.16375C10.6633 2.09147 10.557 2.03903 10.4795 2.00449C10.4407 1.98719 10.4089 1.97429 10.3863 1.96557C10.3751 1.96121 10.3661 1.95789 10.3597 1.95558L10.3521 1.95287L10.3499 1.95207L10.3491 1.95181L10.3487 1.95168C10.3487 1.95166 10.3486 1.95165 10.2981 2.10026L10.3487 1.95168L10.196 1.89975L10.1482 2.05373L10.2981 2.10026C10.1482 2.05373 10.1482 2.05368 10.1482 2.05373L10.148 2.05423L10.1478 2.05499L10.1471 2.05732L10.1448 2.0651C10.1429 2.07163 10.1403 2.08086 10.1372 2.09256C10.1311 2.11595 10.1228 2.14931 10.1141 2.19093C10.0966 2.27401 10.0768 2.39093 10.0674 2.52789C10.0495 2.78866 10.0682 3.13499 10.2241 3.45851C10.0802 3.4668 9.93778 3.49765 9.80224 3.55053L9.64437 3.61211L9.70777 3.74389C7.68267 4.1682 6.16935 5.39468 5.56906 7.09646C5.54672 7.08276 5.52405 7.06958 5.50107 7.05694L5.42195 7.19281C5.28379 7.12676 5.28377 7.12681 5.28375 7.12685L5.2836 7.12717L5.28332 7.12775L5.28255 7.1294L5.28015 7.13462C5.27818 7.13895 5.2755 7.14495 5.27225 7.15252C5.26576 7.16764 5.25695 7.18907 5.24693 7.21589C5.22695 7.26939 5.20187 7.34509 5.18085 7.43551C5.1598 7.52604 5.14209 7.63441 5.13875 7.75187C5.13024 7.74729 5.12168 7.74277 5.11309 7.73832C4.71846 7.53494 4.28721 7.51005 3.96391 7.53227C3.80094 7.54347 3.66175 7.56685 3.56291 7.58753C3.51341 7.59788 3.47381 7.6076 3.44614 7.61486C3.4323 7.6185 3.42143 7.62152 3.41378 7.62371L3.40476 7.62634L3.40211 7.62713L3.40096 7.62748C3.40091 7.6275 3.40074 7.62755 3.44695 7.77752L3.40096 7.62748L3.24731 7.67483L3.29804 7.82715L3.44695 7.77752C3.29803 7.82711 3.29802 7.8271 3.29804 7.82715L3.29821 7.82767L3.2985 7.82851L3.29939 7.83112L3.30249 7.83999C3.30516 7.84749 3.30902 7.85808 3.3141 7.87145C3.32427 7.89818 3.33938 7.93604 3.35973 7.98231C3.40036 8.07471 3.46225 8.20151 3.54788 8.34058C3.71756 8.61612 3.98785 8.9518 4.38212 9.15477C4.23374 9.26734 4.10522 9.40514 4.00284 9.56267L3.90973 9.70594L4.06036 9.78659C4.18925 9.8556 4.32624 9.90722 4.46775 9.94045C3.63028 10.9917 3.27923 12.1797 3.42467 13.346C3.57762 14.5726 4.27712 15.7558 5.49851 16.7178C5.49869 16.8015 5.49953 16.8853 5.50325 16.9695C5.33733 16.9724 5.17241 16.9998 5.01387 17.051L5.06214 17.2004L4.90986 17.2385L4.95059 17.4014L4.97931 17.3921C5.00259 17.436 5.03256 17.488 5.06955 17.5436C5.12107 17.6211 5.18795 17.7084 5.27146 17.7914C5.26221 17.7945 5.25298 17.7976 5.24377 17.8008L5.24325 17.801C4.82357 17.9493 4.51036 18.246 4.30536 18.4966C4.20204 18.6229 4.12398 18.7402 4.07154 18.8262C4.04528 18.8694 4.02532 18.9048 4.01173 18.9299C4.00493 18.9425 3.99971 18.9525 3.99608 18.9596L3.99183 18.9679L3.9906 18.9704L3.99021 18.9712L3.99007 18.9715C3.99005 18.9715 3.98997 18.9717 4.13106 19.0405L3.99007 18.9715L3.91977 19.1157L4.06514 19.183L4.13106 19.0405C4.06514 19.183 4.06509 19.1829 4.06514 19.183L4.06564 19.1832L4.06644 19.1835L4.06896 19.1847L4.07754 19.1885C4.08482 19.1917 4.09518 19.1961 4.10839 19.2016C4.13481 19.2125 4.17272 19.2274 4.22035 19.2443C4.31544 19.278 4.45013 19.3198 4.61003 19.3527C4.92674 19.418 5.35609 19.4512 5.77385 19.3037C5.75722 19.4899 5.77084 19.6776 5.81423 19.8595L5.85416 20.0269L6.01719 19.9717C6.04299 19.963 6.06855 19.9537 6.09386 19.9438C5.99831 20.1513 5.95094 20.3629 5.92777 20.539C5.90989 20.675 5.90598 20.7934 5.90654 20.8782C5.90683 20.9207 5.90824 20.955 5.90962 20.9791C5.91032 20.9912 5.911 21.0007 5.91154 21.0075L5.91222 21.0155L5.91244 21.0179L5.91252 21.0187L5.91256 21.0191C5.91256 21.0192 5.91257 21.0192 6.06876 21.0037L5.91256 21.0191L5.92856 21.1795L6.08834 21.1594L6.06876 21.0037C6.08834 21.1594 6.08828 21.1594 6.08834 21.1594L6.08885 21.1593L6.08965 21.1592L6.09204 21.1589L6.10001 21.1578C6.1067 21.1568 6.1161 21.1554 6.12795 21.1534C6.15164 21.1494 6.1852 21.1431 6.22648 21.134C6.30888 21.1157 6.42294 21.0856 6.5512 21.0379C6.77556 20.9545 7.05312 20.8139 7.27801 20.5801C7.35411 20.6412 7.4303 20.6974 7.50916 20.7556C7.51819 20.7631 7.52728 20.7708 7.53639 20.7785C7.56963 20.8065 7.60324 20.8348 7.63592 20.8562C8.73892 21.632 10.1959 22.0401 11.8504 21.9681C14.4441 24.2306 18.1346 24.1572 20.6072 21.7917C22.0549 21.7964 23.3334 21.4386 24.341 20.803C24.4104 20.8982 24.4967 20.9804 24.5962 21.0452L24.7381 21.1377L24.8196 20.9891C24.8652 20.9057 24.8978 20.8165 24.9166 20.7245C25.1226 20.8294 25.3422 20.856 25.5094 20.8573C25.6044 20.8581 25.6861 20.8507 25.7445 20.8431C25.7738 20.8393 25.7974 20.8354 25.8141 20.8323C25.8225 20.8308 25.8292 20.8295 25.834 20.8285L25.8399 20.8272L25.8417 20.8268L25.8423 20.8267L25.8427 20.8266C25.8428 20.8266 25.8428 20.8266 25.8082 20.6735L25.8427 20.8266L25.9994 20.7912L25.9605 20.6354L25.8082 20.6735C25.9605 20.6354 25.9605 20.6355 25.9605 20.6354L25.9603 20.635L25.9597 20.6325L25.9582 20.6267C25.9569 20.622 25.955 20.6154 25.9526 20.6073C25.9478 20.5909 25.9407 20.5681 25.9309 20.5403C25.9114 20.4848 25.8811 20.4086 25.8376 20.3241C25.7632 20.1798 25.6452 20.0022 25.4676 19.8667C25.5283 19.817 25.5832 19.7605 25.6312 19.6982L25.7377 19.5601L25.7161 19.5468C26.3843 18.6525 26.7343 17.534 26.6705 16.2873C27.3335 15.7168 27.8194 15.083 28.1353 14.4162C28.15 14.4305 28.1652 14.4442 28.181 14.4573L28.1866 14.462L28.1925 14.4661C28.3683 14.5869 28.5804 14.6436 28.7931 14.6264L28.9607 14.6129L28.9357 14.4466C28.9216 14.3527 28.8935 14.2621 28.8529 14.1776C29.079 14.1359 29.2688 14.0248 29.4022 13.9252C29.4783 13.8684 29.539 13.8132 29.5809 13.7719C29.6019 13.7512 29.6183 13.7338 29.6298 13.7212C29.6356 13.715 29.6401 13.7099 29.6433 13.7062L29.6472 13.7017L29.6485 13.7002L29.6489 13.6997L29.6491 13.6995C29.6492 13.6994 29.6492 13.6994 29.5291 13.5983L29.6491 13.6995L29.7527 13.5764L29.6273 13.4759L29.5291 13.5983C29.6273 13.4759 29.6274 13.4759 29.6273 13.4759L29.627 13.4756L29.6264 13.4751L29.625 13.474L29.6202 13.4703C29.6163 13.4673 29.6109 13.4632 29.604 13.4582C29.5903 13.4481 29.5708 13.4342 29.5462 13.418C29.4971 13.3856 29.4268 13.3431 29.3411 13.3022C29.1941 13.232 28.992 13.1616 28.7679 13.1613C28.7866 13.086 28.7963 13.0083 28.7966 12.93L28.7972 12.7589L28.6267 12.773C28.6044 12.7749 28.5823 12.7775 28.5603 12.7808C28.6241 11.6678 28.2392 10.5556 27.4208 9.58181C27.5988 9.5516 27.7558 9.48394 27.8755 9.4184C27.9618 9.37118 28.032 9.32333 28.0809 9.28703C28.1055 9.26884 28.1248 9.25341 28.1384 9.24222C28.1452 9.23663 28.1506 9.23208 28.1544 9.22877L28.159 9.22475L28.1605 9.22347L28.161 9.22302L28.1613 9.22277C28.1613 9.22274 28.1613 9.2227 28.0565 9.10586L28.1613 9.22277L28.2813 9.1151L28.1706 8.99801L28.0565 9.10586C28.1706 8.99801 28.1706 8.99804 28.1706 8.99801L28.1703 8.99768L28.1698 8.99722L28.1686 8.99591L28.1646 8.99179C28.1612 8.9884 28.1566 8.98374 28.1507 8.97799C28.1389 8.9665 28.1221 8.95057 28.1006 8.93159C28.0579 8.89371 27.9963 8.84309 27.9194 8.79095C27.8426 8.7388 27.7479 8.68333 27.6397 8.63796C27.6469 8.63183 27.654 8.62564 27.6611 8.6194L27.6618 8.61878C27.9934 8.32355 28.1716 7.93034 28.2673 7.62072C28.3155 7.46465 28.3438 7.32638 28.3601 7.22675C28.3683 7.17685 28.3735 7.13641 28.3767 7.10799C28.3782 7.09378 28.3793 7.08255 28.3801 7.07463L28.3808 7.06526L28.3811 7.06251L28.3811 7.06163L28.3811 7.06131C28.3812 7.06126 28.3812 7.06108 28.2246 7.05018L28.3811 7.06131L28.3923 6.90082L28.2318 6.89338L28.2246 7.05018C28.2318 6.89338 28.2319 6.89338 28.2318 6.89338L28.2304 6.89332L28.2277 6.89321L28.2183 6.89292C28.2103 6.89271 28.199 6.8925 28.1847 6.89244C28.1562 6.89232 28.1154 6.8928 28.0649 6.89514C27.9641 6.89982 27.8235 6.91195 27.663 6.9418C27.3449 7.00093 26.9344 7.13221 26.6031 7.42662C26.5514 7.24743 26.4691 7.07767 26.359 6.92518L26.2592 6.78699L26.1562 6.87509C25.477 5.00761 23.7263 3.73354 21.4439 3.4551C21.4511 3.43849 21.458 3.42173 21.4646 3.40484L21.5273 3.24365L21.3608 3.19682C21.3668 3.19852 21.1422 3.12283 20.8672 3.14113ZM21.0885 3.46044C20.9648 3.44523 20.7981 3.4443 20.6461 3.5086L20.1817 3.70521L20.4526 3.27974C20.4986 3.20737 20.5368 3.13028 20.5665 3.04977C20.667 2.77113 20.6501 2.47206 20.6032 2.2343C20.586 2.14731 20.5652 2.07035 20.5458 2.00805C20.4909 2.04348 20.4254 2.08925 20.3563 2.14509C20.1678 2.29753 19.9633 2.51614 19.8627 2.79407C19.8384 2.86252 19.82 2.93292 19.8077 3.00449L19.7396 3.40012L19.5213 3.06324C19.45 2.95314 19.3591 2.85775 19.2536 2.78149C19.2485 2.80799 19.2443 2.83468 19.2411 2.86153L19.2118 3.1064L19.0024 2.97624C17.9587 2.32775 16.7418 2.01374 15.5147 2.07628C14.2876 2.13882 13.1089 2.57492 12.1365 3.32615L11.886 3.5197L11.8836 3.20314C11.8829 3.10355 11.8689 3.0048 11.8422 2.90942C11.8364 2.91434 11.8305 2.91943 11.8245 2.92469C11.7286 3.00887 11.6278 3.12488 11.577 3.26477L11.4055 3.73784L11.2777 3.25117C11.2559 3.16818 11.2255 3.08769 11.187 3.01102C11.0515 2.74962 10.8209 2.55852 10.6145 2.43059C10.5389 2.38372 10.4682 2.34634 10.4092 2.3179C10.3977 2.38212 10.3867 2.46103 10.3806 2.54939C10.364 2.79116 10.3855 3.08971 10.5222 3.35275L10.5227 3.35365C10.5555 3.4177 10.5941 3.47859 10.638 3.53557L10.8846 3.85552L10.4867 3.78603C10.3574 3.76346 10.2256 3.76506 10.0979 3.79017L10.2222 3.96777L9.98017 4.01086C7.85898 4.38861 6.32875 5.65546 5.80224 7.39277L5.73438 7.61671L5.55292 7.46897C5.53752 7.45643 5.52185 7.44423 5.50592 7.43238C5.4993 7.45541 5.49276 7.48025 5.48663 7.5066C5.45133 7.65843 5.43276 7.84845 5.4825 8.0286L5.61587 8.51159L5.23077 8.19102C5.15 8.12378 5.06218 8.06549 4.96886 8.01716C4.64548 7.85056 4.27956 7.82525 3.98544 7.84546C3.85771 7.85424 3.74618 7.87142 3.66144 7.8879C3.69728 7.96638 3.74811 8.06702 3.8152 8.17597C3.96974 8.42694 4.20315 8.70993 4.52696 8.87624C4.60611 8.91687 4.68878 8.95024 4.77395 8.97596L5.16113 9.09285L4.79646 9.26776C4.63616 9.34464 4.49385 9.45313 4.37771 9.58604C4.50554 9.63344 4.64011 9.66146 4.77695 9.66886L5.09963 9.68631L4.88643 9.92916C3.96923 10.9739 3.59304 12.1592 3.73619 13.3072C3.87947 14.4561 4.54563 15.5876 5.75123 16.5167L5.81239 16.5639V16.6411C5.81239 16.8123 5.81253 16.9644 5.8285 17.1161L5.84851 17.3062L5.65814 17.2888C5.53504 17.2776 5.41129 17.283 5.29018 17.3048C5.3024 17.3254 5.316 17.3473 5.331 17.3698C5.41712 17.4994 5.54253 17.6427 5.70786 17.7293L6.14759 17.9596L5.65543 18.024C5.55058 18.0377 5.44742 18.0622 5.34759 18.0971C5.00351 18.2187 4.73457 18.4677 4.54834 18.6954C4.4675 18.7942 4.4039 18.8869 4.35808 18.9598C4.43979 18.9875 4.54797 19.0194 4.67335 19.0453C4.96195 19.1047 5.3279 19.1287 5.67087 19.0071C5.75449 18.9776 5.83541 18.9404 5.91221 18.8961L6.28727 18.6796L6.13803 19.0861C6.11375 19.1522 6.09694 19.2208 6.08789 19.2907C6.08786 19.2932 6.08791 19.2958 6.08803 19.2983L6.08861 19.3098L6.0875 19.3213C6.07842 19.4152 6.07875 19.5096 6.08839 19.6031C6.1975 19.5491 6.29926 19.4808 6.39094 19.3998L6.43546 19.3605H6.59128L6.63812 19.4279C6.64908 19.4436 6.66109 19.4592 6.67591 19.4784L6.76459 19.5931L6.65718 19.6906C6.61319 19.7305 6.57225 19.7737 6.53471 19.8197C6.3503 20.0511 6.27062 20.3397 6.23903 20.5799C6.22747 20.6678 6.22259 20.7473 6.22103 20.8126C6.28373 20.7966 6.35947 20.7743 6.44186 20.7436C6.66733 20.6599 6.93021 20.5187 7.11761 20.2881L7.23323 20.1263L7.36373 20.242C7.47054 20.3368 7.57532 20.4143 7.69905 20.5056L7.70248 20.5081L7.70577 20.5108C7.72612 20.5276 7.74171 20.5408 7.75424 20.5513C7.78043 20.5734 7.79331 20.5842 7.80854 20.594L7.81141 20.5958L7.8142 20.5978C8.86612 21.3386 10.2757 21.734 11.8985 21.6515L11.9627 21.6482L12.0107 21.6909C14.5012 23.903 18.0659 23.8302 20.4347 21.5219L20.4811 21.4766L20.5459 21.4773C22.0327 21.4932 23.3212 21.1139 24.304 20.4525L24.4547 20.351L24.5332 20.5149C24.5549 20.5603 24.5817 20.6028 24.6128 20.6417C24.6236 20.5788 24.6249 20.5141 24.6163 20.45L24.5554 19.998L24.8816 20.3168C24.9201 20.3545 24.9626 20.3878 25.0084 20.4163C25.166 20.5134 25.354 20.5421 25.5119 20.5434C25.5409 20.5436 25.5683 20.5429 25.5938 20.5416C25.5835 20.5184 25.5718 20.4936 25.5585 20.468C25.4862 20.3276 25.3755 20.1724 25.217 20.0749C25.1942 20.0611 25.1707 20.0484 25.1466 20.0369L24.9507 19.9438L25.1005 19.7868C25.1353 19.7504 25.1692 19.7139 25.2023 19.6776L25.2138 19.6649L25.2278 19.655C25.2378 19.6479 25.2476 19.6406 25.2572 19.6331L25.2507 19.6291L25.3626 19.4903C26.0653 18.6189 26.435 17.4977 26.3526 16.2286L26.3475 16.1494L26.4082 16.0983C27.1547 15.4704 27.6644 14.7677 27.9585 14.0379L28.1014 13.6831L28.1603 13.8239L28.5779 13.8745C28.6305 13.8809 28.6836 13.8818 28.7364 13.8774C28.9208 13.859 29.0879 13.7681 29.2144 13.6737C29.2376 13.6564 29.259 13.6393 29.2785 13.6229C29.2562 13.6106 29.2319 13.5979 29.2058 13.5855C29.063 13.5173 28.8809 13.4605 28.6957 13.4787L28.695 13.4787C28.6507 13.4829 28.6068 13.4914 28.5641 13.5042L28.1705 13.6221L28.3853 13.2718C28.412 13.2283 28.4334 13.182 28.4493 13.1339C28.4477 13.1345 28.4461 13.1352 28.4445 13.1359L28.1994 13.2362L28.229 12.9731C28.3624 11.7864 27.9429 10.574 26.9572 9.5338L26.6255 9.18382L27.0997 9.27148C27.1329 9.27762 27.1664 9.28163 27.2001 9.28348C27.3941 9.2917 27.5804 9.22202 27.7249 9.143C27.7541 9.12701 27.7811 9.11091 27.8055 9.09544C27.7864 9.08097 27.7655 9.06591 27.7431 9.0507C27.6141 8.96311 27.4434 8.87737 27.2576 8.8589L26.7606 8.80948L27.1965 8.5657C27.2882 8.51439 27.3743 8.45353 27.4533 8.38414C27.725 8.14212 27.8803 7.80974 27.9673 7.52806C28.0051 7.40578 28.0292 7.29559 28.0444 7.21062C27.9583 7.21584 27.8461 7.22706 27.7204 7.25044C27.4306 7.30431 27.0825 7.42015 26.8107 7.6621C26.7444 7.72162 26.6834 7.78675 26.6284 7.85676L26.3805 8.17201L26.3485 7.77224C26.3344 7.59516 26.2845 7.42346 26.2025 7.26729L26.0196 7.47849L25.9365 7.20736C25.3484 5.28852 23.5738 3.95967 21.1802 3.74275L20.9176 3.71895L21.0637 3.49944C21.0722 3.48661 21.0805 3.47361 21.0885 3.46044ZM28.1811 13.8738L28.2489 14.036C28.2772 14.1037 28.3209 14.1638 28.3764 14.2115C28.4332 14.2495 28.4954 14.2775 28.5606 14.2948C28.5312 14.2386 28.4933 14.1867 28.4479 14.1412L28.1811 13.8738ZM28.6653 13.1662C28.6655 13.1662 28.6656 13.1662 28.6657 13.1662L28.6804 13.3225L28.665 13.1662C28.6651 13.1662 28.6652 13.1662 28.6653 13.1662Z" fill="#047857"/>
<path opacity="0.1" d="M28.7508 14.0337C29.1998 13.9896 29.5291 13.5983 29.5291 13.5983C29.5291 13.5983 29.1302 13.2783 28.6803 13.3224C28.6257 13.3276 28.5717 13.3381 28.5191 13.3538C28.5974 13.2261 28.6391 13.0793 28.6396 12.9295C28.5521 12.9367 28.4662 12.9573 28.385 12.9906C28.5242 11.7522 28.0845 10.4952 27.0711 9.42582C27.1112 9.43323 27.1518 9.43805 27.1925 9.44025C27.661 9.46062 28.0565 9.10584 28.0565 9.10584C28.0565 9.10584 27.717 8.74682 27.2731 8.70268C27.3747 8.64585 27.47 8.57843 27.5575 8.50153C28.1609 7.96427 28.2246 7.05016 28.2246 7.05016C28.2246 7.05016 27.3096 7.00772 26.7062 7.54498C26.633 7.61063 26.5657 7.68248 26.505 7.75972C26.4836 7.49182 26.3891 7.23494 26.2317 7.01706C26.1798 7.06148 26.1313 7.10971 26.0866 7.16135C25.4763 5.17018 23.6388 3.80793 21.1944 3.58641C21.2442 3.51161 21.2857 3.43164 21.3183 3.34791C21.3183 3.34791 20.9279 3.2189 20.585 3.36403C20.6372 3.28204 20.6804 3.19469 20.714 3.10347C20.9423 2.47115 20.6291 1.77856 20.6291 1.77856C20.6291 1.77856 19.9433 2.10958 19.715 2.74105C19.6876 2.81807 19.6669 2.89729 19.653 2.97785C19.5315 2.79031 19.3606 2.63994 19.1591 2.54329C19.1223 2.63976 19.0975 2.74038 19.0852 2.8429C18.0144 2.17752 16.7658 1.85533 15.5067 1.9195C14.2476 1.98367 13.0382 2.43113 12.0406 3.20192C12.0391 3.01574 11.9972 2.8321 11.9175 2.66381C11.9175 2.66381 11.5559 2.86242 11.4295 3.21126C11.4048 3.11739 11.3704 3.02636 11.3268 2.93966C11.0195 2.34553 10.2981 2.10024 10.2981 2.10024C10.2981 2.10024 10.0723 2.82762 10.383 3.42514C10.4201 3.49775 10.4639 3.56679 10.5137 3.63139C10.2937 3.59298 10.0673 3.61558 9.85928 3.69674C9.88604 3.75237 9.91726 3.80573 9.95264 3.85631C7.78408 4.24249 6.19861 5.54363 5.65202 7.34723C5.58123 7.28959 5.50538 7.23845 5.4254 7.19445C5.4254 7.19445 5.21236 7.64004 5.33119 8.07036C5.24167 7.99584 5.14435 7.93125 5.04092 7.87769C4.32287 7.50764 3.44696 7.77754 3.44696 7.77754C3.44696 7.77754 3.73639 8.64666 4.45528 9.01587C4.54286 9.06083 4.63433 9.09775 4.72858 9.12621C4.48638 9.24237 4.28083 9.42296 4.13445 9.64819C4.33025 9.75303 4.54669 9.81358 4.76847 9.82558C2.88254 11.9738 3.19064 14.7415 5.65541 16.6411C5.65541 16.8108 5.65541 16.9712 5.67239 17.1325C5.46647 17.1137 5.25889 17.1368 5.06213 17.2004C5.06213 17.2004 5.23952 17.6613 5.63504 17.8684C5.51941 17.8835 5.40564 17.9105 5.29554 17.949C4.53167 18.2189 4.13105 19.0405 4.13105 19.0405C4.13105 19.0405 4.96198 19.425 5.72331 19.1551C5.81602 19.1223 5.90552 19.0811 5.99067 19.032C5.96874 19.0906 5.95226 19.1511 5.94144 19.2128C5.93028 19.2744 5.92376 19.3369 5.92192 19.3995C5.91859 19.456 5.91859 19.5127 5.92192 19.5693C5.92192 19.6151 5.93041 19.6609 5.93805 19.7059C5.94229 19.7356 5.94823 19.7653 5.95502 19.7908C5.95502 19.8001 5.95502 19.8086 5.96096 19.8179C6.15549 19.7522 6.33496 19.6483 6.48889 19.5124H6.50331C6.51689 19.5319 6.53132 19.5506 6.54575 19.5693C6.49574 19.6146 6.44921 19.6637 6.40656 19.7161C5.98727 20.2415 6.06281 20.9985 6.06281 20.9985C6.06281 20.9985 6.8182 20.9094 7.24258 20.3832L7.25955 20.3594C7.37244 20.4596 7.4675 20.5292 7.58972 20.6209C7.65847 20.6709 7.69157 20.7057 7.72382 20.7261C8.80853 21.49 10.2539 21.8923 11.9065 21.8083C14.4578 24.0744 18.1159 24.0006 20.5442 21.6343C22.0584 21.6504 23.379 21.2642 24.3916 20.5827C24.4562 20.7175 24.5566 20.832 24.6819 20.9137C24.7628 20.7659 24.7944 20.596 24.7718 20.429C24.8185 20.4747 24.87 20.5151 24.9255 20.5496C25.3091 20.7864 25.8082 20.6735 25.8082 20.6735C25.8082 20.6735 25.6843 20.1778 25.2989 19.941C25.2714 19.9243 25.2431 19.909 25.214 19.8952C25.2497 19.8578 25.2845 19.8205 25.3184 19.7831C25.3899 19.7326 25.4534 19.6717 25.5069 19.6023L25.4848 19.5888C26.213 18.6857 26.5941 17.5255 26.5092 16.2184C27.2731 15.5759 27.7993 14.8527 28.104 14.0965C28.143 14.1897 28.2038 14.2721 28.2814 14.3367C28.4275 14.4371 28.6038 14.4842 28.7805 14.4699C28.7555 14.3035 28.6779 14.1494 28.559 14.0303C28.6226 14.038 28.6869 14.0391 28.7508 14.0337Z" fill="#047857"/>
<path d="M22.3759 31.5792C21.0382 31.3653 19.1922 30.4283 19.1922 28.6934C19.1922 26.9586 18.9248 16.9586 19.1922 16.2897C19.4595 15.6209 20.0486 15.8654 20.6351 16.0759C20.9112 16.1831 21.1481 16.372 21.3141 16.6174C21.3328 16.6454 21.3575 16.6689 21.3864 16.6862C21.4153 16.7035 21.4477 16.7142 21.4813 16.7174C21.5148 16.7207 21.5487 16.7164 21.5804 16.705C21.6121 16.6936 21.6409 16.6752 21.6646 16.6513C21.6873 16.6262 21.7039 16.5963 21.7132 16.5637C21.7224 16.5312 21.724 16.497 21.7178 16.4637C21.7117 16.4304 21.6979 16.399 21.6777 16.372C21.6574 16.3449 21.6311 16.3228 21.6009 16.3076C21.3599 16.1887 21.0323 15.9867 20.9831 15.755C20.8982 15.3807 21.0094 15.407 21.1698 15.3001C21.3422 15.1629 21.5063 15.0155 21.6612 14.8588C21.6858 14.838 21.7057 14.8122 21.7195 14.7832C21.7334 14.7541 21.741 14.7225 21.7417 14.6903C21.7424 14.6582 21.7364 14.6262 21.7238 14.5966C21.7113 14.5669 21.6926 14.5403 21.669 14.5184C21.6455 14.4965 21.6175 14.4798 21.587 14.4696C21.5565 14.4593 21.5242 14.4556 21.4922 14.4587C21.4601 14.4618 21.4291 14.4717 21.4012 14.4877C21.3733 14.5037 21.3491 14.5255 21.3302 14.5515C21.1375 14.8112 20.703 15.284 20.1538 15.1668C19.4044 15.0064 18.896 14.3911 19.1353 13.1298C19.3051 12.2582 19.9968 11.3093 20.4084 10.8094C20.4393 10.777 20.4619 10.7377 20.4742 10.6947C20.4864 10.6518 20.4881 10.6064 20.479 10.5627C20.4699 10.5189 20.4503 10.478 20.4219 10.4435C20.3935 10.409 20.3571 10.3819 20.3159 10.3646C20.2501 10.3347 20.1753 10.3315 20.1071 10.3555C20.0389 10.3796 19.9827 10.4291 19.9501 10.4936C19.7082 10.9749 19.0555 12.1614 18.5217 12.1402C18.0523 12.1215 17.5032 11.8134 17.2188 11.631C17.2 11.6182 17.1788 11.6096 17.1565 11.6056C17.1341 11.6016 17.1112 11.6022 17.0891 11.6076C17.0671 11.613 17.0464 11.6229 17.0284 11.6367C17.0104 11.6505 16.9955 11.6679 16.9846 11.6878C16.9657 11.7247 16.962 11.7675 16.9744 11.807C16.9868 11.8466 17.0142 11.8797 17.0508 11.8992C17.6101 12.1928 18.2059 12.8005 18.2806 13.0764C18.3613 13.3709 18.2008 13.8521 17.6661 14.8418C17.1314 15.8314 15.6291 16.3398 14.8839 15.2432C14.2898 14.3707 14.1319 12.4491 14.2177 11.5826C14.2222 11.5437 14.219 11.5043 14.2082 11.4667C14.1973 11.4291 14.179 11.3941 14.1545 11.3636C14.1299 11.3332 14.0994 11.308 14.065 11.2894C14.0305 11.2709 13.9926 11.2595 13.9537 11.2558C13.9142 11.2532 13.8746 11.2588 13.8374 11.2723C13.8001 11.2858 13.7661 11.3068 13.7374 11.3341C13.7087 11.3613 13.686 11.3943 13.6706 11.4307C13.6552 11.4672 13.6476 11.5065 13.6481 11.5461C13.6583 12.1971 13.9622 13.5831 13.7067 14.3071C13.3859 15.2169 12.3428 15.671 11.7003 15.1898C11.2487 14.8503 11.3404 13.9811 11.4346 13.4923C11.444 13.4613 11.4449 13.4283 11.4374 13.3968C11.4299 13.3653 11.4142 13.3363 11.3918 13.3129C11.3695 13.2894 11.3414 13.2723 11.3103 13.2633C11.2791 13.2542 11.2462 13.2536 11.2148 13.2614C11.1715 13.2694 11.1325 13.2922 11.1044 13.3261C11.0763 13.3599 11.061 13.4025 11.0611 13.4464C11.0611 13.7664 11.0246 14.5727 10.6843 14.7849C10.4042 14.9598 10.136 14.7467 9.98408 14.5778C9.95424 14.5439 9.91261 14.5227 9.86767 14.5184C9.82272 14.5142 9.77785 14.5272 9.74218 14.5549C9.72281 14.5704 9.70697 14.5899 9.69572 14.6121C9.68448 14.6342 9.67808 14.6585 9.67695 14.6833C9.67583 14.7082 9.68001 14.7329 9.6892 14.756C9.6984 14.7791 9.71241 14.7999 9.7303 14.8172C9.84149 14.9233 10.0248 15.0964 10.2472 15.3043C10.327 15.4172 10.4348 15.6141 10.3635 15.7754C10.2922 15.9367 9.92212 16.0181 9.70229 16.0496C9.68234 16.0525 9.66326 16.0597 9.64631 16.0706C9.62937 16.0816 9.61495 16.096 9.60402 16.113C9.5931 16.1299 9.58592 16.149 9.58296 16.1689C9.58 16.1889 9.58133 16.2092 9.58686 16.2286V16.2354C9.59294 16.256 9.60357 16.275 9.61797 16.291C9.63237 16.3069 9.65016 16.3194 9.67004 16.3276C9.68992 16.3357 9.71138 16.3393 9.73283 16.338C9.75427 16.3368 9.77516 16.3307 9.79396 16.3203C10.0902 16.165 10.787 16.1506 10.9415 16.1556C11.7257 16.2057 12.493 16.7014 12.9097 17.3575C13.3265 18.0136 13.3052 18.9149 13.3519 19.6678C13.4589 21.406 13.4911 29.4098 13.0362 30.0786C12.5813 30.7474 10.9143 31.6437 10.9143 31.6437" fill="#047857"/>
<path fill-rule="evenodd" clip-rule="evenodd" d="M20.3631 10.2567C20.4212 10.2814 20.4726 10.3198 20.5128 10.3686C20.5533 10.4179 20.5813 10.4762 20.5943 10.5386C20.6072 10.6011 20.6049 10.6657 20.5873 10.727C20.5702 10.7868 20.5392 10.8417 20.4968 10.8871C20.2936 11.1342 20.0228 11.4902 19.7821 11.8908C19.5397 12.2941 19.3321 12.7356 19.2509 13.152C19.1346 13.7654 19.2036 14.2032 19.3758 14.5024C19.5467 14.7993 19.8293 14.9769 20.1784 15.0516M20.3631 10.2567C20.2699 10.2149 20.1642 10.2105 20.0679 10.2444C19.9711 10.2786 19.8912 10.3489 19.845 10.4406C19.725 10.6792 19.5048 11.0894 19.2505 11.4356C19.1231 11.609 18.9905 11.7617 18.8611 11.8687C18.7289 11.978 18.6164 12.0261 18.5263 12.0225C18.313 12.014 18.0741 11.9388 17.8484 11.8392C17.6248 11.7405 17.4224 11.6216 17.2834 11.5325C17.2514 11.5111 17.2152 11.4965 17.1773 11.4896C17.1388 11.4827 17.0993 11.4839 17.0614 11.4931C17.0234 11.5023 16.9877 11.5194 16.9567 11.5432C16.9257 11.567 16.9 11.597 16.8813 11.6313L16.8798 11.634C16.8468 11.6984 16.8404 11.7731 16.8621 11.8422C16.8837 11.9112 16.9316 11.9689 16.9954 12.003L16.996 12.0033C17.2632 12.1436 17.5429 12.3612 17.7651 12.5786C17.876 12.6869 17.9707 12.7934 18.0413 12.8878C18.1141 12.985 18.1543 13.0602 18.167 13.1071L18.1671 13.1074C18.1979 13.2202 18.1872 13.3865 18.0928 13.6599C17.9992 13.9314 17.8292 14.2923 17.5625 14.7857C17.3118 15.2499 16.8316 15.603 16.3295 15.7096C15.8335 15.8149 15.3231 15.68 14.9813 15.177C14.6999 14.7638 14.5148 14.0874 14.4123 13.3934C14.3104 12.7034 14.2931 12.0168 14.3347 11.5951C14.3409 11.541 14.3363 11.4863 14.3213 11.434C14.306 11.3813 14.2805 11.3322 14.246 11.2896C14.2116 11.2469 14.1689 11.2116 14.1206 11.1857C14.0723 11.1597 14.0194 11.1437 13.9648 11.1385L13.9614 11.1383C13.9056 11.1346 13.8498 11.1425 13.7973 11.1615C13.7448 11.1805 13.6968 11.2102 13.6563 11.2487C13.6158 11.2871 13.5837 11.3335 13.5621 11.385C13.5404 11.4364 13.5296 11.4918 13.5304 11.5476C13.5331 11.7169 13.5547 11.9312 13.5805 12.1633C13.586 12.2129 13.5918 12.2635 13.5976 12.3148C13.6192 12.5055 13.642 12.7066 13.6598 12.9094C13.7052 13.4297 13.7138 13.933 13.5957 14.2678C13.4464 14.6912 13.129 15.0078 12.7768 15.1622C12.4243 15.3167 12.0501 15.3046 11.7709 15.0955C11.5873 14.9574 11.5013 14.7 11.4802 14.389C11.4596 14.0851 11.5032 13.7595 11.5492 13.5196C11.5628 13.4706 11.5637 13.419 11.5519 13.3694C11.5396 13.3177 11.5138 13.2701 11.4771 13.2316C11.4404 13.1931 11.3942 13.165 11.3431 13.1501C11.2932 13.1356 11.2404 13.1343 11.1899 13.1462C11.1209 13.1598 11.0587 13.1967 11.0138 13.2508C10.9681 13.3058 10.9432 13.3752 10.9434 13.4467L11.0611 13.4464H10.9434C10.9434 13.6033 10.9344 13.8763 10.8847 14.1337C10.8599 14.2625 10.8258 14.383 10.78 14.4816C10.7337 14.5813 10.6801 14.6487 10.622 14.6849C10.5213 14.7478 10.4261 14.7426 10.333 14.7022C10.2346 14.6595 10.1431 14.5785 10.072 14.4994C10.0224 14.4434 9.9533 14.4082 9.87876 14.4012C9.80399 14.3941 9.72933 14.4158 9.66999 14.4618L9.66849 14.463C9.63607 14.489 9.60957 14.5217 9.59075 14.5587C9.57193 14.5958 9.56122 14.6364 9.55934 14.6779C9.55746 14.7195 9.56444 14.7609 9.57984 14.7995C9.59523 14.8381 9.61867 14.873 9.6486 14.9019L9.64902 14.9023C9.75906 15.0073 9.93924 15.1775 10.1577 15.3818C10.1924 15.4321 10.2288 15.4949 10.2504 15.5591C10.2736 15.6283 10.2748 15.6847 10.2558 15.7277C10.2512 15.738 10.2364 15.7578 10.1975 15.7826C10.1601 15.8066 10.1098 15.8293 10.0502 15.8498C9.93124 15.8908 9.79197 15.9177 9.68563 15.9329L9.68494 15.933C9.64843 15.9385 9.6135 15.9516 9.58247 15.9717C9.55146 15.9917 9.52506 16.0181 9.50506 16.0491C9.48506 16.0801 9.47191 16.1151 9.46649 16.1516C9.46193 16.1824 9.46294 16.2137 9.46945 16.244C9.47006 16.2524 9.47157 16.2606 9.47394 16.2687C9.48501 16.3062 9.50436 16.3407 9.53058 16.3698C9.55679 16.3988 9.58919 16.4216 9.62539 16.4364C9.66158 16.4513 9.70064 16.4578 9.7397 16.4555C9.77821 16.4532 9.81573 16.4425 9.84957 16.424C9.97528 16.3585 10.2017 16.3173 10.4322 16.2949C10.6561 16.2732 10.8623 16.2709 10.9358 16.2732C11.6782 16.3213 12.4121 16.7935 12.8103 17.4205C13.0055 17.7278 13.1012 18.0977 13.1529 18.4916C13.1898 18.7732 13.2034 19.0582 13.2167 19.3375C13.2221 19.4511 13.2275 19.5638 13.2344 19.6749C13.2876 20.5394 13.3225 22.9713 13.287 25.2723C13.2693 26.4224 13.2341 27.5376 13.175 28.4061C13.1455 28.8406 13.1101 29.2114 13.0683 29.4932C13.0474 29.6342 13.0252 29.7508 13.0019 29.841C12.9777 29.9347 12.9552 29.9883 12.9388 30.0123C12.835 30.165 12.6563 30.3377 12.4387 30.5137C12.2227 30.6883 11.9754 30.8605 11.7405 31.0131C11.5059 31.1656 11.2851 31.2974 11.1229 31.3912C11.0419 31.4381 10.9756 31.4753 10.9296 31.5009C10.9067 31.5136 10.8888 31.5234 10.8767 31.53L10.863 31.5375L10.8588 31.5398C10.8015 31.5706 10.7798 31.6421 10.8106 31.6994C10.8414 31.7566 10.9128 31.7781 10.97 31.7473L10.9143 31.6436C10.97 31.7473 10.97 31.7473 10.97 31.7473L10.9704 31.7471L10.9752 31.7445L10.9896 31.7367C11.0021 31.7298 11.0205 31.7197 11.044 31.7067C11.091 31.6806 11.1585 31.6426 11.2408 31.595C11.4054 31.4998 11.6298 31.3658 11.8688 31.2106C12.1075 31.0555 12.3622 30.8783 12.5867 30.6968C12.8096 30.5165 13.0099 30.3264 13.1335 30.1447C13.1741 30.0851 13.2046 29.9978 13.2299 29.8999C13.256 29.7986 13.2797 29.673 13.3012 29.5277C13.3443 29.237 13.3802 28.8591 13.4099 28.4221C13.4694 27.5475 13.5047 26.4277 13.5225 25.276C13.5579 22.9733 13.5232 20.5342 13.4694 19.6605C13.463 19.5563 13.4578 19.4477 13.4524 19.3364C13.4389 19.0535 13.4246 18.7528 13.3863 18.461C13.3327 18.0519 13.2307 17.6431 13.0091 17.2943C12.5742 16.6096 11.7744 16.0908 10.949 16.0381L10.9453 16.0379C10.8628 16.0352 10.6449 16.0377 10.4095 16.0606C10.1795 16.0829 9.90998 16.1265 9.73927 16.216L9.73689 16.2173C9.73352 16.2191 9.72977 16.2202 9.72593 16.2204C9.72209 16.2207 9.71824 16.22 9.71467 16.2186C9.71111 16.2171 9.70792 16.2149 9.70534 16.212C9.70445 16.211 9.70364 16.21 9.70291 16.2088C9.70219 16.2046 9.70124 16.2004 9.70006 16.1963C9.69912 16.193 9.69889 16.1895 9.69939 16.1862C9.6999 16.1828 9.70111 16.1795 9.70296 16.1767C9.70481 16.1738 9.70726 16.1714 9.71013 16.1695C9.713 16.1676 9.71623 16.1664 9.71961 16.1659L9.70228 16.0495L9.71893 16.166C9.83242 16.1498 9.98809 16.1203 10.1269 16.0724C10.1963 16.0485 10.2656 16.0186 10.3244 15.981C10.3819 15.9442 10.44 15.8933 10.4711 15.8229C10.5234 15.7047 10.5064 15.582 10.4736 15.4842C10.4405 15.3856 10.3866 15.2975 10.3433 15.2363C10.3387 15.2298 10.3334 15.2238 10.3276 15.2183C10.1056 15.0107 9.92266 14.8379 9.81182 14.7322C9.80605 14.7266 9.80153 14.7198 9.79855 14.7123C9.79554 14.7048 9.79418 14.6967 9.79455 14.6886C9.79491 14.6805 9.797 14.6726 9.80068 14.6653C9.80421 14.6584 9.80912 14.6522 9.81512 14.6472C9.82699 14.6383 9.84176 14.6342 9.85655 14.6356C9.87167 14.637 9.88567 14.6441 9.89571 14.6555L9.89654 14.6565C9.97724 14.7462 10.0957 14.8559 10.2393 14.9182C10.3882 14.9828 10.5673 14.9967 10.7466 14.8847C10.8587 14.8148 10.9373 14.7019 10.9935 14.5808C11.0503 14.4585 11.0891 14.3176 11.1159 14.1783C11.1697 13.8995 11.1789 13.6094 11.1789 13.4464L11.1789 13.446C11.1788 13.4296 11.1845 13.4138 11.195 13.4012C11.2054 13.3886 11.22 13.3801 11.2361 13.3771C11.2385 13.3767 11.2408 13.3762 11.2432 13.3756C11.2545 13.3728 11.2662 13.373 11.2774 13.3762C11.2885 13.3795 11.2986 13.3856 11.3066 13.394C11.3146 13.4024 11.3202 13.4127 11.3229 13.424C11.3256 13.4353 11.3252 13.4471 11.3219 13.4582C11.3207 13.462 11.3197 13.466 11.319 13.4699C11.2711 13.7184 11.2226 14.0694 11.2453 14.4049C11.2677 14.7355 11.3616 15.0823 11.6295 15.2838C11.9928 15.5559 12.4615 15.5575 12.8714 15.3778C13.2816 15.198 13.6462 14.8327 13.8177 14.3462C13.955 13.957 13.9394 13.4053 13.8943 12.8889C13.8763 12.6827 13.853 12.4777 13.8314 12.2866C13.8256 12.2358 13.8199 12.1859 13.8145 12.1372C13.7885 11.9037 13.7683 11.7006 13.7658 11.5443C13.7655 11.521 13.77 11.4978 13.7791 11.4764C13.7881 11.4548 13.8016 11.4354 13.8185 11.4194C13.8354 11.4033 13.8555 11.3909 13.8774 11.3829C13.8988 11.3752 13.9216 11.3718 13.9443 11.3731C13.967 11.3755 13.9891 11.3823 14.0092 11.3931C14.0299 11.4042 14.0481 11.4193 14.0629 11.4375C14.0776 11.4558 14.0885 11.4768 14.095 11.4993C14.1015 11.5218 14.1035 11.5454 14.1007 11.5687L14.1005 11.5709C14.0565 12.0159 14.0753 12.7228 14.1794 13.4278C14.2829 14.1293 14.4738 14.8501 14.7865 15.3093C15.19 15.903 15.8033 16.0621 16.3784 15.9399C16.9474 15.8191 17.4858 15.4231 17.7697 14.8977C18.0378 14.4015 18.2153 14.0269 18.3154 13.7367C18.4148 13.4487 18.4439 13.2272 18.3942 13.0455M20.2673 10.4718C20.2291 10.4544 20.1857 10.4526 20.1462 10.4665C20.1067 10.4804 20.0742 10.5091 20.0553 10.5464M20.331 10.5183C20.3147 10.4985 20.2939 10.483 20.2703 10.473L20.2673 10.4718M20.331 10.5183C20.3473 10.5381 20.3585 10.5615 20.3637 10.5866ZM20.3637 10.5866C20.369 10.6117 20.368 10.6376 20.361 10.6623ZM20.361 10.6623C20.3539 10.6869 20.341 10.7095 20.3233 10.728ZM20.3233 10.728C20.3213 10.7301 20.3194 10.7322 20.3176 10.7345ZM20.3176 10.7345C20.1094 10.9872 19.8298 11.3543 19.5803 11.7695ZM19.5803 11.7695C19.3315 12.1834 19.1084 12.6521 19.0198 13.1073ZM17.0887 11.7428C17.0844 11.7519 17.0837 11.7622 17.0867 11.7718C17.0898 11.7817 17.0967 11.79 17.1058 11.795C17.3979 11.9485 17.6957 12.1814 17.9297 12.4102C18.0471 12.525 18.1503 12.6405 18.2298 12.7468C18.3072 12.8502 18.3695 12.9543 18.3942 13.0452M19.0198 13.1073L19.0196 13.1078ZM19.0196 13.1078C18.8967 13.7555 18.9622 14.2559 19.1717 14.6198ZM19.1717 14.6198C19.3825 14.9859 19.7288 15.1962 20.1292 15.2819ZM21.4807 14.3415C21.5293 14.3367 21.5784 14.3423 21.6246 14.3579C21.6709 14.3735 21.7133 14.3988 21.7491 14.432C21.7849 14.4652 21.8133 14.5057 21.8323 14.5507C21.8513 14.5956 21.8605 14.6442 21.8594 14.693C21.8583 14.7418 21.8468 14.7898 21.8257 14.8339C21.8055 14.8762 21.7769 14.9139 21.7416 14.9448C21.5844 15.1037 21.4179 15.253 21.243 15.3922C21.2405 15.3942 21.2378 15.3962 21.2351 15.398C21.2031 15.4193 21.1686 15.4384 21.1435 15.4523C21.1343 15.4574 21.1263 15.4618 21.1202 15.4653C21.0918 15.4818 21.0844 15.4897 21.0811 15.4944C21.0763 15.5014 21.0549 15.5396 21.0979 15.7289L21.0982 15.7305C21.114 15.8049 21.1807 15.8915 21.2935 15.9815C21.4023 16.0684 21.5361 16.1443 21.653 16.2019L21.6541 16.2025C21.7004 16.2259 21.7407 16.2597 21.7719 16.3013C21.803 16.3429 21.8241 16.3911 21.8336 16.4422C21.843 16.4933 21.8406 16.5458 21.8264 16.5958C21.8122 16.6458 21.7867 16.6918 21.7518 16.7303C21.7506 16.7316 21.7494 16.7329 21.7481 16.7342C21.7121 16.7705 21.6684 16.7983 21.6203 16.8157C21.5722 16.833 21.5208 16.8395 21.4699 16.8345C21.419 16.8296 21.3698 16.8134 21.326 16.7872C21.2822 16.7609 21.2447 16.7253 21.2163 16.6829C21.0641 16.4579 20.8469 16.2847 20.5938 16.1861C20.5726 16.1785 20.5516 16.1709 20.5307 16.1633C20.2541 16.0636 20.0051 15.9739 19.7922 15.9707C19.6823 15.9691 19.5904 15.9911 19.5131 16.0425C19.4358 16.094 19.3618 16.1824 19.3015 16.3334C19.2914 16.3587 19.2779 16.4221 19.2651 16.5336C19.2527 16.6406 19.242 16.7805 19.233 16.9498C19.2148 17.2882 19.2034 17.7386 19.1971 18.2673C19.1846 19.3245 19.1929 20.6903 19.2096 22.0903C19.2264 23.4986 19.2517 24.9424 19.2727 26.1397C19.2934 27.3209 19.3099 28.2623 19.3099 28.6933C19.3099 29.5135 19.7447 30.15 20.3536 30.6129C20.9642 31.0769 21.741 31.3584 22.3944 31.4628C22.4586 31.4731 22.5024 31.5335 22.4921 31.5977C22.4818 31.6619 22.4215 31.7056 22.3573 31.6953C21.673 31.5859 20.8581 31.292 20.2112 30.8003C19.5627 30.3074 19.0744 29.6081 19.0744 28.6933C19.0744 28.2633 19.058 27.3258 19.0374 26.1478C19.0164 24.951 18.9911 23.5061 18.9742 22.0932C18.9575 20.6927 18.9491 19.3247 18.9617 18.2645C18.9679 17.7346 18.9794 17.2805 18.9979 16.9372C19.0071 16.7657 19.018 16.6205 19.0312 16.5067C19.0438 16.3974 19.0596 16.3043 19.0829 16.246C19.1562 16.0626 19.2561 15.9307 19.3827 15.8465C19.5095 15.7622 19.6516 15.7331 19.7957 15.7353C20.0504 15.7391 20.337 15.8428 20.6013 15.9385C20.626 15.9474 20.6505 15.9563 20.6748 15.965L20.6777 15.966C20.9762 16.0819 21.2322 16.2861 21.4116 16.5513L21.4119 16.5519C21.421 16.5654 21.4329 16.5768 21.4469 16.5851C21.4608 16.5935 21.4764 16.5986 21.4926 16.6002C21.5088 16.6017 21.5251 16.5997 21.5404 16.5942C21.5549 16.589 21.568 16.5808 21.5791 16.5702C21.5888 16.559 21.5959 16.5458 21.5999 16.5315C21.6042 16.5164 21.6049 16.5005 21.6021 16.4851C21.5992 16.4696 21.5928 16.455 21.5834 16.4424C21.5741 16.43 21.562 16.4198 21.5482 16.4128C21.4242 16.3516 21.2739 16.2672 21.1466 16.1656C21.0233 16.0671 20.9018 15.9372 20.8681 15.7803C20.8263 15.5957 20.8182 15.4601 20.8877 15.3601C20.9217 15.3112 20.9668 15.2822 21.0018 15.2618C21.016 15.2536 21.0283 15.2468 21.04 15.2403C21.0603 15.2291 21.0786 15.2191 21.1005 15.2047C21.2678 15.0714 21.4271 14.9282 21.5774 14.776C21.5792 14.7741 21.5811 14.7724 21.583 14.7707C21.5837 14.7701 21.5844 14.7694 21.5852 14.7688C21.597 14.7588 21.6066 14.7463 21.6133 14.7323C21.62 14.7183 21.6236 14.7031 21.624 14.6875C21.6244 14.672 21.6214 14.6566 21.6154 14.6423C21.6093 14.628 21.6003 14.6151 21.5889 14.6046C21.5776 14.594 21.5641 14.586 21.5494 14.581C21.5347 14.5761 21.5191 14.5743 21.5036 14.5758C21.4882 14.5773 21.4732 14.5821 21.4597 14.5898C21.4463 14.5975 21.4346 14.608 21.4255 14.6206L21.4247 14.6216C21.3246 14.7566 21.1585 14.9514 20.9416 15.098C20.7237 15.2451 20.4452 15.3493 20.1292 15.2819M21.4807 14.3415C21.4321 14.3462 21.3851 14.3612 21.3427 14.3855ZM21.3427 14.3855C21.3005 14.4097 21.2639 14.4425 21.2353 14.4817ZM21.2353 14.4817C21.1428 14.6064 20.9954 14.7775 20.8098 14.9029C20.6249 15.0277 20.4115 15.1014 20.1784 15.0516" fill="#047857"/>
<path d="M22.3759 31.5792C21.0382 31.3653 19.1922 30.4283 19.1922 28.6934C19.1922 26.9586 18.9248 16.9586 19.1922 16.2897C19.4595 15.6209 20.0486 15.8654 20.6351 16.0759C20.9112 16.1831 21.1481 16.372 21.3141 16.6174C21.3328 16.6454 21.3575 16.6689 21.3864 16.6862C21.4153 16.7035 21.4477 16.7142 21.4813 16.7174C21.5148 16.7207 21.5487 16.7164 21.5804 16.705C21.6121 16.6936 21.6409 16.6752 21.6646 16.6513C21.6873 16.6262 21.7039 16.5963 21.7132 16.5637C21.7224 16.5312 21.724 16.497 21.7178 16.4637C21.7117 16.4304 21.6979 16.399 21.6777 16.372C21.6574 16.3449 21.6311 16.3228 21.6009 16.3076C21.3599 16.1887 21.0323 15.9867 20.9831 15.755C20.8982 15.3807 21.0094 15.407 21.1698 15.3001C21.3422 15.1629 21.5063 15.0155 21.6612 14.8588C21.6858 14.838 21.7057 14.8122 21.7195 14.7832C21.7334 14.7541 21.741 14.7225 21.7417 14.6903C21.7424 14.6582 21.7364 14.6262 21.7238 14.5966C21.7113 14.5669 21.6926 14.5403 21.669 14.5184C21.6455 14.4965 21.6175 14.4798 21.587 14.4696C21.5565 14.4593 21.5242 14.4556 21.4922 14.4587C21.4601 14.4618 21.4291 14.4717 21.4012 14.4877C21.3733 14.5037 21.3491 14.5255 21.3302 14.5515C21.1375 14.8112 20.703 15.284 20.1538 15.1668C19.4044 15.0064 18.896 14.3911 19.1353 13.1298C19.3051 12.2582 19.9968 11.3093 20.4084 10.8094C20.4393 10.777 20.4619 10.7377 20.4742 10.6947C20.4864 10.6518 20.4881 10.6064 20.479 10.5627C20.4699 10.5189 20.4503 10.478 20.4219 10.4435C20.3935 10.409 20.3571 10.3819 20.3159 10.3646C20.2501 10.3347 20.1753 10.3315 20.1071 10.3555C20.0389 10.3796 19.9827 10.4291 19.9501 10.4936C19.7082 10.9749 19.0555 12.1614 18.5217 12.1402C18.0523 12.1215 17.5032 11.8134 17.2188 11.631C17.2 11.6182 17.1788 11.6096 17.1565 11.6056C17.1341 11.6016 17.1112 11.6022 17.0891 11.6076C17.0671 11.613 17.0464 11.6229 17.0284 11.6367C17.0104 11.6505 16.9955 11.6679 16.9846 11.6878C16.9657 11.7247 16.962 11.7675 16.9744 11.807C16.9868 11.8466 17.0142 11.8797 17.0508 11.8992C17.6101 12.1928 18.2059 12.8005 18.2806 13.0764C18.3613 13.3709 18.2008 13.8521 17.6661 14.8418C17.1314 15.8314 15.6291 16.3398 14.8839 15.2432C14.2898 14.3707 14.1319 12.4491 14.2177 11.5826C14.2222 11.5437 14.219 11.5043 14.2082 11.4667C14.1973 11.4291 14.179 11.3941 14.1545 11.3636C14.1299 11.3332 14.0994 11.308 14.065 11.2894C14.0305 11.2709 13.9926 11.2595 13.9537 11.2558C13.9142 11.2532 13.8746 11.2588 13.8374 11.2723C13.8001 11.2858 13.7661 11.3068 13.7374 11.3341C13.7087 11.3613 13.686 11.3943 13.6706 11.4307C13.6552 11.4672 13.6476 11.5065 13.6481 11.5461C13.6583 12.1971 13.9622 13.5831 13.7067 14.3071C13.3859 15.2169 12.3428 15.671 11.7003 15.1898C11.2487 14.8503 11.3404 13.9811 11.4346 13.4923C11.444 13.4613 11.4449 13.4283 11.4374 13.3968C11.4299 13.3653 11.4142 13.3363 11.3918 13.3129C11.3695 13.2894 11.3414 13.2723 11.3103 13.2633C11.2791 13.2542 11.2462 13.2536 11.2148 13.2614C11.1715 13.2694 11.1325 13.2922 11.1044 13.3261C11.0763 13.3599 11.061 13.4025 11.0611 13.4464C11.0611 13.7664 11.0246 14.5727 10.6843 14.7849C10.4042 14.9598 10.136 14.7467 9.98408 14.5778C9.95424 14.5439 9.91261 14.5227 9.86767 14.5184C9.82272 14.5142 9.77785 14.5272 9.74218 14.5549C9.72281 14.5704 9.70697 14.5899 9.69572 14.6121C9.68448 14.6342 9.67808 14.6585 9.67695 14.6833C9.67583 14.7082 9.68001 14.7329 9.6892 14.756C9.6984 14.7791 9.71241 14.7999 9.7303 14.8172C9.84149 14.9233 10.0248 15.0964 10.2472 15.3043C10.327 15.4172 10.4348 15.6141 10.3635 15.7754C10.2922 15.9367 9.92212 16.0181 9.70229 16.0496C9.68234 16.0525 9.66326 16.0597 9.64631 16.0706C9.62937 16.0816 9.61495 16.096 9.60402 16.113C9.5931 16.1299 9.58592 16.149 9.58296 16.1689C9.58 16.1889 9.58133 16.2092 9.58686 16.2286V16.2354C9.59294 16.256 9.60357 16.275 9.61797 16.291C9.63237 16.3069 9.65016 16.3194 9.67004 16.3276C9.68992 16.3357 9.71138 16.3393 9.73283 16.338C9.75427 16.3368 9.77516 16.3307 9.79396 16.3203C10.0902 16.165 10.787 16.1506 10.9415 16.1556C11.7257 16.2057 12.493 16.7014 12.9097 17.3575C13.3265 18.0136 13.3052 18.9149 13.3519 19.6678C13.4589 21.406 13.4911 29.4098 13.0362 30.0786C12.5813 30.7474 10.9143 31.6437 10.9143 31.6437" fill="#047857"/>
<path fill-rule="evenodd" clip-rule="evenodd" d="M20.3631 10.2567C20.4212 10.2814 20.4726 10.3198 20.5128 10.3686C20.5533 10.4179 20.5813 10.4762 20.5943 10.5386C20.6072 10.6011 20.6049 10.6657 20.5873 10.727C20.5702 10.7868 20.5392 10.8417 20.4968 10.8871C20.2936 11.1342 20.0228 11.4902 19.7821 11.8908C19.5397 12.2941 19.3321 12.7356 19.2509 13.152C19.1346 13.7654 19.2036 14.2032 19.3758 14.5024C19.5467 14.7993 19.8293 14.9769 20.1784 15.0516M20.3631 10.2567C20.2699 10.2149 20.1642 10.2105 20.0679 10.2444C19.9711 10.2786 19.8912 10.3489 19.845 10.4406C19.725 10.6792 19.5048 11.0894 19.2505 11.4356C19.1231 11.609 18.9905 11.7617 18.8611 11.8687C18.7289 11.978 18.6164 12.0261 18.5263 12.0225C18.313 12.014 18.0741 11.9388 17.8484 11.8392C17.6248 11.7405 17.4224 11.6216 17.2834 11.5325C17.2514 11.5111 17.2152 11.4965 17.1773 11.4896C17.1388 11.4827 17.0993 11.4839 17.0614 11.4931C17.0234 11.5023 16.9877 11.5194 16.9567 11.5432C16.9257 11.567 16.9 11.597 16.8813 11.6313L16.8798 11.634C16.8468 11.6984 16.8404 11.7731 16.8621 11.8422C16.8837 11.9112 16.9316 11.9689 16.9954 12.003L16.996 12.0033C17.2632 12.1436 17.5429 12.3612 17.7651 12.5786C17.876 12.6869 17.9707 12.7934 18.0413 12.8878C18.1141 12.985 18.1543 13.0602 18.167 13.1071L18.1671 13.1074C18.1979 13.2202 18.1872 13.3865 18.0928 13.6599C17.9992 13.9314 17.8292 14.2923 17.5625 14.7857C17.3118 15.2499 16.8316 15.603 16.3295 15.7096C15.8335 15.8149 15.3231 15.68 14.9813 15.177C14.6999 14.7638 14.5148 14.0874 14.4123 13.3934C14.3104 12.7034 14.2931 12.0168 14.3347 11.5951C14.3409 11.541 14.3363 11.4863 14.3213 11.434C14.306 11.3813 14.2805 11.3322 14.246 11.2896C14.2116 11.2469 14.1689 11.2116 14.1206 11.1857C14.0723 11.1597 14.0194 11.1437 13.9648 11.1385L13.9614 11.1383C13.9056 11.1346 13.8498 11.1425 13.7973 11.1615C13.7448 11.1805 13.6968 11.2102 13.6563 11.2487C13.6158 11.2871 13.5837 11.3335 13.5621 11.385C13.5404 11.4364 13.5296 11.4918 13.5304 11.5476C13.5331 11.7169 13.5547 11.9312 13.5805 12.1633C13.586 12.2129 13.5918 12.2635 13.5976 12.3148C13.6192 12.5055 13.642 12.7066 13.6598 12.9094C13.7052 13.4297 13.7138 13.933 13.5957 14.2678C13.4464 14.6912 13.129 15.0078 12.7768 15.1622C12.4243 15.3167 12.0501 15.3046 11.7709 15.0955C11.5873 14.9574 11.5013 14.7 11.4802 14.389C11.4596 14.0851 11.5032 13.7595 11.5492 13.5196C11.5628 13.4706 11.5637 13.419 11.5519 13.3694C11.5396 13.3177 11.5138 13.2701 11.4771 13.2316C11.4404 13.1931 11.3942 13.165 11.3431 13.1501C11.2932 13.1356 11.2404 13.1343 11.1899 13.1462C11.1209 13.1598 11.0587 13.1967 11.0138 13.2508C10.9681 13.3058 10.9432 13.3752 10.9434 13.4467L11.0611 13.4464H10.9434C10.9434 13.6033 10.9344 13.8763 10.8847 14.1337C10.8599 14.2625 10.8258 14.383 10.78 14.4816C10.7337 14.5813 10.6801 14.6487 10.622 14.6849C10.5213 14.7478 10.4261 14.7426 10.333 14.7022C10.2346 14.6595 10.1431 14.5785 10.072 14.4994C10.0224 14.4434 9.9533 14.4082 9.87876 14.4012C9.80399 14.3941 9.72933 14.4158 9.66999 14.4618L9.66849 14.463C9.63607 14.489 9.60957 14.5217 9.59075 14.5587C9.57193 14.5958 9.56122 14.6364 9.55934 14.6779C9.55746 14.7195 9.56444 14.7609 9.57984 14.7995C9.59523 14.8381 9.61867 14.873 9.6486 14.9019L9.64902 14.9023C9.75906 15.0073 9.93924 15.1775 10.1577 15.3818C10.1924 15.4321 10.2288 15.4949 10.2504 15.5591C10.2736 15.6283 10.2748 15.6847 10.2558 15.7277C10.2512 15.738 10.2364 15.7578 10.1975 15.7826C10.1601 15.8066 10.1098 15.8293 10.0502 15.8498C9.93124 15.8908 9.79197 15.9177 9.68563 15.9329L9.68494 15.933C9.64843 15.9385 9.6135 15.9516 9.58247 15.9717C9.55146 15.9917 9.52506 16.0181 9.50506 16.0491C9.48506 16.0801 9.47191 16.1151 9.46649 16.1516C9.46193 16.1824 9.46294 16.2137 9.46945 16.244C9.47006 16.2524 9.47157 16.2606 9.47394 16.2687C9.48501 16.3062 9.50436 16.3407 9.53058 16.3698C9.55679 16.3988 9.58919 16.4216 9.62539 16.4364C9.66158 16.4513 9.70064 16.4578 9.7397 16.4555C9.77821 16.4532 9.81573 16.4425 9.84957 16.424C9.97528 16.3585 10.2017 16.3173 10.4322 16.2949C10.6561 16.2732 10.8623 16.2709 10.9358 16.2732C11.6782 16.3213 12.4121 16.7935 12.8103 17.4205C13.0055 17.7278 13.1012 18.0977 13.1529 18.4916C13.1898 18.7732 13.2034 19.0582 13.2167 19.3375C13.2221 19.4511 13.2275 19.5638 13.2344 19.6749C13.2876 20.5394 13.3225 22.9713 13.287 25.2723C13.2693 26.4224 13.2341 27.5376 13.175 28.4061C13.1455 28.8406 13.1101 29.2114 13.0683 29.4932C13.0474 29.6342 13.0252 29.7508 13.0019 29.841C12.9777 29.9347 12.9552 29.9883 12.9388 30.0123C12.835 30.165 12.6563 30.3377 12.4387 30.5137C12.2227 30.6883 11.9754 30.8605 11.7405 31.0131C11.5059 31.1656 11.2851 31.2974 11.1229 31.3912C11.0419 31.4381 10.9756 31.4753 10.9296 31.5009C10.9067 31.5136 10.8888 31.5234 10.8767 31.53L10.863 31.5375L10.8588 31.5398C10.8015 31.5706 10.7798 31.6421 10.8106 31.6994C10.8414 31.7566 10.9128 31.7781 10.97 31.7473L10.9143 31.6436C10.97 31.7473 10.97 31.7473 10.97 31.7473L10.9704 31.7471L10.9752 31.7445L10.9896 31.7367C11.0021 31.7298 11.0205 31.7197 11.044 31.7067C11.091 31.6806 11.1585 31.6426 11.2408 31.595C11.4054 31.4998 11.6298 31.3658 11.8688 31.2106C12.1075 31.0555 12.3622 30.8783 12.5867 30.6968C12.8096 30.5165 13.0099 30.3264 13.1335 30.1447C13.1741 30.0851 13.2046 29.9978 13.2299 29.8999C13.256 29.7986 13.2797 29.673 13.3012 29.5277C13.3443 29.237 13.3802 28.8591 13.4099 28.4221C13.4694 27.5475 13.5047 26.4277 13.5225 25.276C13.5579 22.9733 13.5232 20.5342 13.4694 19.6605C13.463 19.5563 13.4578 19.4477 13.4524 19.3364C13.4389 19.0535 13.4246 18.7528 13.3863 18.461C13.3327 18.0519 13.2307 17.6431 13.0091 17.2943C12.5742 16.6096 11.7744 16.0908 10.949 16.0381L10.9453 16.0379C10.8628 16.0352 10.6449 16.0377 10.4095 16.0606C10.1795 16.0829 9.90998 16.1265 9.73927 16.216L9.73689 16.2173C9.73352 16.2191 9.72977 16.2202 9.72593 16.2204C9.72209 16.2207 9.71824 16.22 9.71467 16.2186C9.71111 16.2171 9.70792 16.2149 9.70534 16.212C9.70445 16.211 9.70364 16.21 9.70291 16.2088C9.70219 16.2046 9.70124 16.2004 9.70006 16.1963C9.69912 16.193 9.69889 16.1895 9.69939 16.1862C9.6999 16.1828 9.70111 16.1795 9.70296 16.1767C9.70481 16.1738 9.70726 16.1714 9.71013 16.1695C9.713 16.1676 9.71623 16.1664 9.71961 16.1659L9.70228 16.0495L9.71893 16.166C9.83242 16.1498 9.98809 16.1203 10.1269 16.0724C10.1963 16.0485 10.2656 16.0186 10.3244 15.981C10.3819 15.9442 10.44 15.8933 10.4711 15.8229C10.5234 15.7047 10.5064 15.582 10.4736 15.4842C10.4405 15.3856 10.3866 15.2975 10.3433 15.2363C10.3387 15.2298 10.3334 15.2238 10.3276 15.2183C10.1056 15.0107 9.92266 14.8379 9.81182 14.7322C9.80605 14.7266 9.80153 14.7198 9.79855 14.7123C9.79554 14.7048 9.79418 14.6967 9.79455 14.6886C9.79491 14.6805 9.797 14.6726 9.80068 14.6653C9.80421 14.6584 9.80912 14.6522 9.81512 14.6472C9.82699 14.6383 9.84176 14.6342 9.85655 14.6356C9.87167 14.637 9.88567 14.6441 9.89571 14.6555L9.89654 14.6565C9.97724 14.7462 10.0957 14.8559 10.2393 14.9182C10.3882 14.9828 10.5673 14.9967 10.7466 14.8847C10.8587 14.8148 10.9373 14.7019 10.9935 14.5808C11.0503 14.4585 11.0891 14.3176 11.1159 14.1783C11.1697 13.8995 11.1789 13.6094 11.1789 13.4464L11.1789 13.446C11.1788 13.4296 11.1845 13.4138 11.195 13.4012C11.2054 13.3886 11.22 13.3801 11.2361 13.3771C11.2385 13.3767 11.2408 13.3762 11.2432 13.3756C11.2545 13.3728 11.2662 13.373 11.2774 13.3762C11.2885 13.3795 11.2986 13.3856 11.3066 13.394C11.3146 13.4024 11.3202 13.4127 11.3229 13.424C11.3256 13.4353 11.3252 13.4471 11.3219 13.4582C11.3207 13.462 11.3197 13.466 11.319 13.4699C11.2711 13.7184 11.2226 14.0694 11.2453 14.4049C11.2677 14.7355 11.3616 15.0823 11.6295 15.2838C11.9928 15.5559 12.4615 15.5575 12.8714 15.3778C13.2816 15.198 13.6462 14.8327 13.8177 14.3462C13.955 13.957 13.9394 13.4053 13.8943 12.8889C13.8763 12.6827 13.853 12.4777 13.8314 12.2866C13.8256 12.2358 13.8199 12.1859 13.8145 12.1372C13.7885 11.9037 13.7683 11.7006 13.7658 11.5443C13.7655 11.521 13.77 11.4978 13.7791 11.4764C13.7881 11.4548 13.8016 11.4354 13.8185 11.4194C13.8354 11.4033 13.8555 11.3909 13.8774 11.3829C13.8988 11.3752 13.9216 11.3718 13.9443 11.3731C13.967 11.3755 13.9891 11.3823 14.0092 11.3931C14.0299 11.4042 14.0481 11.4193 14.0629 11.4375C14.0776 11.4558 14.0885 11.4768 14.095 11.4993C14.1015 11.5218 14.1035 11.5454 14.1007 11.5687L14.1005 11.5709C14.0565 12.0159 14.0753 12.7228 14.1794 13.4278C14.2829 14.1293 14.4738 14.8501 14.7865 15.3093C15.19 15.903 15.8033 16.0621 16.3784 15.9399C16.9474 15.8191 17.4858 15.4231 17.7697 14.8977C18.0378 14.4015 18.2153 14.0269 18.3154 13.7367C18.4148 13.4487 18.4439 13.2272 18.3942 13.0455M20.2673 10.4718C20.2291 10.4544 20.1857 10.4526 20.1462 10.4665C20.1067 10.4804 20.0742 10.5091 20.0553 10.5464M20.331 10.5183C20.3147 10.4985 20.2939 10.483 20.2703 10.473L20.2673 10.4718M20.331 10.5183C20.3473 10.5381 20.3585 10.5615 20.3637 10.5866ZM20.3637 10.5866C20.369 10.6117 20.368 10.6376 20.361 10.6623ZM20.361 10.6623C20.3539 10.6869 20.341 10.7095 20.3233 10.728ZM20.3233 10.728C20.3213 10.7301 20.3194 10.7322 20.3176 10.7345ZM20.3176 10.7345C20.1094 10.9872 19.8298 11.3543 19.5803 11.7695ZM19.5803 11.7695C19.3315 12.1834 19.1084 12.6521 19.0198 13.1073ZM17.0887 11.7428C17.0844 11.7519 17.0837 11.7622 17.0867 11.7718C17.0898 11.7817 17.0967 11.79 17.1058 11.795C17.3979 11.9485 17.6957 12.1814 17.9297 12.4102C18.0471 12.525 18.1503 12.6405 18.2298 12.7468C18.3072 12.8502 18.3695 12.9543 18.3942 13.0452M19.0198 13.1073L19.0196 13.1078ZM19.0196 13.1078C18.8967 13.7555 18.9622 14.2559 19.1717 14.6198ZM19.1717 14.6198C19.3825 14.9859 19.7288 15.1962 20.1292 15.2819ZM21.4807 14.3415C21.5293 14.3367 21.5784 14.3423 21.6246 14.3579C21.6709 14.3735 21.7133 14.3988 21.7491 14.432C21.7849 14.4652 21.8133 14.5057 21.8323 14.5507C21.8513 14.5956 21.8605 14.6442 21.8594 14.693C21.8583 14.7418 21.8468 14.7898 21.8257 14.8339C21.8055 14.8762 21.7769 14.9139 21.7416 14.9448C21.5844 15.1037 21.4179 15.253 21.243 15.3922C21.2405 15.3942 21.2378 15.3962 21.2351 15.398C21.2031 15.4193 21.1686 15.4384 21.1435 15.4523C21.1343 15.4574 21.1263 15.4618 21.1202 15.4653C21.0918 15.4818 21.0844 15.4897 21.0811 15.4944C21.0763 15.5014 21.0549 15.5396 21.0979 15.7289L21.0982 15.7305C21.114 15.8049 21.1807 15.8915 21.2935 15.9815C21.4023 16.0684 21.5361 16.1443 21.653 16.2019L21.6541 16.2025C21.7004 16.2259 21.7407 16.2597 21.7719 16.3013C21.803 16.3429 21.8241 16.3911 21.8336 16.4422C21.843 16.4933 21.8406 16.5458 21.8264 16.5958C21.8122 16.6458 21.7867 16.6918 21.7518 16.7303C21.7506 16.7316 21.7494 16.7329 21.7481 16.7342C21.7121 16.7705 21.6684 16.7983 21.6203 16.8157C21.5722 16.833 21.5208 16.8395 21.4699 16.8345C21.419 16.8296 21.3698 16.8134 21.326 16.7872C21.2822 16.7609 21.2447 16.7253 21.2163 16.6829C21.0641 16.4579 20.8469 16.2847 20.5938 16.1861C20.5726 16.1785 20.5516 16.1709 20.5307 16.1633C20.2541 16.0636 20.0051 15.9739 19.7922 15.9707C19.6823 15.9691 19.5904 15.9911 19.5131 16.0425C19.4358 16.094 19.3618 16.1824 19.3015 16.3334C19.2914 16.3587 19.2779 16.4221 19.2651 16.5336C19.2527 16.6406 19.242 16.7805 19.233 16.9498C19.2148 17.2882 19.2034 17.7386 19.1971 18.2673C19.1846 19.3245 19.1929 20.6903 19.2096 22.0903C19.2264 23.4986 19.2517 24.9424 19.2727 26.1397C19.2934 27.3209 19.3099 28.2623 19.3099 28.6933C19.3099 29.5135 19.7447 30.15 20.3536 30.6129C20.9642 31.0769 21.741 31.3584 22.3944 31.4628C22.4586 31.4731 22.5024 31.5335 22.4921 31.5977C22.4818 31.6619 22.4215 31.7056 22.3573 31.6953C21.673 31.5859 20.8581 31.292 20.2112 30.8003C19.5627 30.3074 19.0744 29.6081 19.0744 28.6933C19.0744 28.2633 19.058 27.3258 19.0374 26.1478C19.0164 24.951 18.9911 23.5061 18.9742 22.0932C18.9575 20.6927 18.9491 19.3247 18.9617 18.2645C18.9679 17.7346 18.9794 17.2805 18.9979 16.9372C19.0071 16.7657 19.018 16.6205 19.0312 16.5067C19.0438 16.3974 19.0596 16.3043 19.0829 16.246C19.1562 16.0626 19.2561 15.9307 19.3827 15.8465C19.5095 15.7622 19.6516 15.7331 19.7957 15.7353C20.0504 15.7391 20.337 15.8428 20.6013 15.9385C20.626 15.9474 20.6505 15.9563 20.6748 15.965L20.6777 15.966C20.9762 16.0819 21.2322 16.2861 21.4116 16.5513L21.4119 16.5519C21.421 16.5654 21.4329 16.5768 21.4469 16.5851C21.4608 16.5935 21.4764 16.5986 21.4926 16.6002C21.5088 16.6017 21.5251 16.5997 21.5404 16.5942C21.5549 16.589 21.568 16.5808 21.5791 16.5702C21.5888 16.559 21.5959 16.5458 21.5999 16.5315C21.6042 16.5164 21.6049 16.5005 21.6021 16.4851C21.5992 16.4696 21.5928 16.455 21.5834 16.4424C21.5741 16.43 21.562 16.4198 21.5482 16.4128C21.4242 16.3516 21.2739 16.2672 21.1466 16.1656C21.0233 16.0671 20.9018 15.9372 20.8681 15.7803C20.8263 15.5957 20.8182 15.4601 20.8877 15.3601C20.9217 15.3112 20.9668 15.2822 21.0018 15.2618C21.016 15.2536 21.0283 15.2468 21.04 15.2403C21.0603 15.2291 21.0786 15.2191 21.1005 15.2047C21.2678 15.0714 21.4271 14.9282 21.5774 14.776C21.5792 14.7741 21.5811 14.7724 21.583 14.7707C21.5837 14.7701 21.5844 14.7694 21.5852 14.7688C21.597 14.7588 21.6066 14.7463 21.6133 14.7323C21.62 14.7183 21.6236 14.7031 21.624 14.6875C21.6244 14.672 21.6214 14.6566 21.6154 14.6423C21.6093 14.628 21.6003 14.6151 21.5889 14.6046C21.5776 14.594 21.5641 14.586 21.5494 14.581C21.5347 14.5761 21.5191 14.5743 21.5036 14.5758C21.4882 14.5773 21.4732 14.5821 21.4597 14.5898C21.4463 14.5975 21.4346 14.608 21.4255 14.6206L21.4247 14.6216C21.3246 14.7566 21.1585 14.9514 20.9416 15.098C20.7237 15.2451 20.4452 15.3493 20.1292 15.2819M21.4807 14.3415C21.4321 14.3462 21.3851 14.3612 21.3427 14.3855ZM21.3427 14.3855C21.3005 14.4097 21.2639 14.4425 21.2353 14.4817ZM21.2353 14.4817C21.1428 14.6064 20.9954 14.7775 20.8098 14.9029C20.6249 15.0277 20.4115 15.1014 20.1784 15.0516" fill="#047857"/>
<g style="mix-blend-mode:multiply" opacity="0.5">
<path d="M16.2249 30.0318C16.2249 30.0318 15.9754 29.5532 15.2853 29.9741C14.5953 30.3951 14.5215 30.9714 14.0394 31.125C13.5573 31.2787 13.2534 31.1055 13.1575 31.5078C13.0616 31.9101 12.9657 32.0638 13.0421 32.1215C13.1185 32.1792 13.0998 31.6971 13.368 31.5851C13.6362 31.473 14.1158 31.451 14.4799 31.1607C14.844 30.8704 15.669 29.9173 16.2249 30.0318Z" fill="#047857"/>
</g>
<path fill-rule="evenodd" clip-rule="evenodd" d="M12.2697 16.3841C12.3014 16.3274 12.3732 16.3071 12.4299 16.3389C12.9103 16.6075 13.2678 17.052 13.4272 17.5788C13.4461 17.641 13.4109 17.7067 13.3487 17.7256C13.2864 17.7444 13.2207 17.7092 13.2019 17.647C13.0601 17.1785 12.7422 16.7833 12.315 16.5443C12.2582 16.5126 12.238 16.4409 12.2697 16.3841Z" fill="#047857"/>
<path fill-rule="evenodd" clip-rule="evenodd" d="M13.3605 17.6861C13.4246 17.6754 13.4853 17.7187 13.496 17.7828C13.5291 17.9809 13.5522 18.1806 13.5653 18.381C13.5695 18.4459 13.5203 18.5019 13.4555 18.5062C13.3906 18.5104 13.3346 18.4612 13.3303 18.3963C13.3177 18.2038 13.2955 18.0119 13.2638 17.8216C13.2531 17.7574 13.2964 17.6968 13.3605 17.6861Z" fill="#047857"/>
<path fill-rule="evenodd" clip-rule="evenodd" d="M13.5533 19.1181C13.6182 19.1159 13.6727 19.1667 13.675 19.2317L13.5573 19.2358L13.4396 19.2398C13.4374 19.1748 13.4883 19.1203 13.5533 19.1181ZM13.5573 19.2358C13.4396 19.2398 13.4396 19.2398 13.4396 19.2398L13.4417 19.3026C13.4431 19.3437 13.4451 19.4044 13.4475 19.4823C13.4525 19.6382 13.4593 19.8633 13.4671 20.14C13.4827 20.6935 13.5018 21.4532 13.5163 22.2786C13.5453 23.9314 13.5553 25.8406 13.4806 26.8857C13.476 26.9505 13.5248 27.0068 13.5897 27.0115C13.6545 27.0161 13.7108 26.9673 13.7155 26.9024C13.791 25.8451 13.7807 23.9252 13.7517 22.2745C13.7372 21.448 13.718 20.6874 13.7025 20.1334C13.6947 19.8564 13.6878 19.631 13.6829 19.4749C13.6804 19.3968 13.6784 19.336 13.6771 19.2948L13.675 19.2317C13.675 19.2317 13.675 19.2317 13.5573 19.2358Z" fill="#047857"/>
<path fill-rule="evenodd" clip-rule="evenodd" d="M13.6038 27.0633C13.6688 27.0665 13.7188 27.1217 13.7156 27.1866L13.598 27.1808L13.4805 27.175C13.4837 27.1101 13.5389 27.0601 13.6038 27.0633ZM13.598 27.1808L13.4805 27.175L13.4775 27.2346C13.4756 27.2727 13.4728 27.3274 13.4694 27.3937C13.4626 27.5263 13.4533 27.7054 13.443 27.8912C13.4224 28.2663 13.3987 28.6596 13.3854 28.7632C13.3771 28.8277 13.4227 28.8867 13.4871 28.895C13.5516 28.9032 13.6106 28.8577 13.6189 28.7932C13.6336 28.6786 13.6578 28.2733 13.6781 27.9042C13.6884 27.718 13.6978 27.5386 13.7046 27.4058C13.708 27.3394 13.7107 27.2846 13.7127 27.2464L13.7156 27.1866L13.598 27.1808Z" fill="#047857"/>
<path fill-rule="evenodd" clip-rule="evenodd" d="M14.127 20.2782C14.192 20.2765 14.2461 20.3277 14.2479 20.3927L14.2759 21.4163C14.2776 21.4813 14.2264 21.5354 14.1614 21.5372C14.0964 21.539 14.0423 21.4877 14.0405 21.4227L14.0125 20.3991C14.0107 20.3342 14.062 20.28 14.127 20.2782Z" fill="#047857"/>
<path fill-rule="evenodd" clip-rule="evenodd" d="M14.1697 21.6431C14.2347 21.6419 14.2884 21.6937 14.2895 21.7587L14.1718 21.7608L14.0541 21.7629C14.0529 21.6979 14.1047 21.6442 14.1697 21.6431ZM14.1718 21.7608C14.0541 21.7629 14.0541 21.7628 14.0541 21.7629L14.0569 21.93C14.0587 22.0374 14.0611 22.1921 14.0639 22.3818C14.0694 22.7611 14.0762 23.2801 14.0812 23.8388C14.0914 24.9574 14.0948 26.2307 14.0678 26.8619C14.065 26.9268 14.1154 26.9817 14.1804 26.9845C14.2453 26.9873 14.3002 26.9369 14.303 26.8719C14.3303 26.2334 14.3269 24.9536 14.3167 23.8366C14.3116 23.2774 14.3048 22.758 14.2993 22.3784C14.2965 22.1885 14.2941 22.0336 14.2923 21.9262L14.2895 21.7587C14.2895 21.7587 14.2895 21.7587 14.1718 21.7608Z" fill="#047857"/>
<path fill-rule="evenodd" clip-rule="evenodd" d="M14.6874 27.5962C14.7524 27.5946 14.8064 27.6459 14.808 27.7109L14.8216 28.2431C14.8233 28.3081 14.7719 28.3621 14.7069 28.3638C14.6419 28.3654 14.5879 28.3141 14.5863 28.2491L14.5727 27.7169C14.571 27.6519 14.6224 27.5979 14.6874 27.5962Z" fill="#047857"/>
<path fill-rule="evenodd" clip-rule="evenodd" d="M18.3729 12.8118C18.4296 12.7798 18.5014 12.7997 18.5334 12.8563L18.4309 12.9143C18.5334 12.8563 18.5334 12.8564 18.5334 12.8565L18.5335 12.8566L18.5336 12.8568L18.5339 12.8573L18.5346 12.8585L18.5362 12.8617C18.5375 12.8641 18.539 12.8671 18.5407 12.8707C18.5442 12.878 18.5485 12.8877 18.5533 12.9001C18.5629 12.9247 18.5744 12.9595 18.5845 13.0047C18.6047 13.0954 18.6192 13.2271 18.6033 13.4027L18.6029 13.4067L18.6028 13.4067C18.5724 13.6503 18.5043 13.8877 18.401 14.1105C18.3736 14.1694 18.3036 14.1951 18.2447 14.1677C18.1857 14.1403 18.1601 14.0704 18.1874 14.0114C18.2802 13.8114 18.3414 13.5982 18.369 13.3795C18.3824 13.2286 18.3694 13.122 18.3547 13.0559C18.3473 13.0227 18.3394 12.9994 18.334 12.9856C18.3313 12.9788 18.3292 12.9742 18.3282 12.972C18.3278 12.9713 18.3276 12.9708 18.3275 12.9706C18.3275 12.9706 18.3275 12.9706 18.3275 12.9706C18.3274 12.9704 18.3274 12.9704 18.3274 12.9704L18.3276 12.9708L18.3279 12.9714L18.3281 12.9718L18.3282 12.972" fill="#047857"/>
<path fill-rule="evenodd" clip-rule="evenodd" d="M18.2798 14.1606C18.3377 14.1902 18.3607 14.2611 18.3312 14.319L18.2263 14.2655L18.1215 14.2119C18.151 14.154 18.2219 14.131 18.2798 14.1606ZM18.1215 14.2119L18.2263 14.2655L18.3312 14.319L18.3274 14.3264L18.3167 14.3471C18.3075 14.365 18.2942 14.3907 18.278 14.4218C18.2456 14.484 18.2014 14.5682 18.154 14.6559C18.1067 14.7435 18.0559 14.8353 18.0106 14.9126C17.9675 14.986 17.9233 15.0571 17.8901 15.0946C17.8471 15.1433 17.7727 15.1479 17.724 15.1048C17.6753 15.0618 17.6707 14.9874 17.7137 14.9386C17.729 14.9214 17.7619 14.8712 17.8075 14.7935C17.8508 14.7197 17.9001 14.6306 17.9468 14.544C17.9934 14.4577 18.0371 14.3746 18.0692 14.313C18.0852 14.2823 18.0983 14.257 18.1074 14.2393L18.1178 14.219L18.1215 14.2119Z" fill="#047857"/>
<path fill-rule="evenodd" clip-rule="evenodd" d="M13.4114 15.1831C13.4554 15.231 13.4522 15.3055 13.4044 15.3494C13.2344 15.5056 13.0284 15.6173 12.8047 15.6745C12.5811 15.7317 12.3468 15.7328 12.1227 15.6775C12.0596 15.6619 12.021 15.5981 12.0366 15.535C12.0522 15.4719 12.116 15.4333 12.1791 15.4489C12.3655 15.4949 12.5604 15.494 12.7464 15.4464C12.9324 15.3988 13.1037 15.3059 13.2451 15.176C13.293 15.1321 13.3674 15.1352 13.4114 15.1831Z" fill="#047857"/>
<path fill-rule="evenodd" clip-rule="evenodd" d="M14.1031 27.6233C14.1681 27.6233 14.2208 27.676 14.2208 27.741V30.2805C14.2208 30.2922 14.219 30.304 14.2155 30.3152L14.1031 30.2805C14.2155 30.3152 14.2155 30.3153 14.2155 30.3154L14.2154 30.3156L14.2153 30.316L14.215 30.3169L14.2143 30.319L14.2122 30.3249C14.2106 30.3295 14.2083 30.3354 14.2053 30.3424C14.1993 30.3565 14.1903 30.3754 14.1775 30.398C14.1518 30.4433 14.1108 30.5034 14.0469 30.5711C13.9188 30.7067 13.7016 30.8695 13.3386 31.0045C13.3334 31.0064 13.3281 31.008 13.3226 31.0092C13.1532 31.046 13.0024 31.1419 12.8972 31.2796L12.8962 31.2808L12.8962 31.2808C12.8294 31.3661 12.7771 31.4433 12.7243 31.5213C12.6941 31.566 12.6637 31.6109 12.6303 31.6577C12.5417 31.7818 12.4419 31.9032 12.2942 32.0195C12.2431 32.0598 12.1691 32.051 12.1289 31.9999C12.0887 31.9488 12.0975 31.8748 12.1485 31.8346C12.2724 31.737 12.3573 31.6348 12.4386 31.5209C12.4654 31.4834 12.493 31.4427 12.5221 31.3998C12.5782 31.3172 12.6397 31.2265 12.7105 31.1361C12.8479 30.9566 13.0438 30.831 13.264 30.781C13.5924 30.6577 13.7759 30.5151 13.8757 30.4094C13.9262 30.356 13.956 30.3112 13.9726 30.2819C13.9783 30.272 13.9824 30.2638 13.9853 30.2576V27.741C13.9853 27.676 14.038 27.6233 14.1031 27.6233Z" fill="#047857"/>
<path fill-rule="evenodd" clip-rule="evenodd" d="M14.5303 18.7174C14.5953 18.7162 14.649 18.7679 14.6502 18.8329L14.7674 24.9515C14.7686 25.0165 14.7169 25.0702 14.6519 25.0715C14.5869 25.0727 14.5332 25.021 14.5319 24.956L14.4148 18.8374C14.4136 18.7724 14.4653 18.7187 14.5303 18.7174Z" fill="#047857"/>
<path fill-rule="evenodd" clip-rule="evenodd" d="M14.9643 30.8538C14.8507 30.9631 14.7374 31.0721 14.6269 31.1632C14.3969 31.353 14.2301 31.4438 14.1145 31.4862C14.0564 31.5075 14.0106 31.5168 13.9759 31.52C13.9586 31.5216 13.9441 31.5217 13.9324 31.521C13.9265 31.5207 13.9213 31.5202 13.9169 31.5196C13.9146 31.5193 13.9126 31.5189 13.9107 31.5186L13.908 31.5181L13.9068 31.5179L13.9062 31.5177L13.9059 31.5177C13.9058 31.5176 13.9056 31.5176 13.9303 31.4046L13.9056 31.5176C13.8421 31.5037 13.8018 31.441 13.8157 31.3775C13.829 31.3169 13.8866 31.2775 13.947 31.286C13.9483 31.286 13.9507 31.2859 13.9541 31.2856C13.9662 31.2845 13.992 31.2803 14.0334 31.2651C14.1168 31.2345 14.2607 31.1602 14.4771 30.9816C14.5804 30.8963 14.6878 30.7931 14.8039 30.6815C14.8084 30.6771 14.813 30.6727 14.8176 30.6683C14.9375 30.5529 15.0657 30.4303 15.2008 30.3189C15.469 30.0979 15.7826 29.9056 16.1451 29.9056C16.4906 29.9056 16.7495 30.0107 16.9229 30.1175C17.0093 30.1707 17.0743 30.2243 17.1183 30.2652C17.1403 30.2857 17.1571 30.3031 17.1688 30.3158C17.1746 30.3222 17.1792 30.3274 17.1825 30.3313L17.1865 30.336L17.1877 30.3376L17.1882 30.3382L17.1884 30.3384L17.1885 30.3385C17.1885 30.3386 17.1885 30.3386 17.1021 30.4077L17.1886 30.3386C17.2291 30.3894 17.2209 30.4635 17.1701 30.5041C17.1193 30.5447 17.0452 30.5364 17.0046 30.4856L17.0966 30.4121C17.0046 30.4856 17.0047 30.4856 17.0047 30.4857L17.0047 30.4858L17.0048 30.4859L17.0034 30.4842C17.0018 30.4823 16.9991 30.4792 16.9952 30.475C16.9874 30.4664 16.9749 30.4535 16.9578 30.4375C16.9235 30.4056 16.8708 30.3619 16.7994 30.318C16.6573 30.2304 16.4405 30.1411 16.1451 30.1411C15.8669 30.1411 15.6072 30.2892 15.3506 30.5006C15.2234 30.6054 15.1013 30.722 14.9808 30.838C14.9753 30.8432 14.9698 30.8485 14.9643 30.8538Z" fill="#047857"/>
<path fill-rule="evenodd" clip-rule="evenodd" d="M17.122 30.4418C17.1806 30.4137 17.251 30.4384 17.2791 30.497C17.3552 30.6554 17.4047 30.8253 17.4257 30.9999C17.4334 31.0644 17.3874 31.123 17.3228 31.1308C17.2583 31.1385 17.1997 31.0925 17.1919 31.0279C17.174 30.879 17.1318 30.7341 17.0669 30.5989C17.0387 30.5403 17.0634 30.47 17.122 30.4418Z" fill="#047857"/>
<path fill-rule="evenodd" clip-rule="evenodd" d="M18.1361 30.0083C18.0402 30.0167 17.958 30.0573 17.8915 30.1497C17.7582 30.3352 17.8078 30.56 17.9233 30.7703C17.9793 30.8721 18.0459 30.9611 18.0993 31.025C18.1258 31.0568 18.1487 31.082 18.1647 31.099C18.1727 31.1075 18.1789 31.1139 18.183 31.1181L18.1876 31.1227L18.1885 31.1236C18.2352 31.1689 18.2363 31.2435 18.1911 31.2901C18.1458 31.3368 18.0713 31.3379 18.0246 31.2926L18.1066 31.2082C18.0246 31.2926 18.0246 31.2927 18.0246 31.2926L18.0243 31.2923L18.0237 31.2918L18.0219 31.2899L18.0155 31.2835C18.0101 31.2781 18.0025 31.2703 17.9932 31.2603C17.9744 31.2404 17.9484 31.2117 17.9185 31.1758C17.8589 31.1044 17.7824 31.0028 17.717 30.8836C17.5897 30.6519 17.484 30.3132 17.7004 30.0123C17.8088 29.8615 17.9547 29.7879 18.1156 29.7738C18.2709 29.7602 18.4341 29.8024 18.5877 29.8683C18.895 30.0003 19.203 30.2443 19.4117 30.443C19.4588 30.4879 19.4606 30.5624 19.4158 30.6095C19.3709 30.6566 19.2964 30.6584 19.2493 30.6136C19.0498 30.4235 18.7653 30.2008 18.4948 30.0847C18.3595 30.0266 18.2375 29.9995 18.1361 30.0083Z" fill="#047857"/>
<path fill-rule="evenodd" clip-rule="evenodd" d="M19.7301 30.6768C19.7098 30.6287 19.659 30.5984 19.6049 30.6062C19.5405 30.6154 19.4959 30.6751 19.5051 30.7395L19.6216 30.7227C19.5051 30.7395 19.5052 30.7398 19.5052 30.7401L19.5053 30.7407L19.5055 30.7419L19.5059 30.7444C19.5062 30.7461 19.5066 30.7478 19.507 30.7494C19.5077 30.7528 19.5087 30.7562 19.5097 30.7596C19.5119 30.7664 19.5146 30.7732 19.5179 30.7801C19.5244 30.7938 19.5334 30.8078 19.5451 30.8225C19.5682 30.8514 19.6044 30.8858 19.6621 30.9274C19.7768 31.01 19.9892 31.1301 20.3884 31.2958C20.3899 31.2966 20.3923 31.2979 20.3953 31.2996C20.4023 31.3035 20.4127 31.3097 20.4248 31.3179C20.4496 31.335 20.4779 31.3584 20.4994 31.3865C20.5205 31.4141 20.5321 31.4419 20.533 31.471C20.5339 31.4989 20.5254 31.5421 20.4807 31.6023C20.3115 31.8152 20.1219 32.0111 19.9147 32.187C19.8651 32.2291 19.859 32.3034 19.9011 32.353C19.9432 32.4025 20.0175 32.4086 20.0671 32.3665C20.2865 32.1802 20.4871 31.9728 20.6661 31.7474L20.6662 31.7474L20.6682 31.7447C20.7389 31.6503 20.7713 31.5556 20.7684 31.4635C20.7655 31.3724 20.7284 31.2984 20.6863 31.2433C20.6446 31.1889 20.595 31.1492 20.5579 31.1238C20.539 31.1108 20.5224 31.1009 20.5101 31.094C20.504 31.0906 20.4989 31.0879 20.4951 31.086L20.4903 31.0836L20.4887 31.0828L20.4881 31.0825L20.4879 31.0824L20.4878 31.0823C20.4877 31.0823 20.4877 31.0823 20.4373 31.1887L20.4877 31.0823C20.4859 31.0815 20.4842 31.0807 20.4824 31.0799C20.0879 30.9163 19.8935 30.8039 19.7997 30.7364C19.7553 30.7044 19.7365 30.6846 19.7301 30.6768ZM20.3863 31.2948C20.3863 31.2948 20.3863 31.2948 20.3864 31.2948L20.3863 31.2948Z" fill="#047857"/>
<path fill-rule="evenodd" clip-rule="evenodd" d="M13.8888 31.401C13.9107 31.4622 13.8789 31.5296 13.8177 31.5516C13.6855 31.599 13.577 31.696 13.5152 31.8221C13.4592 31.9448 13.4326 32.0213 13.4202 32.0648C13.414 32.0865 13.4114 32.0994 13.4105 32.1052C13.4102 32.1065 13.4101 32.1074 13.41 32.108C13.41 32.108 13.41 32.108 13.41 32.108C13.41 32.1085 13.4099 32.1087 13.4099 32.1087C13.4099 32.1087 13.41 32.1087 13.41 32.1086L13.4101 32.1064L13.4102 32.1045L13.4102 32.1033L13.4102 32.1026L13.4102 32.1023M13.2925 32.1019C13.1747 32.1019 13.1747 32.1018 13.1747 32.1018L13.1747 32.1016L13.1747 32.1012L13.1748 32.1005L13.1748 32.0989L13.1749 32.0956C13.175 32.0933 13.1752 32.0907 13.1754 32.0878C13.1759 32.0821 13.1768 32.0752 13.1781 32.0671C13.1808 32.0508 13.1855 32.0289 13.1938 31.9999C13.2104 31.9421 13.2418 31.8539 13.3017 31.7229L13.3029 31.7202L13.3029 31.7202C13.3915 31.5383 13.5478 31.3983 13.7382 31.3299C13.7994 31.308 13.8668 31.3398 13.8888 31.401" fill="#047857"/>
<path fill-rule="evenodd" clip-rule="evenodd" d="M20.5751 31.9697C20.6883 31.8288 20.8741 31.6541 21.1163 31.6541C21.3249 31.6541 21.576 31.7343 21.7645 31.8076C21.8611 31.8451 21.9455 31.8826 22.0058 31.9107C22.036 31.9247 22.0602 31.9365 22.0771 31.9448C22.0855 31.949 22.0921 31.9523 22.0966 31.9546L22.1019 31.9572L22.1033 31.958L22.1037 31.9582C22.1038 31.9582 22.104 31.9583 22.0513 32.0601L22.1037 31.9582C22.1615 31.988 22.1844 32.0592 22.1545 32.1169C22.1247 32.1747 22.0537 32.1973 21.9959 32.1675C21.9959 32.1675 21.9959 32.1675 21.9959 32.1675L21.9947 32.1669L21.9904 32.1647C21.9865 32.1627 21.9806 32.1598 21.9729 32.156C21.9575 32.1484 21.9348 32.1374 21.9064 32.1241C21.8495 32.0976 21.7699 32.0623 21.6792 32.0271C21.4935 31.9548 21.2777 31.8895 21.1163 31.8895C20.9884 31.8895 20.8636 31.9864 20.7587 32.1171C20.709 32.179 20.6693 32.2415 20.6421 32.2889C20.6285 32.3124 20.6182 32.3319 20.6114 32.3452C20.608 32.3519 20.6054 32.357 20.6038 32.3603L20.6021 32.3638L20.6019 32.3644C20.5746 32.4234 20.5046 32.4491 20.4456 32.4218C20.3866 32.3945 20.3609 32.3246 20.3882 32.2656L20.495 32.315C20.3882 32.2656 20.3881 32.2656 20.3882 32.2656L20.3883 32.2652L20.3886 32.2647L20.3893 32.263L20.392 32.2575C20.3943 32.2528 20.3975 32.2463 20.4017 32.2381C20.4101 32.2217 20.4223 32.1987 20.438 32.1713C20.4694 32.1169 20.5157 32.0436 20.5751 31.9697Z" fill="#047857"/>
<path fill-rule="evenodd" clip-rule="evenodd" d="M18.5853 19.9048C18.6503 19.9048 18.703 19.9575 18.703 20.0225V27.2335C18.703 27.2985 18.6503 27.3512 18.5853 27.3512C18.5203 27.3512 18.4676 27.2985 18.4676 27.2335V20.0225C18.4676 19.9575 18.5203 19.9048 18.5853 19.9048Z" fill="#047857"/>
<path fill-rule="evenodd" clip-rule="evenodd" d="M18.8612 24.8292C18.9262 24.8288 18.9793 24.8811 18.9797 24.9461L19.0043 28.5635C19.0048 28.6285 18.9524 28.6816 18.8874 28.6821C18.8224 28.6825 18.7693 28.6301 18.7689 28.5651L18.7443 24.9478C18.7438 24.8827 18.7962 24.8297 18.8612 24.8292Z" fill="#047857"/>
<path fill-rule="evenodd" clip-rule="evenodd" d="M18.5894 27.5649C18.6544 27.5672 18.7053 27.6217 18.703 27.6867L18.7027 27.6945L18.702 27.7174C18.7014 27.7374 18.7005 27.7667 18.6996 27.8034C18.6976 27.8768 18.6953 27.9799 18.6938 28.0987C18.6907 28.3367 18.6908 28.6353 18.7029 28.8829C18.7135 29.0993 18.8167 29.2766 18.9236 29.4036C18.9766 29.4666 19.029 29.5154 19.0679 29.5482C19.0873 29.5646 19.1032 29.5768 19.1139 29.5848C19.1192 29.5887 19.1232 29.5916 19.1257 29.5934L19.1283 29.5952C19.1284 29.5952 19.1283 29.5952 19.1283 29.5952M19.1283 29.5952C19.1824 29.6313 19.1972 29.7045 19.1611 29.7585C19.1251 29.8126 19.052 29.8273 18.9979 29.7912L19.0631 29.6934C18.9979 29.7912 18.9979 29.7912 18.9979 29.7912L18.9975 29.7909L18.997 29.7906L18.9954 29.7895L18.9904 29.7861C18.9863 29.7832 18.9805 29.779 18.9734 29.7738C18.9593 29.7632 18.9395 29.748 18.9161 29.7281C18.8692 29.6886 18.8068 29.6305 18.7434 29.5551C18.6175 29.4054 18.4818 29.1804 18.4677 28.8944C18.4553 28.6395 18.4553 28.335 18.4584 28.0956C18.4599 27.9757 18.4623 27.8715 18.4642 27.7973C18.4652 27.7602 18.466 27.7305 18.4667 27.7101L18.4674 27.6867L18.4677 27.6786C18.4699 27.6136 18.5245 27.5626 18.5894 27.5649" fill="#047857"/>
<path fill-rule="evenodd" clip-rule="evenodd" d="M18.1329 19.4023C18.1979 19.4023 18.2506 19.4551 18.2506 19.5201V22.0324C18.2506 22.0974 18.1979 22.1501 18.1329 22.1501C18.0679 22.1501 18.0152 22.0974 18.0152 22.0324V19.5201C18.0152 19.4551 18.0679 19.4023 18.1329 19.4023Z" fill="#047857"/>
<path fill-rule="evenodd" clip-rule="evenodd" d="M17.4888 15.4248C17.5296 15.3742 17.6037 15.3663 17.6543 15.4071C17.7049 15.4479 17.7128 15.522 17.672 15.5726L17.5806 15.4989C17.672 15.5726 17.672 15.5726 17.672 15.5726L17.6717 15.573L17.6713 15.5735L17.6697 15.5754L17.6644 15.5818C17.6599 15.5872 17.6533 15.5949 17.6448 15.6046C17.6278 15.6239 17.6031 15.6511 17.5714 15.6837C17.508 15.7488 17.416 15.836 17.3008 15.9249C17.0725 16.1013 16.7427 16.2924 16.358 16.3198C15.9794 16.3467 15.6446 16.2385 15.4075 16.1264C15.2884 16.0701 15.1924 16.0122 15.1258 15.968C15.0925 15.9459 15.0664 15.9272 15.0483 15.9138C15.0393 15.9071 15.0323 15.9017 15.0274 15.8978L15.0215 15.8932L15.0198 15.8918L15.0193 15.8914L15.019 15.8912C15.019 15.8911 15.019 15.8911 15.0935 15.8L15.019 15.8912C14.9687 15.85 14.9613 15.7757 15.0024 15.7254C15.0436 15.6752 15.1177 15.6677 15.168 15.7089L15.1687 15.7094L15.1725 15.7124C15.176 15.7151 15.1815 15.7194 15.189 15.7249C15.2039 15.736 15.2264 15.7523 15.2559 15.7718C15.3149 15.8109 15.401 15.8629 15.5081 15.9135C15.7231 16.0151 16.0164 16.108 16.3413 16.0849C16.6603 16.0622 16.9459 15.9015 17.1569 15.7386C17.2615 15.6578 17.3452 15.5785 17.4027 15.5195C17.4313 15.49 17.4533 15.4658 17.4679 15.4492C17.4752 15.4409 17.4806 15.4345 17.4842 15.4303L17.4879 15.4258L17.4888 15.4248ZM15.168 15.7089C15.168 15.7089 15.168 15.7089 15.168 15.7089Z" fill="#047857"/>
<path fill-rule="evenodd" clip-rule="evenodd" d="M13.6221 16.7382C13.674 16.699 13.7478 16.7092 13.787 16.7611C14.1025 17.1783 14.2611 17.6931 14.2353 18.2153L14.281 20.0196C14.2827 20.0846 14.2313 20.1386 14.1663 20.1402C14.1013 20.1419 14.0473 20.0905 14.0456 20.0255L13.9998 18.2168C13.9997 18.2138 13.9998 18.2108 13.9999 18.2078C14.0241 17.7393 13.8822 17.2773 13.5992 16.9031C13.56 16.8512 13.5702 16.7774 13.6221 16.7382Z" fill="#047857"/>
<path fill-rule="evenodd" clip-rule="evenodd" d="M13.9261 30.5963C13.9261 30.5964 13.9261 30.5965 13.8138 30.6246L13.9261 30.5965C13.9419 30.6595 13.9036 30.7235 13.8406 30.7393C13.7785 30.7549 13.7156 30.718 13.6985 30.6567C13.6984 30.6565 13.6983 30.656 13.6981 30.6554C13.6971 30.6529 13.695 30.6482 13.6915 30.6424C13.6846 30.6309 13.6727 30.6163 13.6525 30.6047C13.6168 30.584 13.5157 30.552 13.2822 30.657C13.0467 30.7628 12.7056 31.011 12.3915 31.2687C12.0789 31.5251 11.8083 31.778 11.7145 31.8839C11.6713 31.9325 11.5969 31.9369 11.5483 31.8938C11.4996 31.8506 11.4952 31.7762 11.5383 31.7276C11.6448 31.6076 11.9268 31.3454 12.2422 31.0866C12.5562 30.8291 12.9187 30.5622 13.1857 30.4422C13.4546 30.3213 13.6425 30.3271 13.7702 30.4007C13.8317 30.4362 13.8701 30.4827 13.893 30.5207C13.9045 30.5396 13.9122 30.5567 13.9174 30.5698C13.9199 30.5763 13.9219 30.582 13.9233 30.5865C13.924 30.5888 13.9246 30.5907 13.925 30.5924L13.9257 30.5947L13.9259 30.5956L13.926 30.5961L13.9261 30.5963Z" fill="#047857"/>
<path d="M12.4726 11.0283C12.4726 11.0283 13.7737 12.1622 15.2735 10.895Z" fill="#047857"/>
<path fill-rule="evenodd" clip-rule="evenodd" d="M15.3634 10.8191C15.4054 10.8688 15.3991 10.943 15.3494 10.985C14.5684 11.6449 13.8288 11.6845 13.2827 11.5513C13.0123 11.4853 12.7919 11.3778 12.6391 11.2869C12.5626 11.2414 12.5026 11.1998 12.4613 11.1692C12.4407 11.1539 12.4247 11.1413 12.4136 11.1323C12.408 11.1278 12.4037 11.1243 12.4006 11.1217L12.397 11.1186L12.3959 11.1176L12.3955 11.1173L12.3954 11.1172C12.3953 11.1171 12.3952 11.1171 12.4715 11.0295L12.3952 11.1171C12.3462 11.0744 12.3411 11 12.3838 10.951C12.4265 10.902 12.5008 10.8969 12.5498 10.9394L12.5501 10.9397L12.5521 10.9414C12.554 10.943 12.5572 10.9457 12.5616 10.9492C12.5702 10.9562 12.5837 10.9668 12.6015 10.98C12.6372 11.0065 12.6906 11.0435 12.7595 11.0845C12.8976 11.1667 13.0962 11.2634 13.3385 11.3225C13.8179 11.4395 14.4788 11.4124 15.1975 10.8051C15.2472 10.7632 15.3214 10.7694 15.3634 10.8191Z" fill="#047857"/>
<path d="M10.5706 13.2299C10.5706 13.2299 11.1384 13.931 11.8717 13.0967Z" fill="#047857"/>
<path fill-rule="evenodd" clip-rule="evenodd" d="M11.9494 13.0083C11.9982 13.0512 12.003 13.1256 11.9601 13.1745C11.7666 13.3947 11.5768 13.5216 11.3959 13.5813C11.2139 13.6414 11.0492 13.6306 10.9119 13.5889C10.7762 13.5476 10.6689 13.4768 10.5964 13.4178C10.5599 13.388 10.5314 13.3607 10.5117 13.3403C10.5019 13.3301 10.4942 13.3216 10.4887 13.3154C10.486 13.3123 10.4838 13.3098 10.4822 13.3078L10.4802 13.3055L10.4795 13.3046L10.4793 13.3043L10.4792 13.3042C10.4791 13.3041 10.4791 13.3041 10.5705 13.23L10.4791 13.3041C10.4381 13.2536 10.4459 13.1794 10.4965 13.1385C10.5469 13.0977 10.6208 13.1053 10.6617 13.1555L10.6622 13.1561L10.6655 13.1599C10.6687 13.1635 10.6739 13.1693 10.681 13.1767C10.6953 13.1914 10.7169 13.2123 10.7451 13.2352C10.802 13.2816 10.8825 13.3339 10.9803 13.3636C11.0766 13.3928 11.1914 13.4009 11.3221 13.3577C11.4539 13.3142 11.6102 13.216 11.7833 13.019C11.8262 12.9702 11.9006 12.9654 11.9494 13.0083Z" fill="#047857"/>
<path d="M9.9705 14.1975C9.9705 14.1975 10.3041 15.0649 9.23633 14.9614Z" fill="#047857"/>
<path fill-rule="evenodd" clip-rule="evenodd" d="M9.92824 14.0876C9.98893 14.0643 10.057 14.0945 10.0804 14.1552L9.97049 14.1975C10.0804 14.1552 10.0804 14.1553 10.0804 14.1553L10.0805 14.1555L10.0806 14.1558L10.081 14.1567L10.082 14.1596C10.0828 14.1618 10.0839 14.1649 10.0853 14.1688C10.0879 14.1765 10.0915 14.1873 10.0955 14.2008C10.1035 14.2276 10.1135 14.2653 10.1217 14.3102C10.1378 14.3982 10.1487 14.5219 10.1181 14.6463C10.0867 14.7745 10.0109 14.9031 9.85913 14.9883C9.71147 15.0712 9.50504 15.1057 9.22496 15.0785C9.16025 15.0722 9.11287 15.0147 9.11915 14.95C9.12543 14.8853 9.18297 14.8379 9.24769 14.8442C9.50147 14.8688 9.65375 14.8336 9.74384 14.783C9.82984 14.7347 9.87089 14.6659 9.88948 14.5902C9.90899 14.5107 9.90319 14.4239 9.89013 14.3526C9.88375 14.3177 9.87601 14.2885 9.86996 14.2683C9.86694 14.2582 9.86439 14.2505 9.86269 14.2456L9.86084 14.2404L9.86061 14.2397C9.8606 14.2397 9.86059 14.2397 9.86057 14.2396M9.92824 14.0876C9.86759 14.1109 9.83731 14.179 9.86057 14.2396Z" fill="#047857"/>
<path d="M9.30334 15.8323C9.30334 15.8323 9.97046 16.002 9.70311 16.6335Z" fill="#047857"/>
<path fill-rule="evenodd" clip-rule="evenodd" d="M9.18927 15.8032C9.2053 15.7402 9.26938 15.7021 9.33239 15.7181L9.30336 15.8322C9.33239 15.7181 9.33245 15.7182 9.33251 15.7182L9.33264 15.7182L9.33296 15.7183L9.33377 15.7185L9.33611 15.7191L9.34356 15.7212C9.34971 15.723 9.35818 15.7256 9.36855 15.729C9.38926 15.7359 9.41785 15.7463 9.45099 15.7609C9.51654 15.7899 9.60368 15.837 9.68274 15.909C9.76242 15.9815 9.83629 16.0816 9.86797 16.2146C9.8998 16.3482 9.8862 16.503 9.81153 16.6794C9.78618 16.7392 9.7171 16.7672 9.65723 16.7419C9.59735 16.7165 9.56937 16.6474 9.59471 16.5876C9.65372 16.4482 9.657 16.345 9.63893 16.2691C9.62073 16.1927 9.57794 16.132 9.52426 16.0831C9.46997 16.0337 9.40704 15.9989 9.35585 15.9763C9.33063 15.9652 9.30919 15.9574 9.29446 15.9525C9.28711 15.9501 9.28151 15.9484 9.27801 15.9474L9.27442 15.9464L9.27392 15.9462C9.27391 15.9462 9.27394 15.9462 9.27401 15.9462L9.27414 15.9463L9.27423 15.9463C9.21128 15.9302 9.17325 15.8662 9.18927 15.8032Z" fill="#047857"/>
<path d="M16.1426 11.6623C16.1426 11.6623 16.1426 11.9959 16.8097 11.9959C17.4768 11.9959 17.3105 11.2617 17.3105 11.2617" fill="#047857"/>
<path fill-rule="evenodd" clip-rule="evenodd" d="M17.2845 11.1469C17.3479 11.1325 17.411 11.1722 17.4253 11.2357L17.3105 11.2617C17.4253 11.2357 17.4253 11.2357 17.4253 11.2358L17.4254 11.2359L17.4254 11.2362L17.4256 11.237L17.4261 11.2394L17.4277 11.2472C17.429 11.2538 17.4307 11.263 17.4326 11.2744C17.4363 11.2972 17.4406 11.3293 17.4435 11.3676C17.4492 11.4432 17.4495 11.5477 17.4251 11.6549C17.4006 11.7624 17.3496 11.8794 17.2472 11.9695C17.1434 12.0609 16.9991 12.1136 16.8097 12.1136C16.458 12.1136 16.256 12.0256 16.1428 11.9123C16.0867 11.8562 16.0569 11.7982 16.0414 11.7516C16.0337 11.7286 16.0296 11.7086 16.0274 11.6933C16.0263 11.6856 16.0257 11.6791 16.0253 11.6739C16.0252 11.6713 16.025 11.669 16.025 11.667L16.0249 11.6644L16.0249 11.6633L16.0249 11.6628L16.0249 11.6625C16.0249 11.6624 16.0249 11.6623 16.1401 11.6623H16.0249C16.0249 11.5973 16.0776 11.5446 16.1426 11.5446C16.2064 11.5446 16.2583 11.5953 16.2603 11.6586C16.2603 11.6589 16.2604 11.6594 16.2605 11.66C16.2609 11.6629 16.262 11.669 16.2647 11.6772C16.2701 11.6932 16.2819 11.7185 16.3093 11.7458C16.3628 11.7993 16.4943 11.8781 16.8097 11.8781C16.9539 11.8781 17.0391 11.839 17.0917 11.7927C17.1457 11.7452 17.1782 11.6787 17.1955 11.6026C17.2129 11.5263 17.2133 11.4473 17.2087 11.3852C17.2064 11.3547 17.2029 11.3293 17.2001 11.312C17.1987 11.3034 17.1975 11.2968 17.1967 11.2926L17.1958 11.2882L17.1957 11.2877C17.1957 11.2877 17.1957 11.2876 17.1957 11.2876M17.2845 11.1469C17.2211 11.1612 17.1814 11.2242 17.1957 11.2876Z" fill="#047857"/>
<path d="M19.4451 10.0284C19.4451 10.0284 19.3449 10.7626 20.1793 10.996C21.0136 11.2294 21.5135 10.4282 21.5135 10.4282" fill="#047857"/>
<path fill-rule="evenodd" clip-rule="evenodd" d="M19.5617 10.0443C19.5617 10.0443 19.5617 10.0443 19.5617 10.0443L19.5617 10.0443L19.5618 10.0442L19.5618 10.044L19.5618 10.0439C19.5618 10.0439 19.5618 10.044 19.5617 10.0444L19.5613 10.0482C19.561 10.0521 19.5604 10.0584 19.56 10.0669C19.5591 10.0838 19.5585 10.1093 19.5601 10.141C19.5633 10.2046 19.5752 10.2912 19.6096 10.3837C19.6765 10.5631 19.8321 10.7767 20.211 10.8827C20.5823 10.9866 20.8787 10.8622 21.0888 10.7054C21.1943 10.6266 21.2764 10.5407 21.3321 10.4742C21.3599 10.4411 21.3808 10.4132 21.3945 10.3939C21.4014 10.3843 21.4065 10.3768 21.4097 10.372L21.4131 10.3668L21.4136 10.366L21.4137 10.3659C21.4481 10.3108 21.5207 10.294 21.5758 10.3284C21.631 10.3628 21.6478 10.4354 21.6134 10.4906L21.5135 10.4283C21.6134 10.4906 21.6133 10.4906 21.6133 10.4907L21.6132 10.4908L21.6131 10.4911L21.6126 10.4919L21.611 10.4943L21.6057 10.5024C21.6012 10.5092 21.5947 10.5188 21.5862 10.5306C21.5694 10.5542 21.5447 10.5871 21.5126 10.6254C21.4485 10.7019 21.3534 10.8017 21.2297 10.894C20.9813 11.0794 20.6105 11.239 20.1475 11.1095C19.6921 10.9821 19.4806 10.7119 19.389 10.4659C19.3442 10.3456 19.329 10.2341 19.3249 10.1528C19.3228 10.112 19.3236 10.0782 19.3249 10.0542C19.3255 10.0421 19.3263 10.0324 19.327 10.0254C19.3273 10.0219 19.3277 10.019 19.3279 10.0169L19.3282 10.0142L19.3284 10.0133L19.3284 10.0129L19.3284 10.0127C19.3284 10.0127 19.3284 10.0126 19.4448 10.0285L19.3284 10.0126C19.3372 9.94817 19.3966 9.90307 19.461 9.91186C19.5254 9.92064 19.5705 9.97992 19.5617 10.0443C19.5617 10.0443 19.5617 10.0443 19.5617 10.0443Z" fill="#047857"/>
<path d="M21.4167 13.9972C21.4167 13.9972 20.983 14.3647 21.3166 14.7984C21.6501 15.2321 22.0499 15.0649 22.0499 15.0649" fill="#047857"/>
<path fill-rule="evenodd" clip-rule="evenodd" d="M21.4932 14.0868C21.4931 14.0868 21.4931 14.0869 21.493 14.0869L21.4909 14.0888C21.4888 14.0907 21.4853 14.0939 21.4808 14.0983C21.4718 14.1071 21.4586 14.1206 21.4435 14.1382C21.4129 14.1738 21.3761 14.224 21.3487 14.2841C21.2962 14.3989 21.2749 14.5511 21.4099 14.7267C21.5557 14.9163 21.7084 14.9674 21.8186 14.9771C21.8757 14.9821 21.9244 14.9761 21.9582 14.9691C21.9751 14.9656 21.988 14.9618 21.996 14.9592C22.0001 14.9579 22.0029 14.9569 22.0043 14.9564L22.0054 14.956C22.0652 14.9316 22.1336 14.9599 22.1585 15.0195C22.1836 15.0795 22.1553 15.1485 22.0953 15.1736L22.0499 15.065C22.0953 15.1736 22.0953 15.1736 22.0952 15.1736L22.0951 15.1737L22.0948 15.1738L22.094 15.1741L22.0921 15.1749L22.0864 15.1771C22.0818 15.1788 22.0757 15.181 22.0681 15.1834C22.053 15.1882 22.0321 15.1942 22.0063 15.1996C21.9548 15.2103 21.8826 15.219 21.7981 15.2116C21.6251 15.1965 21.411 15.1144 21.2233 14.8702C21.0247 14.6121 21.0535 14.3637 21.1345 14.1863C21.1738 14.1003 21.2246 14.0316 21.2649 13.9847C21.2852 13.9611 21.3033 13.9425 21.3167 13.9295C21.3234 13.923 21.3289 13.9178 21.333 13.9141L21.338 13.9097L21.3396 13.9083L21.3402 13.9078L21.3405 13.9076L21.3406 13.9075C21.3406 13.9075 21.3406 13.9074 21.4168 13.9972L21.3406 13.9074C21.3902 13.8654 21.4645 13.8715 21.5066 13.9211" fill="#047857"/>
<path d="M22.3504 16.2999C22.3504 16.2999 21.8191 15.8127 21.3828 16.4697C20.9465 17.1266 21.7503 17.6044 21.7503 17.6044" fill="#047857"/>
<path fill-rule="evenodd" clip-rule="evenodd" d="M22.4298 16.213C22.4299 16.213 22.4299 16.2131 22.3531 16.2968L22.4299 16.2131C22.4778 16.257 22.4811 16.3315 22.4371 16.3794C22.3933 16.4272 22.3191 16.4305 22.2711 16.3869C22.271 16.3868 22.2709 16.3867 22.2708 16.3866L22.3503 16.2999C22.2708 16.3866 22.2708 16.3866 22.2709 16.3867L22.271 16.3867L22.2711 16.3868L22.2708 16.3866L22.2679 16.3841C22.2651 16.3817 22.2604 16.3778 22.2541 16.3729C22.2415 16.363 22.2224 16.349 22.1981 16.3338C22.1489 16.303 22.0818 16.2696 22.0058 16.2535C21.931 16.2377 21.8487 16.2387 21.7636 16.2744C21.6782 16.3103 21.58 16.3854 21.4809 16.5347C21.3857 16.678 21.3623 16.8041 21.3733 16.9121C21.3846 17.0225 21.433 17.1244 21.4982 17.2141C21.5633 17.3038 21.6418 17.3767 21.7053 17.4277C21.7367 17.4529 21.7638 17.4723 21.7828 17.4852C21.7922 17.4916 21.7996 17.4963 21.8044 17.4994L21.8095 17.5026L21.8105 17.5032L21.8105 17.5032C21.8664 17.5365 21.8847 17.6087 21.8515 17.6645C21.8183 17.7204 21.746 17.7388 21.6901 17.7056L21.7503 17.6044C21.6901 17.7056 21.6901 17.7055 21.69 17.7055L21.6899 17.7054L21.6897 17.7053L21.6889 17.7048L21.6865 17.7033L21.6784 17.6983C21.6716 17.694 21.6621 17.6879 21.6505 17.6799C21.6271 17.6641 21.5949 17.641 21.5578 17.6112C21.4842 17.5521 21.389 17.4644 21.3077 17.3525C21.2264 17.2406 21.1558 17.0999 21.139 16.936C21.1221 16.7696 21.1617 16.5896 21.2847 16.4045C21.4037 16.2253 21.5355 16.1149 21.6724 16.0574C21.8096 15.9997 21.942 15.9993 22.0546 16.0232C22.1659 16.0468 22.2589 16.0941 22.3229 16.1342C22.3553 16.1544 22.3811 16.1733 22.3992 16.1875C22.4083 16.1946 22.4155 16.2005 22.4207 16.2049L22.4269 16.2103L22.4288 16.212L22.4295 16.2126L22.4297 16.2129L22.4298 16.213Z" fill="#047857"/>
<path opacity="0.1" d="M12.4726 11.0283C12.4726 11.0283 13.7737 12.1622 15.2735 10.895Z" fill="#047857"/>
<path opacity="0.1" d="M10.5706 13.2299C10.5706 13.2299 11.1384 13.931 11.8717 13.0967Z" fill="#047857"/>
<path opacity="0.1" d="M9.9705 14.1975C9.9705 14.1975 10.3041 15.0649 9.23633 14.9614Z" fill="#047857"/>
<path opacity="0.1" d="M9.30334 15.8323C9.30334 15.8323 9.97046 16.002 9.70311 16.6335Z" fill="#047857"/>
<path opacity="0.1" d="M16.1426 11.6623C16.1426 11.6623 16.1426 11.9959 16.8097 11.9959C17.4768 11.9959 17.3105 11.2617 17.3105 11.2617" fill="#047857"/>
<path opacity="0.1" d="M19.4451 10.0284C19.4451 10.0284 19.3449 10.7626 20.1793 10.996C21.0136 11.2294 21.5135 10.4282 21.5135 10.4282" fill="#047857"/>
<path opacity="0.1" d="M21.4167 13.9972C21.4167 13.9972 20.983 14.3647 21.3166 14.7984C21.6501 15.2321 22.0499 15.0649 22.0499 15.0649" fill="#047857"/>
<path opacity="0.1" d="M22.3504 16.2999C22.3504 16.2999 21.8191 15.8127 21.3828 16.4697C20.9465 17.1266 21.7503 17.6044 21.7503 17.6044" fill="#047857"/>
<path d="M22.6514 12.9903C22.6514 16.4952 19.8101 19.3365 16.3053 19.3365M22.6514 12.9903C22.6514 9.48543 19.8101 6.64417 16.3053 6.64417M22.6514 12.9903H9.95911M16.3053 19.3365C12.8004 19.3365 9.95911 16.4952 9.95911 12.9903M16.3053 19.3365C17.4736 19.3365 18.4206 16.4952 18.4206 12.9903C18.4206 9.48543 17.4736 6.64417 16.3053 6.64417M16.3053 19.3365C15.137 19.3365 14.1899 16.4952 14.1899 12.9903C14.1899 9.48543 15.137 6.64417 16.3053 6.64417M9.95911 12.9903C9.95911 9.48543 12.8004 6.64417 16.3053 6.64417" stroke="#FAFAFA" stroke-linecap="round" stroke-linejoin="round"/>
</svg>
